SplineFontDB: 3.2
FontName: DECTerminal14A
FullName: DEC Terminal 14A
FamilyName: DEC Terminal 14A
Weight: Medium
Copyright: Copyright (c) Darren Embry 2024.
UComments: "2024-7-5: Created with FontForge (http://fontforge.org)"
Version: 001.000
ItalicAngle: 0
UnderlinePosition: -100
UnderlineWidth: 50
Ascent: 800
Descent: 200
InvalidEm: 0
sfntRevision: 0x00010000
LayerCount: 2
Layer: 0 0 "Back" 1
Layer: 1 0 "Fore" 0
XUID: [1021 735 1108562238 671408]
StyleMap: 0x0000
FSType: 64
OS2Version: 0
OS2_WeightWidthSlopeOnly: 0
OS2_UseTypoMetrics: 1
CreationTime: 1720230912
ModificationTime: 1720230912
PfmFamily: 48
TTFWeight: 500
TTFWidth: 5
LineGap: 90
VLineGap: 90
Panose: 2 0 6 9 0 0 0 0 0 0
OS2TypoAscent: 0
OS2TypoAOffset: 1
OS2TypoDescent: 0
OS2TypoDOffset: 1
OS2TypoLinegap: 90
OS2WinAscent: 0
OS2WinAOffset: 1
OS2WinDescent: 0
OS2WinDOffset: 1
HheadAscent: 0
HheadAOffset: 1
HheadDescent: 0
HheadDOffset: 1
OS2SubXSize: 650
OS2SubYSize: 700
OS2SubXOff: 0
OS2SubYOff: 140
OS2SupXSize: 650
OS2SupYSize: 700
OS2SupXOff: 0
OS2SupYOff: 480
OS2StrikeYSize: 49
OS2StrikeYPos: 258
DEI: 91125
LangName: 1033 "" "" "Regular" "DEC Terminal 14A 2024" "" "0.0"
Encoding: ISO8859-1
UnicodeInterp: none
NameList: AGL For New Fonts
DisplaySize: 14
AntiAlias: 1
FitToEm: 0
BeginChars: 256 195

StartChar: exclam
Encoding: 33 33 1
Width: 533
Flags: HW
LayerCount: 2
Back
Fore
SplineSet
200 467 m 1
 200 533 l 1
 267 533 l 1
 267 467 l 1
 200 467 l 1
200 400 m 1
 200 467 l 1
 267 467 l 1
 267 400 l 1
 200 400 l 1
200 333 m 1
 200 400 l 1
 267 400 l 1
 267 333 l 1
 200 333 l 1
200 267 m 1
 200 333 l 1
 267 333 l 1
 267 267 l 1
 200 267 l 1
200 200 m 1
 200 267 l 1
 267 267 l 1
 267 200 l 1
 200 200 l 1
200 67 m 1
 200 133 l 1
 267 133 l 1
 267 67 l 1
 200 67 l 1
200 0 m 1
 200 67 l 1
 267 67 l 1
 267 0 l 1
 200 0 l 1
EndSplineSet
EndChar

StartChar: quotedbl
Encoding: 34 34 2
Width: 533
Flags: HW
LayerCount: 2
Back
Fore
SplineSet
133 533 m 1
 133 600 l 1
 200 600 l 1
 200 533 l 1
 133 533 l 1
333 533 m 1
 333 600 l 1
 400 600 l 1
 400 533 l 1
 333 533 l 1
133 467 m 1
 133 533 l 1
 200 533 l 1
 200 467 l 1
 133 467 l 1
333 467 m 1
 333 533 l 1
 400 533 l 1
 400 467 l 1
 333 467 l 1
133 400 m 1
 133 467 l 1
 200 467 l 1
 200 400 l 1
 133 400 l 1
333 400 m 1
 333 467 l 1
 400 467 l 1
 400 400 l 1
 333 400 l 1
EndSplineSet
EndChar

StartChar: numbersign
Encoding: 35 35 3
Width: 533
Flags: HW
LayerCount: 2
Back
Fore
SplineSet
133 467 m 1
 133 533 l 1
 200 533 l 1
 200 467 l 1
 133 467 l 1
333 467 m 1
 333 533 l 1
 400 533 l 1
 400 467 l 1
 333 467 l 1
133 400 m 1
 133 467 l 1
 200 467 l 1
 200 400 l 1
 133 400 l 1
333 400 m 1
 333 467 l 1
 400 467 l 1
 400 400 l 1
 333 400 l 1
67 333 m 1
 67 400 l 1
 467 400 l 1
 467 333 l 1
 67 333 l 1
133 267 m 1
 133 333 l 1
 200 333 l 1
 200 267 l 1
 133 267 l 1
333 267 m 1
 333 333 l 1
 400 333 l 1
 400 267 l 1
 333 267 l 1
67 200 m 1
 67 267 l 1
 467 267 l 1
 467 200 l 1
 67 200 l 1
133 133 m 1
 133 200 l 1
 200 200 l 1
 200 133 l 1
 133 133 l 1
333 133 m 1
 333 200 l 1
 400 200 l 1
 400 133 l 1
 333 133 l 1
133 67 m 1
 133 133 l 1
 200 133 l 1
 200 67 l 1
 133 67 l 1
333 67 m 1
 333 133 l 1
 400 133 l 1
 400 67 l 1
 333 67 l 1
EndSplineSet
EndChar

StartChar: dollar
Encoding: 36 36 4
Width: 533
Flags: HW
LayerCount: 2
Back
Fore
SplineSet
267 467 m 1
 267 533 l 1
 333 533 l 1
 333 467 l 1
 267 467 l 1
200 400 m 1
 200 467 l 1
 400 467 l 1
 400 400 l 1
 200 400 l 1
133 333 m 1
 133 400 l 1
 200 400 l 1
 200 333 l 1
 133 333 l 1
267 333 m 1
 267 400 l 1
 333 400 l 1
 333 333 l 1
 267 333 l 1
400 333 m 1
 400 400 l 1
 467 400 l 1
 467 333 l 1
 400 333 l 1
200 267 m 1
 200 333 l 1
 333 333 l 1
 333 267 l 1
 200 267 l 1
267 200 m 1
 267 267 l 1
 400 267 l 1
 400 200 l 1
 267 200 l 1
133 133 m 1
 133 200 l 1
 200 200 l 1
 200 133 l 1
 133 133 l 1
267 133 m 1
 267 200 l 1
 333 200 l 1
 333 133 l 1
 267 133 l 1
400 133 m 1
 400 200 l 1
 467 200 l 1
 467 133 l 1
 400 133 l 1
200 67 m 1
 200 133 l 1
 400 133 l 1
 400 67 l 1
 200 67 l 1
267 0 m 1
 267 67 l 1
 333 67 l 1
 333 0 l 1
 267 0 l 1
EndSplineSet
EndChar

StartChar: percent
Encoding: 37 37 5
Width: 533
Flags: HW
LayerCount: 2
Back
Fore
SplineSet
133 467 m 1
 133 533 l 1
 200 533 l 1
 200 467 l 1
 133 467 l 1
333 467 m 1
 333 533 l 1
 400 533 l 1
 400 467 l 1
 333 467 l 1
67 400 m 1
 67 467 l 1
 133 467 l 1
 133 400 l 1
 67 400 l 1
200 400 m 1
 200 467 l 1
 400 467 l 1
 400 400 l 1
 200 400 l 1
133 333 m 1
 133 400 l 1
 200 400 l 1
 200 333 l 1
 133 333 l 1
267 333 m 1
 267 400 l 1
 333 400 l 1
 333 333 l 1
 267 333 l 1
267 267 m 1
 267 333 l 1
 333 333 l 1
 333 267 l 1
 267 267 l 1
200 200 m 1
 200 267 l 1
 267 267 l 1
 267 200 l 1
 200 200 l 1
200 133 m 1
 200 200 l 1
 267 200 l 1
 267 133 l 1
 200 133 l 1
333 133 m 1
 333 200 l 1
 400 200 l 1
 400 133 l 1
 333 133 l 1
133 67 m 1
 133 133 l 1
 200 133 l 1
 200 67 l 1
 133 67 l 1
267 67 m 1
 267 133 l 1
 333 133 l 1
 333 67 l 1
 267 67 l 1
400 67 m 1
 400 133 l 1
 467 133 l 1
 467 67 l 1
 400 67 l 1
133 0 m 1
 133 67 l 1
 200 67 l 1
 200 0 l 1
 133 0 l 1
333 0 m 1
 333 67 l 1
 400 67 l 1
 400 0 l 1
 333 0 l 1
EndSplineSet
EndChar

StartChar: ampersand
Encoding: 38 38 6
Width: 533
Flags: HW
LayerCount: 2
Back
Fore
SplineSet
200 467 m 1
 200 533 l 1
 267 533 l 1
 267 467 l 1
 200 467 l 1
133 400 m 1
 133 467 l 1
 200 467 l 1
 200 400 l 1
 133 400 l 1
267 400 m 1
 267 467 l 1
 333 467 l 1
 333 400 l 1
 267 400 l 1
133 333 m 1
 133 400 l 1
 200 400 l 1
 200 333 l 1
 133 333 l 1
267 333 m 1
 267 400 l 1
 333 400 l 1
 333 333 l 1
 267 333 l 1
200 267 m 1
 200 333 l 1
 267 333 l 1
 267 267 l 1
 200 267 l 1
133 200 m 1
 133 267 l 1
 200 267 l 1
 200 200 l 1
 133 200 l 1
267 200 m 1
 267 267 l 1
 333 267 l 1
 333 200 l 1
 267 200 l 1
400 200 m 1
 400 267 l 1
 467 267 l 1
 467 200 l 1
 400 200 l 1
67 133 m 1
 67 200 l 1
 133 200 l 1
 133 133 l 1
 67 133 l 1
333 133 m 1
 333 200 l 1
 400 200 l 1
 400 133 l 1
 333 133 l 1
67 67 m 1
 67 133 l 1
 133 133 l 1
 133 67 l 1
 67 67 l 1
333 67 m 1
 333 133 l 1
 400 133 l 1
 400 67 l 1
 333 67 l 1
133 0 m 1
 133 67 l 1
 333 67 l 1
 333 0 l 1
 133 0 l 1
400 0 m 1
 400 67 l 1
 467 67 l 1
 467 0 l 1
 400 0 l 1
EndSplineSet
EndChar

StartChar: quoteright
Encoding: 39 8217 7
Width: 533
Flags: HW
LayerCount: 2
Back
Fore
SplineSet
267 533 m 1
 267 600 l 1
 333 600 l 1
 333 533 l 1
 267 533 l 1
267 467 m 1
 267 533 l 1
 333 533 l 1
 333 467 l 1
 267 467 l 1
200 400 m 1
 200 467 l 1
 267 467 l 1
 267 400 l 1
 200 400 l 1
EndSplineSet
EndChar

StartChar: parenleft
Encoding: 40 40 8
Width: 533
Flags: HW
LayerCount: 2
Back
Fore
SplineSet
333 533 m 1
 333 600 l 1
 400 600 l 1
 400 533 l 1
 333 533 l 1
267 467 m 1
 267 533 l 1
 333 533 l 1
 333 467 l 1
 267 467 l 1
267 400 m 1
 267 467 l 1
 333 467 l 1
 333 400 l 1
 267 400 l 1
200 333 m 1
 200 400 l 1
 267 400 l 1
 267 333 l 1
 200 333 l 1
200 267 m 1
 200 333 l 1
 267 333 l 1
 267 267 l 1
 200 267 l 1
200 200 m 1
 200 267 l 1
 267 267 l 1
 267 200 l 1
 200 200 l 1
200 133 m 1
 200 200 l 1
 267 200 l 1
 267 133 l 1
 200 133 l 1
267 67 m 1
 267 133 l 1
 333 133 l 1
 333 67 l 1
 267 67 l 1
267 0 m 1
 267 67 l 1
 333 67 l 1
 333 0 l 1
 267 0 l 1
333 -67 m 1
 333 0 l 1
 400 0 l 1
 400 -67 l 1
 333 -67 l 1
EndSplineSet
EndChar

StartChar: parenright
Encoding: 41 41 9
Width: 533
Flags: HW
LayerCount: 2
Back
Fore
SplineSet
133 533 m 1
 133 600 l 1
 200 600 l 1
 200 533 l 1
 133 533 l 1
200 467 m 1
 200 533 l 1
 267 533 l 1
 267 467 l 1
 200 467 l 1
200 400 m 1
 200 467 l 1
 267 467 l 1
 267 400 l 1
 200 400 l 1
267 333 m 1
 267 400 l 1
 333 400 l 1
 333 333 l 1
 267 333 l 1
267 267 m 1
 267 333 l 1
 333 333 l 1
 333 267 l 1
 267 267 l 1
267 200 m 1
 267 267 l 1
 333 267 l 1
 333 200 l 1
 267 200 l 1
267 133 m 1
 267 200 l 1
 333 200 l 1
 333 133 l 1
 267 133 l 1
200 67 m 1
 200 133 l 1
 267 133 l 1
 267 67 l 1
 200 67 l 1
200 0 m 1
 200 67 l 1
 267 67 l 1
 267 0 l 1
 200 0 l 1
133 -67 m 1
 133 0 l 1
 200 0 l 1
 200 -67 l 1
 133 -67 l 1
EndSplineSet
EndChar

StartChar: asterisk
Encoding: 42 42 10
Width: 533
Flags: HW
LayerCount: 2
Back
Fore
SplineSet
267 467 m 1
 267 533 l 1
 333 533 l 1
 333 467 l 1
 267 467 l 1
133 400 m 1
 133 467 l 1
 200 467 l 1
 200 400 l 1
 133 400 l 1
267 400 m 1
 267 467 l 1
 333 467 l 1
 333 400 l 1
 267 400 l 1
400 400 m 1
 400 467 l 1
 467 467 l 1
 467 400 l 1
 400 400 l 1
200 333 m 1
 200 400 l 1
 400 400 l 1
 400 333 l 1
 200 333 l 1
200 267 m 1
 200 333 l 1
 400 333 l 1
 400 267 l 1
 200 267 l 1
133 200 m 1
 133 267 l 1
 200 267 l 1
 200 200 l 1
 133 200 l 1
267 200 m 1
 267 267 l 1
 333 267 l 1
 333 200 l 1
 267 200 l 1
400 200 m 1
 400 267 l 1
 467 267 l 1
 467 200 l 1
 400 200 l 1
267 133 m 1
 267 200 l 1
 333 200 l 1
 333 133 l 1
 267 133 l 1
EndSplineSet
EndChar

StartChar: plus
Encoding: 43 43 11
Width: 533
Flags: HW
LayerCount: 2
Back
Fore
SplineSet
267 333 m 1
 267 400 l 1
 333 400 l 1
 333 333 l 1
 267 333 l 1
267 267 m 1
 267 333 l 1
 333 333 l 1
 333 267 l 1
 267 267 l 1
133 200 m 1
 133 267 l 1
 467 267 l 1
 467 200 l 1
 133 200 l 1
267 133 m 1
 267 200 l 1
 333 200 l 1
 333 133 l 1
 267 133 l 1
267 67 m 1
 267 133 l 1
 333 133 l 1
 333 67 l 1
 267 67 l 1
EndSplineSet
EndChar

StartChar: comma
Encoding: 44 44 12
Width: 533
Flags: HW
LayerCount: 2
Back
Fore
SplineSet
267 67 m 1
 267 133 l 1
 333 133 l 1
 333 67 l 1
 267 67 l 1
267 0 m 1
 267 67 l 1
 333 67 l 1
 333 0 l 1
 267 0 l 1
200 -67 m 1
 200 0 l 1
 267 0 l 1
 267 -67 l 1
 200 -67 l 1
EndSplineSet
EndChar

StartChar: minus
Encoding: 45 8722 13
Width: 533
Flags: HW
LayerCount: 2
Back
Fore
SplineSet
67 200 m 1
 67 267 l 1
 467 267 l 1
 467 200 l 1
 67 200 l 1
EndSplineSet
EndChar

StartChar: period
Encoding: 46 46 14
Width: 533
Flags: HW
LayerCount: 2
Back
Fore
SplineSet
200 67 m 1
 200 133 l 1
 267 133 l 1
 267 67 l 1
 200 67 l 1
200 0 m 1
 200 67 l 1
 267 67 l 1
 267 0 l 1
 200 0 l 1
EndSplineSet
EndChar

StartChar: slash
Encoding: 47 47 15
Width: 533
Flags: HW
LayerCount: 2
Back
Fore
SplineSet
333 533 m 1
 333 600 l 1
 400 600 l 1
 400 533 l 1
 333 533 l 1
333 467 m 1
 333 533 l 1
 400 533 l 1
 400 467 l 1
 333 467 l 1
267 400 m 1
 267 467 l 1
 333 467 l 1
 333 400 l 1
 267 400 l 1
267 333 m 1
 267 400 l 1
 333 400 l 1
 333 333 l 1
 267 333 l 1
267 267 m 1
 267 333 l 1
 333 333 l 1
 333 267 l 1
 267 267 l 1
200 200 m 1
 200 267 l 1
 267 267 l 1
 267 200 l 1
 200 200 l 1
200 133 m 1
 200 200 l 1
 267 200 l 1
 267 133 l 1
 200 133 l 1
200 67 m 1
 200 133 l 1
 267 133 l 1
 267 67 l 1
 200 67 l 1
133 0 m 1
 133 67 l 1
 200 67 l 1
 200 0 l 1
 133 0 l 1
133 -67 m 1
 133 0 l 1
 200 0 l 1
 200 -67 l 1
 133 -67 l 1
EndSplineSet
EndChar

StartChar: zero
Encoding: 48 48 16
Width: 533
Flags: HW
LayerCount: 2
Back
Fore
SplineSet
200 467 m 1
 200 533 l 1
 400 533 l 1
 400 467 l 1
 200 467 l 1
133 400 m 1
 133 467 l 1
 200 467 l 1
 200 400 l 1
 133 400 l 1
400 400 m 1
 400 467 l 1
 467 467 l 1
 467 400 l 1
 400 400 l 1
133 333 m 1
 133 400 l 1
 200 400 l 1
 200 333 l 1
 133 333 l 1
400 333 m 1
 400 400 l 1
 467 400 l 1
 467 333 l 1
 400 333 l 1
133 267 m 1
 133 333 l 1
 200 333 l 1
 200 267 l 1
 133 267 l 1
400 267 m 1
 400 333 l 1
 467 333 l 1
 467 267 l 1
 400 267 l 1
133 200 m 1
 133 267 l 1
 200 267 l 1
 200 200 l 1
 133 200 l 1
400 200 m 1
 400 267 l 1
 467 267 l 1
 467 200 l 1
 400 200 l 1
133 133 m 1
 133 200 l 1
 200 200 l 1
 200 133 l 1
 133 133 l 1
400 133 m 1
 400 200 l 1
 467 200 l 1
 467 133 l 1
 400 133 l 1
133 67 m 1
 133 133 l 1
 200 133 l 1
 200 67 l 1
 133 67 l 1
400 67 m 1
 400 133 l 1
 467 133 l 1
 467 67 l 1
 400 67 l 1
200 0 m 1
 200 67 l 1
 400 67 l 1
 400 0 l 1
 200 0 l 1
EndSplineSet
EndChar

StartChar: one
Encoding: 49 49 17
Width: 533
Flags: HW
LayerCount: 2
Back
Fore
SplineSet
267 467 m 1
 267 533 l 1
 333 533 l 1
 333 467 l 1
 267 467 l 1
200 400 m 1
 200 467 l 1
 333 467 l 1
 333 400 l 1
 200 400 l 1
133 333 m 1
 133 400 l 1
 200 400 l 1
 200 333 l 1
 133 333 l 1
267 333 m 1
 267 400 l 1
 333 400 l 1
 333 333 l 1
 267 333 l 1
267 267 m 1
 267 333 l 1
 333 333 l 1
 333 267 l 1
 267 267 l 1
267 200 m 1
 267 267 l 1
 333 267 l 1
 333 200 l 1
 267 200 l 1
267 133 m 1
 267 200 l 1
 333 200 l 1
 333 133 l 1
 267 133 l 1
267 67 m 1
 267 133 l 1
 333 133 l 1
 333 67 l 1
 267 67 l 1
133 0 m 1
 133 67 l 1
 467 67 l 1
 467 0 l 1
 133 0 l 1
EndSplineSet
EndChar

StartChar: two
Encoding: 50 50 18
Width: 533
Flags: HW
LayerCount: 2
Back
Fore
SplineSet
200 467 m 1
 200 533 l 1
 400 533 l 1
 400 467 l 1
 200 467 l 1
133 400 m 1
 133 467 l 1
 200 467 l 1
 200 400 l 1
 133 400 l 1
400 400 m 1
 400 467 l 1
 467 467 l 1
 467 400 l 1
 400 400 l 1
400 333 m 1
 400 400 l 1
 467 400 l 1
 467 333 l 1
 400 333 l 1
333 267 m 1
 333 333 l 1
 400 333 l 1
 400 267 l 1
 333 267 l 1
267 200 m 1
 267 267 l 1
 333 267 l 1
 333 200 l 1
 267 200 l 1
200 133 m 1
 200 200 l 1
 267 200 l 1
 267 133 l 1
 200 133 l 1
133 67 m 1
 133 133 l 1
 200 133 l 1
 200 67 l 1
 133 67 l 1
133 0 m 1
 133 67 l 1
 467 67 l 1
 467 0 l 1
 133 0 l 1
EndSplineSet
EndChar

StartChar: three
Encoding: 51 51 19
Width: 533
Flags: HW
LayerCount: 2
Back
Fore
SplineSet
200 467 m 1
 200 533 l 1
 400 533 l 1
 400 467 l 1
 200 467 l 1
133 400 m 1
 133 467 l 1
 200 467 l 1
 200 400 l 1
 133 400 l 1
400 400 m 1
 400 467 l 1
 467 467 l 1
 467 400 l 1
 400 400 l 1
400 333 m 1
 400 400 l 1
 467 400 l 1
 467 333 l 1
 400 333 l 1
267 267 m 1
 267 333 l 1
 400 333 l 1
 400 267 l 1
 267 267 l 1
400 200 m 1
 400 267 l 1
 467 267 l 1
 467 200 l 1
 400 200 l 1
400 133 m 1
 400 200 l 1
 467 200 l 1
 467 133 l 1
 400 133 l 1
133 67 m 1
 133 133 l 1
 200 133 l 1
 200 67 l 1
 133 67 l 1
400 67 m 1
 400 133 l 1
 467 133 l 1
 467 67 l 1
 400 67 l 1
200 0 m 1
 200 67 l 1
 400 67 l 1
 400 0 l 1
 200 0 l 1
EndSplineSet
EndChar

StartChar: four
Encoding: 52 52 20
Width: 533
Flags: HW
LayerCount: 2
Back
Fore
SplineSet
333 467 m 1
 333 533 l 1
 400 533 l 1
 400 467 l 1
 333 467 l 1
267 400 m 1
 267 467 l 1
 400 467 l 1
 400 400 l 1
 267 400 l 1
200 333 m 1
 200 400 l 1
 267 400 l 1
 267 333 l 1
 200 333 l 1
333 333 m 1
 333 400 l 1
 400 400 l 1
 400 333 l 1
 333 333 l 1
200 267 m 1
 200 333 l 1
 267 333 l 1
 267 267 l 1
 200 267 l 1
333 267 m 1
 333 333 l 1
 400 333 l 1
 400 267 l 1
 333 267 l 1
133 200 m 1
 133 267 l 1
 200 267 l 1
 200 200 l 1
 133 200 l 1
333 200 m 1
 333 267 l 1
 400 267 l 1
 400 200 l 1
 333 200 l 1
133 133 m 1
 133 200 l 1
 467 200 l 1
 467 133 l 1
 133 133 l 1
333 67 m 1
 333 133 l 1
 400 133 l 1
 400 67 l 1
 333 67 l 1
333 0 m 1
 333 67 l 1
 400 67 l 1
 400 0 l 1
 333 0 l 1
EndSplineSet
EndChar

StartChar: five
Encoding: 53 53 21
Width: 533
Flags: HW
LayerCount: 2
Back
Fore
SplineSet
133 467 m 1
 133 533 l 1
 467 533 l 1
 467 467 l 1
 133 467 l 1
133 400 m 1
 133 467 l 1
 200 467 l 1
 200 400 l 1
 133 400 l 1
133 333 m 1
 133 400 l 1
 200 400 l 1
 200 333 l 1
 133 333 l 1
133 267 m 1
 133 333 l 1
 400 333 l 1
 400 267 l 1
 133 267 l 1
133 200 m 1
 133 267 l 1
 200 267 l 1
 200 200 l 1
 133 200 l 1
400 200 m 1
 400 267 l 1
 467 267 l 1
 467 200 l 1
 400 200 l 1
400 133 m 1
 400 200 l 1
 467 200 l 1
 467 133 l 1
 400 133 l 1
133 67 m 1
 133 133 l 1
 200 133 l 1
 200 67 l 1
 133 67 l 1
400 67 m 1
 400 133 l 1
 467 133 l 1
 467 67 l 1
 400 67 l 1
200 0 m 1
 200 67 l 1
 400 67 l 1
 400 0 l 1
 200 0 l 1
EndSplineSet
EndChar

StartChar: six
Encoding: 54 54 22
Width: 533
Flags: HW
LayerCount: 2
Back
Fore
SplineSet
267 467 m 1
 267 533 l 1
 400 533 l 1
 400 467 l 1
 267 467 l 1
200 400 m 1
 200 467 l 1
 267 467 l 1
 267 400 l 1
 200 400 l 1
133 333 m 1
 133 400 l 1
 200 400 l 1
 200 333 l 1
 133 333 l 1
133 267 m 1
 133 333 l 1
 400 333 l 1
 400 267 l 1
 133 267 l 1
133 200 m 1
 133 267 l 1
 200 267 l 1
 200 200 l 1
 133 200 l 1
400 200 m 1
 400 267 l 1
 467 267 l 1
 467 200 l 1
 400 200 l 1
133 133 m 1
 133 200 l 1
 200 200 l 1
 200 133 l 1
 133 133 l 1
400 133 m 1
 400 200 l 1
 467 200 l 1
 467 133 l 1
 400 133 l 1
133 67 m 1
 133 133 l 1
 200 133 l 1
 200 67 l 1
 133 67 l 1
400 67 m 1
 400 133 l 1
 467 133 l 1
 467 67 l 1
 400 67 l 1
200 0 m 1
 200 67 l 1
 400 67 l 1
 400 0 l 1
 200 0 l 1
EndSplineSet
EndChar

StartChar: seven
Encoding: 55 55 23
Width: 533
Flags: HW
LayerCount: 2
Back
Fore
SplineSet
133 467 m 1
 133 533 l 1
 467 533 l 1
 467 467 l 1
 133 467 l 1
400 400 m 1
 400 467 l 1
 467 467 l 1
 467 400 l 1
 400 400 l 1
333 333 m 1
 333 400 l 1
 400 400 l 1
 400 333 l 1
 333 333 l 1
267 267 m 1
 267 333 l 1
 333 333 l 1
 333 267 l 1
 267 267 l 1
267 200 m 1
 267 267 l 1
 333 267 l 1
 333 200 l 1
 267 200 l 1
200 133 m 1
 200 200 l 1
 267 200 l 1
 267 133 l 1
 200 133 l 1
200 67 m 1
 200 133 l 1
 267 133 l 1
 267 67 l 1
 200 67 l 1
200 0 m 1
 200 67 l 1
 267 67 l 1
 267 0 l 1
 200 0 l 1
EndSplineSet
EndChar

StartChar: eight
Encoding: 56 56 24
Width: 533
Flags: HW
LayerCount: 2
Back
Fore
SplineSet
200 467 m 1
 200 533 l 1
 400 533 l 1
 400 467 l 1
 200 467 l 1
133 400 m 1
 133 467 l 1
 200 467 l 1
 200 400 l 1
 133 400 l 1
400 400 m 1
 400 467 l 1
 467 467 l 1
 467 400 l 1
 400 400 l 1
133 333 m 1
 133 400 l 1
 200 400 l 1
 200 333 l 1
 133 333 l 1
400 333 m 1
 400 400 l 1
 467 400 l 1
 467 333 l 1
 400 333 l 1
200 267 m 1
 200 333 l 1
 400 333 l 1
 400 267 l 1
 200 267 l 1
133 200 m 1
 133 267 l 1
 200 267 l 1
 200 200 l 1
 133 200 l 1
400 200 m 1
 400 267 l 1
 467 267 l 1
 467 200 l 1
 400 200 l 1
133 133 m 1
 133 200 l 1
 200 200 l 1
 200 133 l 1
 133 133 l 1
400 133 m 1
 400 200 l 1
 467 200 l 1
 467 133 l 1
 400 133 l 1
133 67 m 1
 133 133 l 1
 200 133 l 1
 200 67 l 1
 133 67 l 1
400 67 m 1
 400 133 l 1
 467 133 l 1
 467 67 l 1
 400 67 l 1
200 0 m 1
 200 67 l 1
 400 67 l 1
 400 0 l 1
 200 0 l 1
EndSplineSet
EndChar

StartChar: nine
Encoding: 57 57 25
Width: 533
Flags: HW
LayerCount: 2
Back
Fore
SplineSet
200 467 m 1
 200 533 l 1
 400 533 l 1
 400 467 l 1
 200 467 l 1
133 400 m 1
 133 467 l 1
 200 467 l 1
 200 400 l 1
 133 400 l 1
400 400 m 1
 400 467 l 1
 467 467 l 1
 467 400 l 1
 400 400 l 1
133 333 m 1
 133 400 l 1
 200 400 l 1
 200 333 l 1
 133 333 l 1
400 333 m 1
 400 400 l 1
 467 400 l 1
 467 333 l 1
 400 333 l 1
133 267 m 1
 133 333 l 1
 200 333 l 1
 200 267 l 1
 133 267 l 1
400 267 m 1
 400 333 l 1
 467 333 l 1
 467 267 l 1
 400 267 l 1
200 200 m 1
 200 267 l 1
 467 267 l 1
 467 200 l 1
 200 200 l 1
400 133 m 1
 400 200 l 1
 467 200 l 1
 467 133 l 1
 400 133 l 1
333 67 m 1
 333 133 l 1
 400 133 l 1
 400 67 l 1
 333 67 l 1
200 0 m 1
 200 67 l 1
 333 67 l 1
 333 0 l 1
 200 0 l 1
EndSplineSet
EndChar

StartChar: colon
Encoding: 58 58 26
Width: 533
Flags: HW
LayerCount: 2
Back
Fore
SplineSet
200 333 m 1
 200 400 l 1
 267 400 l 1
 267 333 l 1
 200 333 l 1
200 267 m 1
 200 333 l 1
 267 333 l 1
 267 267 l 1
 200 267 l 1
200 67 m 1
 200 133 l 1
 267 133 l 1
 267 67 l 1
 200 67 l 1
200 0 m 1
 200 67 l 1
 267 67 l 1
 267 0 l 1
 200 0 l 1
EndSplineSet
EndChar

StartChar: semicolon
Encoding: 59 59 27
Width: 533
Flags: HW
LayerCount: 2
Back
Fore
SplineSet
200 333 m 1
 200 400 l 1
 267 400 l 1
 267 333 l 1
 200 333 l 1
200 267 m 1
 200 333 l 1
 267 333 l 1
 267 267 l 1
 200 267 l 1
200 67 m 1
 200 133 l 1
 267 133 l 1
 267 67 l 1
 200 67 l 1
200 0 m 1
 200 67 l 1
 267 67 l 1
 267 0 l 1
 200 0 l 1
133 -67 m 1
 133 0 l 1
 200 0 l 1
 200 -67 l 1
 133 -67 l 1
EndSplineSet
EndChar

StartChar: less
Encoding: 60 60 28
Width: 533
Flags: HW
LayerCount: 2
Back
Fore
SplineSet
333 400 m 1
 333 467 l 1
 400 467 l 1
 400 400 l 1
 333 400 l 1
267 333 m 1
 267 400 l 1
 333 400 l 1
 333 333 l 1
 267 333 l 1
200 267 m 1
 200 333 l 1
 267 333 l 1
 267 267 l 1
 200 267 l 1
133 200 m 1
 133 267 l 1
 200 267 l 1
 200 200 l 1
 133 200 l 1
200 133 m 1
 200 200 l 1
 267 200 l 1
 267 133 l 1
 200 133 l 1
267 67 m 1
 267 133 l 1
 333 133 l 1
 333 67 l 1
 267 67 l 1
333 0 m 1
 333 67 l 1
 400 67 l 1
 400 0 l 1
 333 0 l 1
EndSplineSet
EndChar

StartChar: equal
Encoding: 61 61 29
Width: 533
Flags: HW
LayerCount: 2
Back
Fore
SplineSet
67 267 m 1
 67 333 l 1
 467 333 l 1
 467 267 l 1
 67 267 l 1
67 133 m 1
 67 200 l 1
 467 200 l 1
 467 133 l 1
 67 133 l 1
EndSplineSet
EndChar

StartChar: greater
Encoding: 62 62 30
Width: 533
Flags: HW
LayerCount: 2
Back
Fore
SplineSet
133 400 m 1
 133 467 l 1
 200 467 l 1
 200 400 l 1
 133 400 l 1
200 333 m 1
 200 400 l 1
 267 400 l 1
 267 333 l 1
 200 333 l 1
267 267 m 1
 267 333 l 1
 333 333 l 1
 333 267 l 1
 267 267 l 1
333 200 m 1
 333 267 l 1
 400 267 l 1
 400 200 l 1
 333 200 l 1
267 133 m 1
 267 200 l 1
 333 200 l 1
 333 133 l 1
 267 133 l 1
200 67 m 1
 200 133 l 1
 267 133 l 1
 267 67 l 1
 200 67 l 1
133 0 m 1
 133 67 l 1
 200 67 l 1
 200 0 l 1
 133 0 l 1
EndSplineSet
EndChar

StartChar: question
Encoding: 63 63 31
Width: 533
Flags: HW
LayerCount: 2
Back
Fore
SplineSet
133 467 m 1
 133 533 l 1
 333 533 l 1
 333 467 l 1
 133 467 l 1
67 400 m 1
 67 467 l 1
 133 467 l 1
 133 400 l 1
 67 400 l 1
333 400 m 1
 333 467 l 1
 400 467 l 1
 400 400 l 1
 333 400 l 1
267 333 m 1
 267 400 l 1
 333 400 l 1
 333 333 l 1
 267 333 l 1
200 267 m 1
 200 333 l 1
 267 333 l 1
 267 267 l 1
 200 267 l 1
200 200 m 1
 200 267 l 1
 267 267 l 1
 267 200 l 1
 200 200 l 1
200 67 m 1
 200 133 l 1
 267 133 l 1
 267 67 l 1
 200 67 l 1
200 0 m 1
 200 67 l 1
 267 67 l 1
 267 0 l 1
 200 0 l 1
EndSplineSet
EndChar

StartChar: at
Encoding: 64 64 32
Width: 533
Flags: HW
LayerCount: 2
Back
Fore
SplineSet
133 467 m 1
 133 533 l 1
 400 533 l 1
 400 467 l 1
 133 467 l 1
67 400 m 1
 67 467 l 1
 133 467 l 1
 133 400 l 1
 67 400 l 1
400 400 m 1
 400 467 l 1
 467 467 l 1
 467 400 l 1
 400 400 l 1
67 333 m 1
 67 400 l 1
 133 400 l 1
 133 333 l 1
 67 333 l 1
267 333 m 1
 267 400 l 1
 467 400 l 1
 467 333 l 1
 267 333 l 1
67 267 m 1
 67 333 l 1
 133 333 l 1
 133 267 l 1
 67 267 l 1
200 267 m 1
 200 333 l 1
 267 333 l 1
 267 267 l 1
 200 267 l 1
400 267 m 1
 400 333 l 1
 467 333 l 1
 467 267 l 1
 400 267 l 1
67 200 m 1
 67 267 l 1
 133 267 l 1
 133 200 l 1
 67 200 l 1
200 200 m 1
 200 267 l 1
 267 267 l 1
 267 200 l 1
 200 200 l 1
400 200 m 1
 400 267 l 1
 467 267 l 1
 467 200 l 1
 400 200 l 1
67 133 m 1
 67 200 l 1
 133 200 l 1
 133 133 l 1
 67 133 l 1
267 133 m 1
 267 200 l 1
 467 200 l 1
 467 133 l 1
 267 133 l 1
67 67 m 1
 67 133 l 1
 133 133 l 1
 133 67 l 1
 67 67 l 1
133 0 m 1
 133 67 l 1
 400 67 l 1
 400 0 l 1
 133 0 l 1
EndSplineSet
EndChar

StartChar: A
Encoding: 65 65 33
Width: 533
Flags: HW
LayerCount: 2
Back
Fore
SplineSet
200 467 m 1
 200 533 l 1
 333 533 l 1
 333 467 l 1
 200 467 l 1
133 400 m 1
 133 467 l 1
 200 467 l 1
 200 400 l 1
 133 400 l 1
333 400 m 1
 333 467 l 1
 400 467 l 1
 400 400 l 1
 333 400 l 1
67 333 m 1
 67 400 l 1
 133 400 l 1
 133 333 l 1
 67 333 l 1
400 333 m 1
 400 400 l 1
 467 400 l 1
 467 333 l 1
 400 333 l 1
67 267 m 1
 67 333 l 1
 133 333 l 1
 133 267 l 1
 67 267 l 1
400 267 m 1
 400 333 l 1
 467 333 l 1
 467 267 l 1
 400 267 l 1
67 200 m 1
 67 267 l 1
 467 267 l 1
 467 200 l 1
 67 200 l 1
67 133 m 1
 67 200 l 1
 133 200 l 1
 133 133 l 1
 67 133 l 1
400 133 m 1
 400 200 l 1
 467 200 l 1
 467 133 l 1
 400 133 l 1
67 67 m 1
 67 133 l 1
 133 133 l 1
 133 67 l 1
 67 67 l 1
400 67 m 1
 400 133 l 1
 467 133 l 1
 467 67 l 1
 400 67 l 1
67 0 m 1
 67 67 l 1
 133 67 l 1
 133 0 l 1
 67 0 l 1
400 0 m 1
 400 67 l 1
 467 67 l 1
 467 0 l 1
 400 0 l 1
EndSplineSet
EndChar

StartChar: B
Encoding: 66 66 34
Width: 533
Flags: HW
LayerCount: 2
Back
Fore
SplineSet
67 467 m 1
 67 533 l 1
 400 533 l 1
 400 467 l 1
 67 467 l 1
67 400 m 1
 67 467 l 1
 133 467 l 1
 133 400 l 1
 67 400 l 1
400 400 m 1
 400 467 l 1
 467 467 l 1
 467 400 l 1
 400 400 l 1
67 333 m 1
 67 400 l 1
 133 400 l 1
 133 333 l 1
 67 333 l 1
400 333 m 1
 400 400 l 1
 467 400 l 1
 467 333 l 1
 400 333 l 1
67 267 m 1
 67 333 l 1
 400 333 l 1
 400 267 l 1
 67 267 l 1
67 200 m 1
 67 267 l 1
 133 267 l 1
 133 200 l 1
 67 200 l 1
400 200 m 1
 400 267 l 1
 467 267 l 1
 467 200 l 1
 400 200 l 1
67 133 m 1
 67 200 l 1
 133 200 l 1
 133 133 l 1
 67 133 l 1
400 133 m 1
 400 200 l 1
 467 200 l 1
 467 133 l 1
 400 133 l 1
67 67 m 1
 67 133 l 1
 133 133 l 1
 133 67 l 1
 67 67 l 1
400 67 m 1
 400 133 l 1
 467 133 l 1
 467 67 l 1
 400 67 l 1
67 0 m 1
 67 67 l 1
 400 67 l 1
 400 0 l 1
 67 0 l 1
EndSplineSet
EndChar

StartChar: C
Encoding: 67 67 35
Width: 533
Flags: HW
LayerCount: 2
Back
Fore
SplineSet
133 467 m 1
 133 533 l 1
 400 533 l 1
 400 467 l 1
 133 467 l 1
67 400 m 1
 67 467 l 1
 133 467 l 1
 133 400 l 1
 67 400 l 1
400 400 m 1
 400 467 l 1
 467 467 l 1
 467 400 l 1
 400 400 l 1
67 333 m 1
 67 400 l 1
 133 400 l 1
 133 333 l 1
 67 333 l 1
67 267 m 1
 67 333 l 1
 133 333 l 1
 133 267 l 1
 67 267 l 1
67 200 m 1
 67 267 l 1
 133 267 l 1
 133 200 l 1
 67 200 l 1
67 133 m 1
 67 200 l 1
 133 200 l 1
 133 133 l 1
 67 133 l 1
67 67 m 1
 67 133 l 1
 133 133 l 1
 133 67 l 1
 67 67 l 1
400 67 m 1
 400 133 l 1
 467 133 l 1
 467 67 l 1
 400 67 l 1
133 0 m 1
 133 67 l 1
 400 67 l 1
 400 0 l 1
 133 0 l 1
EndSplineSet
EndChar

StartChar: D
Encoding: 68 68 36
Width: 533
Flags: HW
LayerCount: 2
Back
Fore
SplineSet
67 467 m 1
 67 533 l 1
 400 533 l 1
 400 467 l 1
 67 467 l 1
67 400 m 1
 67 467 l 1
 133 467 l 1
 133 400 l 1
 67 400 l 1
400 400 m 1
 400 467 l 1
 467 467 l 1
 467 400 l 1
 400 400 l 1
67 333 m 1
 67 400 l 1
 133 400 l 1
 133 333 l 1
 67 333 l 1
400 333 m 1
 400 400 l 1
 467 400 l 1
 467 333 l 1
 400 333 l 1
67 267 m 1
 67 333 l 1
 133 333 l 1
 133 267 l 1
 67 267 l 1
400 267 m 1
 400 333 l 1
 467 333 l 1
 467 267 l 1
 400 267 l 1
67 200 m 1
 67 267 l 1
 133 267 l 1
 133 200 l 1
 67 200 l 1
400 200 m 1
 400 267 l 1
 467 267 l 1
 467 200 l 1
 400 200 l 1
67 133 m 1
 67 200 l 1
 133 200 l 1
 133 133 l 1
 67 133 l 1
400 133 m 1
 400 200 l 1
 467 200 l 1
 467 133 l 1
 400 133 l 1
67 67 m 1
 67 133 l 1
 133 133 l 1
 133 67 l 1
 67 67 l 1
400 67 m 1
 400 133 l 1
 467 133 l 1
 467 67 l 1
 400 67 l 1
67 0 m 1
 67 67 l 1
 400 67 l 1
 400 0 l 1
 67 0 l 1
EndSplineSet
EndChar

StartChar: E
Encoding: 69 69 37
Width: 533
Flags: HW
LayerCount: 2
Back
Fore
SplineSet
133 467 m 1
 133 533 l 1
 467 533 l 1
 467 467 l 1
 133 467 l 1
133 400 m 1
 133 467 l 1
 200 467 l 1
 200 400 l 1
 133 400 l 1
133 333 m 1
 133 400 l 1
 200 400 l 1
 200 333 l 1
 133 333 l 1
133 267 m 1
 133 333 l 1
 400 333 l 1
 400 267 l 1
 133 267 l 1
133 200 m 1
 133 267 l 1
 200 267 l 1
 200 200 l 1
 133 200 l 1
133 133 m 1
 133 200 l 1
 200 200 l 1
 200 133 l 1
 133 133 l 1
133 67 m 1
 133 133 l 1
 200 133 l 1
 200 67 l 1
 133 67 l 1
133 0 m 1
 133 67 l 1
 467 67 l 1
 467 0 l 1
 133 0 l 1
EndSplineSet
EndChar

StartChar: F
Encoding: 70 70 38
Width: 533
Flags: HW
LayerCount: 2
Back
Fore
SplineSet
133 467 m 1
 133 533 l 1
 467 533 l 1
 467 467 l 1
 133 467 l 1
133 400 m 1
 133 467 l 1
 200 467 l 1
 200 400 l 1
 133 400 l 1
133 333 m 1
 133 400 l 1
 200 400 l 1
 200 333 l 1
 133 333 l 1
133 267 m 1
 133 333 l 1
 200 333 l 1
 200 267 l 1
 133 267 l 1
133 200 m 1
 133 267 l 1
 400 267 l 1
 400 200 l 1
 133 200 l 1
133 133 m 1
 133 200 l 1
 200 200 l 1
 200 133 l 1
 133 133 l 1
133 67 m 1
 133 133 l 1
 200 133 l 1
 200 67 l 1
 133 67 l 1
133 0 m 1
 133 67 l 1
 200 67 l 1
 200 0 l 1
 133 0 l 1
EndSplineSet
EndChar

StartChar: G
Encoding: 71 71 39
Width: 533
Flags: HW
LayerCount: 2
Back
Fore
SplineSet
133 467 m 1
 133 533 l 1
 400 533 l 1
 400 467 l 1
 133 467 l 1
67 400 m 1
 67 467 l 1
 133 467 l 1
 133 400 l 1
 67 400 l 1
400 400 m 1
 400 467 l 1
 467 467 l 1
 467 400 l 1
 400 400 l 1
67 333 m 1
 67 400 l 1
 133 400 l 1
 133 333 l 1
 67 333 l 1
67 267 m 1
 67 333 l 1
 133 333 l 1
 133 267 l 1
 67 267 l 1
267 267 m 1
 267 333 l 1
 467 333 l 1
 467 267 l 1
 267 267 l 1
67 200 m 1
 67 267 l 1
 133 267 l 1
 133 200 l 1
 67 200 l 1
400 200 m 1
 400 267 l 1
 467 267 l 1
 467 200 l 1
 400 200 l 1
67 133 m 1
 67 200 l 1
 133 200 l 1
 133 133 l 1
 67 133 l 1
400 133 m 1
 400 200 l 1
 467 200 l 1
 467 133 l 1
 400 133 l 1
67 67 m 1
 67 133 l 1
 133 133 l 1
 133 67 l 1
 67 67 l 1
400 67 m 1
 400 133 l 1
 467 133 l 1
 467 67 l 1
 400 67 l 1
133 0 m 1
 133 67 l 1
 400 67 l 1
 400 0 l 1
 133 0 l 1
EndSplineSet
EndChar

StartChar: H
Encoding: 72 72 40
Width: 533
Flags: HW
LayerCount: 2
Back
Fore
SplineSet
67 467 m 1
 67 533 l 1
 133 533 l 1
 133 467 l 1
 67 467 l 1
400 467 m 1
 400 533 l 1
 467 533 l 1
 467 467 l 1
 400 467 l 1
67 400 m 1
 67 467 l 1
 133 467 l 1
 133 400 l 1
 67 400 l 1
400 400 m 1
 400 467 l 1
 467 467 l 1
 467 400 l 1
 400 400 l 1
67 333 m 1
 67 400 l 1
 133 400 l 1
 133 333 l 1
 67 333 l 1
400 333 m 1
 400 400 l 1
 467 400 l 1
 467 333 l 1
 400 333 l 1
67 267 m 1
 67 333 l 1
 467 333 l 1
 467 267 l 1
 67 267 l 1
67 200 m 1
 67 267 l 1
 133 267 l 1
 133 200 l 1
 67 200 l 1
400 200 m 1
 400 267 l 1
 467 267 l 1
 467 200 l 1
 400 200 l 1
67 133 m 1
 67 200 l 1
 133 200 l 1
 133 133 l 1
 67 133 l 1
400 133 m 1
 400 200 l 1
 467 200 l 1
 467 133 l 1
 400 133 l 1
67 67 m 1
 67 133 l 1
 133 133 l 1
 133 67 l 1
 67 67 l 1
400 67 m 1
 400 133 l 1
 467 133 l 1
 467 67 l 1
 400 67 l 1
67 0 m 1
 67 67 l 1
 133 67 l 1
 133 0 l 1
 67 0 l 1
400 0 m 1
 400 67 l 1
 467 67 l 1
 467 0 l 1
 400 0 l 1
EndSplineSet
EndChar

StartChar: I
Encoding: 73 73 41
Width: 533
Flags: HW
LayerCount: 2
Back
Fore
SplineSet
133 467 m 1
 133 533 l 1
 467 533 l 1
 467 467 l 1
 133 467 l 1
267 400 m 1
 267 467 l 1
 333 467 l 1
 333 400 l 1
 267 400 l 1
267 333 m 1
 267 400 l 1
 333 400 l 1
 333 333 l 1
 267 333 l 1
267 267 m 1
 267 333 l 1
 333 333 l 1
 333 267 l 1
 267 267 l 1
267 200 m 1
 267 267 l 1
 333 267 l 1
 333 200 l 1
 267 200 l 1
267 133 m 1
 267 200 l 1
 333 200 l 1
 333 133 l 1
 267 133 l 1
267 67 m 1
 267 133 l 1
 333 133 l 1
 333 67 l 1
 267 67 l 1
133 0 m 1
 133 67 l 1
 467 67 l 1
 467 0 l 1
 133 0 l 1
EndSplineSet
EndChar

StartChar: J
Encoding: 74 74 42
Width: 533
Flags: HW
LayerCount: 2
Back
Fore
SplineSet
200 467 m 1
 200 533 l 1
 467 533 l 1
 467 467 l 1
 200 467 l 1
333 400 m 1
 333 467 l 1
 400 467 l 1
 400 400 l 1
 333 400 l 1
333 333 m 1
 333 400 l 1
 400 400 l 1
 400 333 l 1
 333 333 l 1
333 267 m 1
 333 333 l 1
 400 333 l 1
 400 267 l 1
 333 267 l 1
333 200 m 1
 333 267 l 1
 400 267 l 1
 400 200 l 1
 333 200 l 1
333 133 m 1
 333 200 l 1
 400 200 l 1
 400 133 l 1
 333 133 l 1
67 67 m 1
 67 133 l 1
 133 133 l 1
 133 67 l 1
 67 67 l 1
333 67 m 1
 333 133 l 1
 400 133 l 1
 400 67 l 1
 333 67 l 1
133 0 m 1
 133 67 l 1
 333 67 l 1
 333 0 l 1
 133 0 l 1
EndSplineSet
EndChar

StartChar: K
Encoding: 75 75 43
Width: 533
Flags: HW
LayerCount: 2
Back
Fore
SplineSet
133 467 m 1
 133 533 l 1
 200 533 l 1
 200 467 l 1
 133 467 l 1
400 467 m 1
 400 533 l 1
 467 533 l 1
 467 467 l 1
 400 467 l 1
133 400 m 1
 133 467 l 1
 200 467 l 1
 200 400 l 1
 133 400 l 1
333 400 m 1
 333 467 l 1
 400 467 l 1
 400 400 l 1
 333 400 l 1
133 333 m 1
 133 400 l 1
 200 400 l 1
 200 333 l 1
 133 333 l 1
267 333 m 1
 267 400 l 1
 333 400 l 1
 333 333 l 1
 267 333 l 1
133 267 m 1
 133 333 l 1
 267 333 l 1
 267 267 l 1
 133 267 l 1
133 200 m 1
 133 267 l 1
 267 267 l 1
 267 200 l 1
 133 200 l 1
133 133 m 1
 133 200 l 1
 200 200 l 1
 200 133 l 1
 133 133 l 1
267 133 m 1
 267 200 l 1
 333 200 l 1
 333 133 l 1
 267 133 l 1
133 67 m 1
 133 133 l 1
 200 133 l 1
 200 67 l 1
 133 67 l 1
333 67 m 1
 333 133 l 1
 400 133 l 1
 400 67 l 1
 333 67 l 1
133 0 m 1
 133 67 l 1
 200 67 l 1
 200 0 l 1
 133 0 l 1
400 0 m 1
 400 67 l 1
 467 67 l 1
 467 0 l 1
 400 0 l 1
EndSplineSet
EndChar

StartChar: L
Encoding: 76 76 44
Width: 533
Flags: HW
LayerCount: 2
Back
Fore
SplineSet
133 467 m 1
 133 533 l 1
 200 533 l 1
 200 467 l 1
 133 467 l 1
133 400 m 1
 133 467 l 1
 200 467 l 1
 200 400 l 1
 133 400 l 1
133 333 m 1
 133 400 l 1
 200 400 l 1
 200 333 l 1
 133 333 l 1
133 267 m 1
 133 333 l 1
 200 333 l 1
 200 267 l 1
 133 267 l 1
133 200 m 1
 133 267 l 1
 200 267 l 1
 200 200 l 1
 133 200 l 1
133 133 m 1
 133 200 l 1
 200 200 l 1
 200 133 l 1
 133 133 l 1
133 67 m 1
 133 133 l 1
 200 133 l 1
 200 67 l 1
 133 67 l 1
133 0 m 1
 133 67 l 1
 467 67 l 1
 467 0 l 1
 133 0 l 1
EndSplineSet
EndChar

StartChar: M
Encoding: 77 77 45
Width: 533
Flags: HW
LayerCount: 2
Back
Fore
SplineSet
67 467 m 1
 67 533 l 1
 133 533 l 1
 133 467 l 1
 67 467 l 1
467 467 m 1
 467 533 l 1
 533 533 l 1
 533 467 l 1
 467 467 l 1
67 400 m 1
 67 467 l 1
 200 467 l 1
 200 400 l 1
 67 400 l 1
400 400 m 1
 400 467 l 1
 533 467 l 1
 533 400 l 1
 400 400 l 1
67 333 m 1
 67 400 l 1
 133 400 l 1
 133 333 l 1
 67 333 l 1
200 333 m 1
 200 400 l 1
 267 400 l 1
 267 333 l 1
 200 333 l 1
333 333 m 1
 333 400 l 1
 400 400 l 1
 400 333 l 1
 333 333 l 1
467 333 m 1
 467 400 l 1
 533 400 l 1
 533 333 l 1
 467 333 l 1
67 267 m 1
 67 333 l 1
 133 333 l 1
 133 267 l 1
 67 267 l 1
200 267 m 1
 200 333 l 1
 267 333 l 1
 267 267 l 1
 200 267 l 1
333 267 m 1
 333 333 l 1
 400 333 l 1
 400 267 l 1
 333 267 l 1
467 267 m 1
 467 333 l 1
 533 333 l 1
 533 267 l 1
 467 267 l 1
67 200 m 1
 67 267 l 1
 133 267 l 1
 133 200 l 1
 67 200 l 1
267 200 m 1
 267 267 l 1
 333 267 l 1
 333 200 l 1
 267 200 l 1
467 200 m 1
 467 267 l 1
 533 267 l 1
 533 200 l 1
 467 200 l 1
67 133 m 1
 67 200 l 1
 133 200 l 1
 133 133 l 1
 67 133 l 1
267 133 m 1
 267 200 l 1
 333 200 l 1
 333 133 l 1
 267 133 l 1
467 133 m 1
 467 200 l 1
 533 200 l 1
 533 133 l 1
 467 133 l 1
67 67 m 1
 67 133 l 1
 133 133 l 1
 133 67 l 1
 67 67 l 1
467 67 m 1
 467 133 l 1
 533 133 l 1
 533 67 l 1
 467 67 l 1
67 0 m 1
 67 67 l 1
 133 67 l 1
 133 0 l 1
 67 0 l 1
467 0 m 1
 467 67 l 1
 533 67 l 1
 533 0 l 1
 467 0 l 1
EndSplineSet
EndChar

StartChar: N
Encoding: 78 78 46
Width: 533
Flags: HW
LayerCount: 2
Back
Fore
SplineSet
67 467 m 1
 67 533 l 1
 133 533 l 1
 133 467 l 1
 67 467 l 1
400 467 m 1
 400 533 l 1
 467 533 l 1
 467 467 l 1
 400 467 l 1
67 400 m 1
 67 467 l 1
 200 467 l 1
 200 400 l 1
 67 400 l 1
400 400 m 1
 400 467 l 1
 467 467 l 1
 467 400 l 1
 400 400 l 1
67 333 m 1
 67 400 l 1
 133 400 l 1
 133 333 l 1
 67 333 l 1
200 333 m 1
 200 400 l 1
 267 400 l 1
 267 333 l 1
 200 333 l 1
400 333 m 1
 400 400 l 1
 467 400 l 1
 467 333 l 1
 400 333 l 1
67 267 m 1
 67 333 l 1
 133 333 l 1
 133 267 l 1
 67 267 l 1
200 267 m 1
 200 333 l 1
 267 333 l 1
 267 267 l 1
 200 267 l 1
400 267 m 1
 400 333 l 1
 467 333 l 1
 467 267 l 1
 400 267 l 1
67 200 m 1
 67 267 l 1
 133 267 l 1
 133 200 l 1
 67 200 l 1
267 200 m 1
 267 267 l 1
 333 267 l 1
 333 200 l 1
 267 200 l 1
400 200 m 1
 400 267 l 1
 467 267 l 1
 467 200 l 1
 400 200 l 1
67 133 m 1
 67 200 l 1
 133 200 l 1
 133 133 l 1
 67 133 l 1
267 133 m 1
 267 200 l 1
 333 200 l 1
 333 133 l 1
 267 133 l 1
400 133 m 1
 400 200 l 1
 467 200 l 1
 467 133 l 1
 400 133 l 1
67 67 m 1
 67 133 l 1
 133 133 l 1
 133 67 l 1
 67 67 l 1
333 67 m 1
 333 133 l 1
 467 133 l 1
 467 67 l 1
 333 67 l 1
67 0 m 1
 67 67 l 1
 133 67 l 1
 133 0 l 1
 67 0 l 1
400 0 m 1
 400 67 l 1
 467 67 l 1
 467 0 l 1
 400 0 l 1
EndSplineSet
EndChar

StartChar: O
Encoding: 79 79 47
Width: 533
Flags: HW
LayerCount: 2
Back
Fore
SplineSet
133 467 m 1
 133 533 l 1
 400 533 l 1
 400 467 l 1
 133 467 l 1
67 400 m 1
 67 467 l 1
 133 467 l 1
 133 400 l 1
 67 400 l 1
400 400 m 1
 400 467 l 1
 467 467 l 1
 467 400 l 1
 400 400 l 1
67 333 m 1
 67 400 l 1
 133 400 l 1
 133 333 l 1
 67 333 l 1
400 333 m 1
 400 400 l 1
 467 400 l 1
 467 333 l 1
 400 333 l 1
67 267 m 1
 67 333 l 1
 133 333 l 1
 133 267 l 1
 67 267 l 1
400 267 m 1
 400 333 l 1
 467 333 l 1
 467 267 l 1
 400 267 l 1
67 200 m 1
 67 267 l 1
 133 267 l 1
 133 200 l 1
 67 200 l 1
400 200 m 1
 400 267 l 1
 467 267 l 1
 467 200 l 1
 400 200 l 1
67 133 m 1
 67 200 l 1
 133 200 l 1
 133 133 l 1
 67 133 l 1
400 133 m 1
 400 200 l 1
 467 200 l 1
 467 133 l 1
 400 133 l 1
67 67 m 1
 67 133 l 1
 133 133 l 1
 133 67 l 1
 67 67 l 1
400 67 m 1
 400 133 l 1
 467 133 l 1
 467 67 l 1
 400 67 l 1
133 0 m 1
 133 67 l 1
 400 67 l 1
 400 0 l 1
 133 0 l 1
EndSplineSet
EndChar

StartChar: P
Encoding: 80 80 48
Width: 533
Flags: HW
LayerCount: 2
Back
Fore
SplineSet
67 467 m 1
 67 533 l 1
 400 533 l 1
 400 467 l 1
 67 467 l 1
67 400 m 1
 67 467 l 1
 133 467 l 1
 133 400 l 1
 67 400 l 1
400 400 m 1
 400 467 l 1
 467 467 l 1
 467 400 l 1
 400 400 l 1
67 333 m 1
 67 400 l 1
 133 400 l 1
 133 333 l 1
 67 333 l 1
400 333 m 1
 400 400 l 1
 467 400 l 1
 467 333 l 1
 400 333 l 1
67 267 m 1
 67 333 l 1
 133 333 l 1
 133 267 l 1
 67 267 l 1
400 267 m 1
 400 333 l 1
 467 333 l 1
 467 267 l 1
 400 267 l 1
67 200 m 1
 67 267 l 1
 400 267 l 1
 400 200 l 1
 67 200 l 1
67 133 m 1
 67 200 l 1
 133 200 l 1
 133 133 l 1
 67 133 l 1
67 67 m 1
 67 133 l 1
 133 133 l 1
 133 67 l 1
 67 67 l 1
67 0 m 1
 67 67 l 1
 133 67 l 1
 133 0 l 1
 67 0 l 1
EndSplineSet
EndChar

StartChar: Q
Encoding: 81 81 49
Width: 533
Flags: HW
LayerCount: 2
Back
Fore
SplineSet
133 467 m 1
 133 533 l 1
 400 533 l 1
 400 467 l 1
 133 467 l 1
67 400 m 1
 67 467 l 1
 133 467 l 1
 133 400 l 1
 67 400 l 1
400 400 m 1
 400 467 l 1
 467 467 l 1
 467 400 l 1
 400 400 l 1
67 333 m 1
 67 400 l 1
 133 400 l 1
 133 333 l 1
 67 333 l 1
400 333 m 1
 400 400 l 1
 467 400 l 1
 467 333 l 1
 400 333 l 1
67 267 m 1
 67 333 l 1
 133 333 l 1
 133 267 l 1
 67 267 l 1
400 267 m 1
 400 333 l 1
 467 333 l 1
 467 267 l 1
 400 267 l 1
67 200 m 1
 67 267 l 1
 133 267 l 1
 133 200 l 1
 67 200 l 1
400 200 m 1
 400 267 l 1
 467 267 l 1
 467 200 l 1
 400 200 l 1
67 133 m 1
 67 200 l 1
 133 200 l 1
 133 133 l 1
 67 133 l 1
200 133 m 1
 200 200 l 1
 267 200 l 1
 267 133 l 1
 200 133 l 1
400 133 m 1
 400 200 l 1
 467 200 l 1
 467 133 l 1
 400 133 l 1
67 67 m 1
 67 133 l 1
 133 133 l 1
 133 67 l 1
 67 67 l 1
267 67 m 1
 267 133 l 1
 333 133 l 1
 333 67 l 1
 267 67 l 1
400 67 m 1
 400 133 l 1
 467 133 l 1
 467 67 l 1
 400 67 l 1
133 0 m 1
 133 67 l 1
 400 67 l 1
 400 0 l 1
 133 0 l 1
400 -67 m 1
 400 0 l 1
 467 0 l 1
 467 -67 l 1
 400 -67 l 1
EndSplineSet
EndChar

StartChar: R
Encoding: 82 82 50
Width: 533
Flags: HW
LayerCount: 2
Back
Fore
SplineSet
67 467 m 1
 67 533 l 1
 400 533 l 1
 400 467 l 1
 67 467 l 1
67 400 m 1
 67 467 l 1
 133 467 l 1
 133 400 l 1
 67 400 l 1
400 400 m 1
 400 467 l 1
 467 467 l 1
 467 400 l 1
 400 400 l 1
67 333 m 1
 67 400 l 1
 133 400 l 1
 133 333 l 1
 67 333 l 1
400 333 m 1
 400 400 l 1
 467 400 l 1
 467 333 l 1
 400 333 l 1
67 267 m 1
 67 333 l 1
 133 333 l 1
 133 267 l 1
 67 267 l 1
400 267 m 1
 400 333 l 1
 467 333 l 1
 467 267 l 1
 400 267 l 1
67 200 m 1
 67 267 l 1
 400 267 l 1
 400 200 l 1
 67 200 l 1
67 133 m 1
 67 200 l 1
 133 200 l 1
 133 133 l 1
 67 133 l 1
267 133 m 1
 267 200 l 1
 333 200 l 1
 333 133 l 1
 267 133 l 1
67 67 m 1
 67 133 l 1
 133 133 l 1
 133 67 l 1
 67 67 l 1
333 67 m 1
 333 133 l 1
 400 133 l 1
 400 67 l 1
 333 67 l 1
67 0 m 1
 67 67 l 1
 133 67 l 1
 133 0 l 1
 67 0 l 1
400 0 m 1
 400 67 l 1
 467 67 l 1
 467 0 l 1
 400 0 l 1
EndSplineSet
EndChar

StartChar: S
Encoding: 83 83 51
Width: 533
Flags: HW
LayerCount: 2
Back
Fore
SplineSet
133 467 m 1
 133 533 l 1
 400 533 l 1
 400 467 l 1
 133 467 l 1
67 400 m 1
 67 467 l 1
 133 467 l 1
 133 400 l 1
 67 400 l 1
400 400 m 1
 400 467 l 1
 467 467 l 1
 467 400 l 1
 400 400 l 1
67 333 m 1
 67 400 l 1
 133 400 l 1
 133 333 l 1
 67 333 l 1
133 267 m 1
 133 333 l 1
 400 333 l 1
 400 267 l 1
 133 267 l 1
400 200 m 1
 400 267 l 1
 467 267 l 1
 467 200 l 1
 400 200 l 1
400 133 m 1
 400 200 l 1
 467 200 l 1
 467 133 l 1
 400 133 l 1
67 67 m 1
 67 133 l 1
 133 133 l 1
 133 67 l 1
 67 67 l 1
400 67 m 1
 400 133 l 1
 467 133 l 1
 467 67 l 1
 400 67 l 1
133 0 m 1
 133 67 l 1
 400 67 l 1
 400 0 l 1
 133 0 l 1
EndSplineSet
EndChar

StartChar: T
Encoding: 84 84 52
Width: 533
Flags: HW
LayerCount: 2
Back
Fore
SplineSet
133 467 m 1
 133 533 l 1
 467 533 l 1
 467 467 l 1
 133 467 l 1
267 400 m 1
 267 467 l 1
 333 467 l 1
 333 400 l 1
 267 400 l 1
267 333 m 1
 267 400 l 1
 333 400 l 1
 333 333 l 1
 267 333 l 1
267 267 m 1
 267 333 l 1
 333 333 l 1
 333 267 l 1
 267 267 l 1
267 200 m 1
 267 267 l 1
 333 267 l 1
 333 200 l 1
 267 200 l 1
267 133 m 1
 267 200 l 1
 333 200 l 1
 333 133 l 1
 267 133 l 1
267 67 m 1
 267 133 l 1
 333 133 l 1
 333 67 l 1
 267 67 l 1
267 0 m 1
 267 67 l 1
 333 67 l 1
 333 0 l 1
 267 0 l 1
EndSplineSet
EndChar

StartChar: U
Encoding: 85 85 53
Width: 533
Flags: HW
LayerCount: 2
Back
Fore
SplineSet
67 467 m 1
 67 533 l 1
 133 533 l 1
 133 467 l 1
 67 467 l 1
400 467 m 1
 400 533 l 1
 467 533 l 1
 467 467 l 1
 400 467 l 1
67 400 m 1
 67 467 l 1
 133 467 l 1
 133 400 l 1
 67 400 l 1
400 400 m 1
 400 467 l 1
 467 467 l 1
 467 400 l 1
 400 400 l 1
67 333 m 1
 67 400 l 1
 133 400 l 1
 133 333 l 1
 67 333 l 1
400 333 m 1
 400 400 l 1
 467 400 l 1
 467 333 l 1
 400 333 l 1
67 267 m 1
 67 333 l 1
 133 333 l 1
 133 267 l 1
 67 267 l 1
400 267 m 1
 400 333 l 1
 467 333 l 1
 467 267 l 1
 400 267 l 1
67 200 m 1
 67 267 l 1
 133 267 l 1
 133 200 l 1
 67 200 l 1
400 200 m 1
 400 267 l 1
 467 267 l 1
 467 200 l 1
 400 200 l 1
67 133 m 1
 67 200 l 1
 133 200 l 1
 133 133 l 1
 67 133 l 1
400 133 m 1
 400 200 l 1
 467 200 l 1
 467 133 l 1
 400 133 l 1
67 67 m 1
 67 133 l 1
 133 133 l 1
 133 67 l 1
 67 67 l 1
400 67 m 1
 400 133 l 1
 467 133 l 1
 467 67 l 1
 400 67 l 1
133 0 m 1
 133 67 l 1
 400 67 l 1
 400 0 l 1
 133 0 l 1
EndSplineSet
EndChar

StartChar: V
Encoding: 86 86 54
Width: 533
Flags: HW
LayerCount: 2
Back
Fore
SplineSet
67 467 m 1
 67 533 l 1
 133 533 l 1
 133 467 l 1
 67 467 l 1
467 467 m 1
 467 533 l 1
 533 533 l 1
 533 467 l 1
 467 467 l 1
67 400 m 1
 67 467 l 1
 133 467 l 1
 133 400 l 1
 67 400 l 1
467 400 m 1
 467 467 l 1
 533 467 l 1
 533 400 l 1
 467 400 l 1
133 333 m 1
 133 400 l 1
 200 400 l 1
 200 333 l 1
 133 333 l 1
400 333 m 1
 400 400 l 1
 467 400 l 1
 467 333 l 1
 400 333 l 1
133 267 m 1
 133 333 l 1
 200 333 l 1
 200 267 l 1
 133 267 l 1
400 267 m 1
 400 333 l 1
 467 333 l 1
 467 267 l 1
 400 267 l 1
200 200 m 1
 200 267 l 1
 267 267 l 1
 267 200 l 1
 200 200 l 1
333 200 m 1
 333 267 l 1
 400 267 l 1
 400 200 l 1
 333 200 l 1
200 133 m 1
 200 200 l 1
 267 200 l 1
 267 133 l 1
 200 133 l 1
333 133 m 1
 333 200 l 1
 400 200 l 1
 400 133 l 1
 333 133 l 1
267 67 m 1
 267 133 l 1
 333 133 l 1
 333 67 l 1
 267 67 l 1
267 0 m 1
 267 67 l 1
 333 67 l 1
 333 0 l 1
 267 0 l 1
EndSplineSet
EndChar

StartChar: W
Encoding: 87 87 55
Width: 533
Flags: HW
LayerCount: 2
Back
Fore
SplineSet
67 467 m 1
 67 533 l 1
 133 533 l 1
 133 467 l 1
 67 467 l 1
467 467 m 1
 467 533 l 1
 533 533 l 1
 533 467 l 1
 467 467 l 1
67 400 m 1
 67 467 l 1
 133 467 l 1
 133 400 l 1
 67 400 l 1
467 400 m 1
 467 467 l 1
 533 467 l 1
 533 400 l 1
 467 400 l 1
67 333 m 1
 67 400 l 1
 133 400 l 1
 133 333 l 1
 67 333 l 1
467 333 m 1
 467 400 l 1
 533 400 l 1
 533 333 l 1
 467 333 l 1
67 267 m 1
 67 333 l 1
 133 333 l 1
 133 267 l 1
 67 267 l 1
267 267 m 1
 267 333 l 1
 333 333 l 1
 333 267 l 1
 267 267 l 1
467 267 m 1
 467 333 l 1
 533 333 l 1
 533 267 l 1
 467 267 l 1
67 200 m 1
 67 267 l 1
 133 267 l 1
 133 200 l 1
 67 200 l 1
267 200 m 1
 267 267 l 1
 333 267 l 1
 333 200 l 1
 267 200 l 1
467 200 m 1
 467 267 l 1
 533 267 l 1
 533 200 l 1
 467 200 l 1
67 133 m 1
 67 200 l 1
 133 200 l 1
 133 133 l 1
 67 133 l 1
267 133 m 1
 267 200 l 1
 333 200 l 1
 333 133 l 1
 267 133 l 1
467 133 m 1
 467 200 l 1
 533 200 l 1
 533 133 l 1
 467 133 l 1
67 67 m 1
 67 133 l 1
 133 133 l 1
 133 67 l 1
 67 67 l 1
267 67 m 1
 267 133 l 1
 333 133 l 1
 333 67 l 1
 267 67 l 1
467 67 m 1
 467 133 l 1
 533 133 l 1
 533 67 l 1
 467 67 l 1
133 0 m 1
 133 67 l 1
 267 67 l 1
 267 0 l 1
 133 0 l 1
333 0 m 1
 333 67 l 1
 467 67 l 1
 467 0 l 1
 333 0 l 1
EndSplineSet
EndChar

StartChar: X
Encoding: 88 88 56
Width: 533
Flags: HW
LayerCount: 2
Back
Fore
SplineSet
67 467 m 1
 67 533 l 1
 200 533 l 1
 200 467 l 1
 67 467 l 1
400 467 m 1
 400 533 l 1
 533 533 l 1
 533 467 l 1
 400 467 l 1
133 400 m 1
 133 467 l 1
 200 467 l 1
 200 400 l 1
 133 400 l 1
400 400 m 1
 400 467 l 1
 467 467 l 1
 467 400 l 1
 400 400 l 1
200 333 m 1
 200 400 l 1
 267 400 l 1
 267 333 l 1
 200 333 l 1
333 333 m 1
 333 400 l 1
 400 400 l 1
 400 333 l 1
 333 333 l 1
267 267 m 1
 267 333 l 1
 333 333 l 1
 333 267 l 1
 267 267 l 1
267 200 m 1
 267 267 l 1
 333 267 l 1
 333 200 l 1
 267 200 l 1
200 133 m 1
 200 200 l 1
 267 200 l 1
 267 133 l 1
 200 133 l 1
333 133 m 1
 333 200 l 1
 400 200 l 1
 400 133 l 1
 333 133 l 1
133 67 m 1
 133 133 l 1
 200 133 l 1
 200 67 l 1
 133 67 l 1
400 67 m 1
 400 133 l 1
 467 133 l 1
 467 67 l 1
 400 67 l 1
67 0 m 1
 67 67 l 1
 200 67 l 1
 200 0 l 1
 67 0 l 1
400 0 m 1
 400 67 l 1
 533 67 l 1
 533 0 l 1
 400 0 l 1
EndSplineSet
EndChar

StartChar: Y
Encoding: 89 89 57
Width: 533
Flags: HW
LayerCount: 2
Back
Fore
SplineSet
67 467 m 1
 67 533 l 1
 133 533 l 1
 133 467 l 1
 67 467 l 1
467 467 m 1
 467 533 l 1
 533 533 l 1
 533 467 l 1
 467 467 l 1
67 400 m 1
 67 467 l 1
 133 467 l 1
 133 400 l 1
 67 400 l 1
467 400 m 1
 467 467 l 1
 533 467 l 1
 533 400 l 1
 467 400 l 1
133 333 m 1
 133 400 l 1
 200 400 l 1
 200 333 l 1
 133 333 l 1
400 333 m 1
 400 400 l 1
 467 400 l 1
 467 333 l 1
 400 333 l 1
200 267 m 1
 200 333 l 1
 267 333 l 1
 267 267 l 1
 200 267 l 1
333 267 m 1
 333 333 l 1
 400 333 l 1
 400 267 l 1
 333 267 l 1
267 200 m 1
 267 267 l 1
 333 267 l 1
 333 200 l 1
 267 200 l 1
267 133 m 1
 267 200 l 1
 333 200 l 1
 333 133 l 1
 267 133 l 1
267 67 m 1
 267 133 l 1
 333 133 l 1
 333 67 l 1
 267 67 l 1
267 0 m 1
 267 67 l 1
 333 67 l 1
 333 0 l 1
 267 0 l 1
EndSplineSet
EndChar

StartChar: Z
Encoding: 90 90 58
Width: 533
Flags: HW
LayerCount: 2
Back
Fore
SplineSet
67 467 m 1
 67 533 l 1
 467 533 l 1
 467 467 l 1
 67 467 l 1
400 400 m 1
 400 467 l 1
 467 467 l 1
 467 400 l 1
 400 400 l 1
333 333 m 1
 333 400 l 1
 400 400 l 1
 400 333 l 1
 333 333 l 1
267 267 m 1
 267 333 l 1
 333 333 l 1
 333 267 l 1
 267 267 l 1
200 200 m 1
 200 267 l 1
 267 267 l 1
 267 200 l 1
 200 200 l 1
133 133 m 1
 133 200 l 1
 200 200 l 1
 200 133 l 1
 133 133 l 1
67 67 m 1
 67 133 l 1
 133 133 l 1
 133 67 l 1
 67 67 l 1
67 0 m 1
 67 67 l 1
 467 67 l 1
 467 0 l 1
 67 0 l 1
EndSplineSet
EndChar

StartChar: bracketleft
Encoding: 91 91 59
Width: 533
Flags: HW
LayerCount: 2
Back
Fore
SplineSet
200 533 m 1
 200 600 l 1
 400 600 l 1
 400 533 l 1
 200 533 l 1
200 467 m 1
 200 533 l 1
 267 533 l 1
 267 467 l 1
 200 467 l 1
200 400 m 1
 200 467 l 1
 267 467 l 1
 267 400 l 1
 200 400 l 1
200 333 m 1
 200 400 l 1
 267 400 l 1
 267 333 l 1
 200 333 l 1
200 267 m 1
 200 333 l 1
 267 333 l 1
 267 267 l 1
 200 267 l 1
200 200 m 1
 200 267 l 1
 267 267 l 1
 267 200 l 1
 200 200 l 1
200 133 m 1
 200 200 l 1
 267 200 l 1
 267 133 l 1
 200 133 l 1
200 67 m 1
 200 133 l 1
 267 133 l 1
 267 67 l 1
 200 67 l 1
200 0 m 1
 200 67 l 1
 267 67 l 1
 267 0 l 1
 200 0 l 1
200 -67 m 1
 200 0 l 1
 400 0 l 1
 400 -67 l 1
 200 -67 l 1
EndSplineSet
EndChar

StartChar: backslash
Encoding: 92 92 60
Width: 533
Flags: HW
LayerCount: 2
Back
Fore
SplineSet
133 533 m 1
 133 600 l 1
 200 600 l 1
 200 533 l 1
 133 533 l 1
133 467 m 1
 133 533 l 1
 200 533 l 1
 200 467 l 1
 133 467 l 1
200 400 m 1
 200 467 l 1
 267 467 l 1
 267 400 l 1
 200 400 l 1
200 333 m 1
 200 400 l 1
 267 400 l 1
 267 333 l 1
 200 333 l 1
200 267 m 1
 200 333 l 1
 267 333 l 1
 267 267 l 1
 200 267 l 1
267 200 m 1
 267 267 l 1
 333 267 l 1
 333 200 l 1
 267 200 l 1
267 133 m 1
 267 200 l 1
 333 200 l 1
 333 133 l 1
 267 133 l 1
267 67 m 1
 267 133 l 1
 333 133 l 1
 333 67 l 1
 267 67 l 1
333 0 m 1
 333 67 l 1
 400 67 l 1
 400 0 l 1
 333 0 l 1
333 -67 m 1
 333 0 l 1
 400 0 l 1
 400 -67 l 1
 333 -67 l 1
EndSplineSet
EndChar

StartChar: bracketright
Encoding: 93 93 61
Width: 533
Flags: HW
LayerCount: 2
Back
Fore
SplineSet
133 533 m 1
 133 600 l 1
 333 600 l 1
 333 533 l 1
 133 533 l 1
267 467 m 1
 267 533 l 1
 333 533 l 1
 333 467 l 1
 267 467 l 1
267 400 m 1
 267 467 l 1
 333 467 l 1
 333 400 l 1
 267 400 l 1
267 333 m 1
 267 400 l 1
 333 400 l 1
 333 333 l 1
 267 333 l 1
267 267 m 1
 267 333 l 1
 333 333 l 1
 333 267 l 1
 267 267 l 1
267 200 m 1
 267 267 l 1
 333 267 l 1
 333 200 l 1
 267 200 l 1
267 133 m 1
 267 200 l 1
 333 200 l 1
 333 133 l 1
 267 133 l 1
267 67 m 1
 267 133 l 1
 333 133 l 1
 333 67 l 1
 267 67 l 1
267 0 m 1
 267 67 l 1
 333 67 l 1
 333 0 l 1
 267 0 l 1
133 -67 m 1
 133 0 l 1
 333 0 l 1
 333 -67 l 1
 133 -67 l 1
EndSplineSet
EndChar

StartChar: asciicircum
Encoding: 94 94 62
Width: 533
Flags: HW
LayerCount: 2
Back
Fore
SplineSet
267 333 m 1
 267 400 l 1
 333 400 l 1
 333 333 l 1
 267 333 l 1
200 267 m 1
 200 333 l 1
 267 333 l 1
 267 267 l 1
 200 267 l 1
333 267 m 1
 333 333 l 1
 400 333 l 1
 400 267 l 1
 333 267 l 1
133 200 m 1
 133 267 l 1
 200 267 l 1
 200 200 l 1
 133 200 l 1
400 200 m 1
 400 267 l 1
 467 267 l 1
 467 200 l 1
 400 200 l 1
EndSplineSet
EndChar

StartChar: underscore
Encoding: 95 95 63
Width: 533
Flags: HW
LayerCount: 2
Back
Fore
SplineSet
67 0 m 1
 67 67 l 1
 467 67 l 1
 467 0 l 1
 67 0 l 1
EndSplineSet
EndChar

StartChar: quoteleft
Encoding: 96 8216 64
Width: 533
Flags: HW
LayerCount: 2
Back
Fore
SplineSet
267 533 m 1
 267 600 l 1
 333 600 l 1
 333 533 l 1
 267 533 l 1
267 467 m 1
 267 533 l 1
 333 533 l 1
 333 467 l 1
 267 467 l 1
333 400 m 1
 333 467 l 1
 400 467 l 1
 400 400 l 1
 333 400 l 1
EndSplineSet
EndChar

StartChar: a
Encoding: 97 97 65
Width: 533
Flags: HW
LayerCount: 2
Back
Fore
SplineSet
133 333 m 1
 133 400 l 1
 400 400 l 1
 400 333 l 1
 133 333 l 1
400 267 m 1
 400 333 l 1
 467 333 l 1
 467 267 l 1
 400 267 l 1
133 200 m 1
 133 267 l 1
 467 267 l 1
 467 200 l 1
 133 200 l 1
67 133 m 1
 67 200 l 1
 133 200 l 1
 133 133 l 1
 67 133 l 1
400 133 m 1
 400 200 l 1
 467 200 l 1
 467 133 l 1
 400 133 l 1
67 67 m 1
 67 133 l 1
 133 133 l 1
 133 67 l 1
 67 67 l 1
400 67 m 1
 400 133 l 1
 467 133 l 1
 467 67 l 1
 400 67 l 1
133 0 m 1
 133 67 l 1
 400 67 l 1
 400 0 l 1
 133 0 l 1
467 0 m 1
 467 67 l 1
 533 67 l 1
 533 0 l 1
 467 0 l 1
EndSplineSet
EndChar

StartChar: b
Encoding: 98 98 66
Width: 533
Flags: HW
LayerCount: 2
Back
Fore
SplineSet
67 467 m 1
 67 533 l 1
 133 533 l 1
 133 467 l 1
 67 467 l 1
67 400 m 1
 67 467 l 1
 133 467 l 1
 133 400 l 1
 67 400 l 1
67 333 m 1
 67 400 l 1
 133 400 l 1
 133 333 l 1
 67 333 l 1
200 333 m 1
 200 400 l 1
 400 400 l 1
 400 333 l 1
 200 333 l 1
67 267 m 1
 67 333 l 1
 200 333 l 1
 200 267 l 1
 67 267 l 1
400 267 m 1
 400 333 l 1
 467 333 l 1
 467 267 l 1
 400 267 l 1
67 200 m 1
 67 267 l 1
 133 267 l 1
 133 200 l 1
 67 200 l 1
400 200 m 1
 400 267 l 1
 467 267 l 1
 467 200 l 1
 400 200 l 1
67 133 m 1
 67 200 l 1
 133 200 l 1
 133 133 l 1
 67 133 l 1
400 133 m 1
 400 200 l 1
 467 200 l 1
 467 133 l 1
 400 133 l 1
67 67 m 1
 67 133 l 1
 133 133 l 1
 133 67 l 1
 67 67 l 1
400 67 m 1
 400 133 l 1
 467 133 l 1
 467 67 l 1
 400 67 l 1
67 0 m 1
 67 67 l 1
 400 67 l 1
 400 0 l 1
 67 0 l 1
EndSplineSet
EndChar

StartChar: c
Encoding: 99 99 67
Width: 533
Flags: HW
LayerCount: 2
Back
Fore
SplineSet
133 333 m 1
 133 400 l 1
 400 400 l 1
 400 333 l 1
 133 333 l 1
67 267 m 1
 67 333 l 1
 133 333 l 1
 133 267 l 1
 67 267 l 1
400 267 m 1
 400 333 l 1
 467 333 l 1
 467 267 l 1
 400 267 l 1
67 200 m 1
 67 267 l 1
 133 267 l 1
 133 200 l 1
 67 200 l 1
67 133 m 1
 67 200 l 1
 133 200 l 1
 133 133 l 1
 67 133 l 1
67 67 m 1
 67 133 l 1
 133 133 l 1
 133 67 l 1
 67 67 l 1
400 67 m 1
 400 133 l 1
 467 133 l 1
 467 67 l 1
 400 67 l 1
133 0 m 1
 133 67 l 1
 400 67 l 1
 400 0 l 1
 133 0 l 1
EndSplineSet
EndChar

StartChar: d
Encoding: 100 100 68
Width: 533
Flags: HW
LayerCount: 2
Back
Fore
SplineSet
400 467 m 1
 400 533 l 1
 467 533 l 1
 467 467 l 1
 400 467 l 1
400 400 m 1
 400 467 l 1
 467 467 l 1
 467 400 l 1
 400 400 l 1
133 333 m 1
 133 400 l 1
 333 400 l 1
 333 333 l 1
 133 333 l 1
400 333 m 1
 400 400 l 1
 467 400 l 1
 467 333 l 1
 400 333 l 1
67 267 m 1
 67 333 l 1
 133 333 l 1
 133 267 l 1
 67 267 l 1
333 267 m 1
 333 333 l 1
 467 333 l 1
 467 267 l 1
 333 267 l 1
67 200 m 1
 67 267 l 1
 133 267 l 1
 133 200 l 1
 67 200 l 1
400 200 m 1
 400 267 l 1
 467 267 l 1
 467 200 l 1
 400 200 l 1
67 133 m 1
 67 200 l 1
 133 200 l 1
 133 133 l 1
 67 133 l 1
400 133 m 1
 400 200 l 1
 467 200 l 1
 467 133 l 1
 400 133 l 1
67 67 m 1
 67 133 l 1
 133 133 l 1
 133 67 l 1
 67 67 l 1
400 67 m 1
 400 133 l 1
 467 133 l 1
 467 67 l 1
 400 67 l 1
133 0 m 1
 133 67 l 1
 467 67 l 1
 467 0 l 1
 133 0 l 1
EndSplineSet
EndChar

StartChar: e
Encoding: 101 101 69
Width: 533
Flags: HW
LayerCount: 2
Back
Fore
SplineSet
133 333 m 1
 133 400 l 1
 400 400 l 1
 400 333 l 1
 133 333 l 1
67 267 m 1
 67 333 l 1
 133 333 l 1
 133 267 l 1
 67 267 l 1
400 267 m 1
 400 333 l 1
 467 333 l 1
 467 267 l 1
 400 267 l 1
67 200 m 1
 67 267 l 1
 467 267 l 1
 467 200 l 1
 67 200 l 1
67 133 m 1
 67 200 l 1
 133 200 l 1
 133 133 l 1
 67 133 l 1
67 67 m 1
 67 133 l 1
 133 133 l 1
 133 67 l 1
 67 67 l 1
400 67 m 1
 400 133 l 1
 467 133 l 1
 467 67 l 1
 400 67 l 1
133 0 m 1
 133 67 l 1
 400 67 l 1
 400 0 l 1
 133 0 l 1
EndSplineSet
EndChar

StartChar: f
Encoding: 102 102 70
Width: 533
Flags: HW
LayerCount: 2
Back
Fore
SplineSet
267 467 m 1
 267 533 l 1
 467 533 l 1
 467 467 l 1
 267 467 l 1
200 400 m 1
 200 467 l 1
 267 467 l 1
 267 400 l 1
 200 400 l 1
200 333 m 1
 200 400 l 1
 267 400 l 1
 267 333 l 1
 200 333 l 1
133 267 m 1
 133 333 l 1
 400 333 l 1
 400 267 l 1
 133 267 l 1
200 200 m 1
 200 267 l 1
 267 267 l 1
 267 200 l 1
 200 200 l 1
200 133 m 1
 200 200 l 1
 267 200 l 1
 267 133 l 1
 200 133 l 1
200 67 m 1
 200 133 l 1
 267 133 l 1
 267 67 l 1
 200 67 l 1
200 0 m 1
 200 67 l 1
 267 67 l 1
 267 0 l 1
 200 0 l 1
EndSplineSet
EndChar

StartChar: g
Encoding: 103 103 71
Width: 533
Flags: HW
LayerCount: 2
Back
Fore
SplineSet
333 400 m 1
 333 467 l 1
 400 467 l 1
 400 400 l 1
 333 400 l 1
133 333 m 1
 133 400 l 1
 333 400 l 1
 333 333 l 1
 133 333 l 1
67 267 m 1
 67 333 l 1
 133 333 l 1
 133 267 l 1
 67 267 l 1
333 267 m 1
 333 333 l 1
 400 333 l 1
 400 267 l 1
 333 267 l 1
67 200 m 1
 67 267 l 1
 133 267 l 1
 133 200 l 1
 67 200 l 1
333 200 m 1
 333 267 l 1
 400 267 l 1
 400 200 l 1
 333 200 l 1
133 133 m 1
 133 200 l 1
 333 200 l 1
 333 133 l 1
 133 133 l 1
67 67 m 1
 67 133 l 1
 133 133 l 1
 133 67 l 1
 67 67 l 1
133 0 m 1
 133 67 l 1
 400 67 l 1
 400 0 l 1
 133 0 l 1
67 -67 m 1
 67 0 l 1
 133 0 l 1
 133 -67 l 1
 67 -67 l 1
400 -67 m 1
 400 0 l 1
 467 0 l 1
 467 -67 l 1
 400 -67 l 1
133 -133 m 1
 133 -67 l 1
 400 -67 l 1
 400 -133 l 1
 133 -133 l 1
EndSplineSet
EndChar

StartChar: h
Encoding: 104 104 72
Width: 533
Flags: HW
LayerCount: 2
Back
Fore
SplineSet
67 467 m 1
 67 533 l 1
 133 533 l 1
 133 467 l 1
 67 467 l 1
67 400 m 1
 67 467 l 1
 133 467 l 1
 133 400 l 1
 67 400 l 1
67 333 m 1
 67 400 l 1
 133 400 l 1
 133 333 l 1
 67 333 l 1
200 333 m 1
 200 400 l 1
 400 400 l 1
 400 333 l 1
 200 333 l 1
67 267 m 1
 67 333 l 1
 200 333 l 1
 200 267 l 1
 67 267 l 1
400 267 m 1
 400 333 l 1
 467 333 l 1
 467 267 l 1
 400 267 l 1
67 200 m 1
 67 267 l 1
 133 267 l 1
 133 200 l 1
 67 200 l 1
400 200 m 1
 400 267 l 1
 467 267 l 1
 467 200 l 1
 400 200 l 1
67 133 m 1
 67 200 l 1
 133 200 l 1
 133 133 l 1
 67 133 l 1
400 133 m 1
 400 200 l 1
 467 200 l 1
 467 133 l 1
 400 133 l 1
67 67 m 1
 67 133 l 1
 133 133 l 1
 133 67 l 1
 67 67 l 1
400 67 m 1
 400 133 l 1
 467 133 l 1
 467 67 l 1
 400 67 l 1
67 0 m 1
 67 67 l 1
 133 67 l 1
 133 0 l 1
 67 0 l 1
400 0 m 1
 400 67 l 1
 467 67 l 1
 467 0 l 1
 400 0 l 1
EndSplineSet
EndChar

StartChar: i
Encoding: 105 105 73
Width: 533
Flags: HW
LayerCount: 2
Back
Fore
SplineSet
267 533 m 1
 267 600 l 1
 333 600 l 1
 333 533 l 1
 267 533 l 1
267 467 m 1
 267 533 l 1
 333 533 l 1
 333 467 l 1
 267 467 l 1
133 333 m 1
 133 400 l 1
 333 400 l 1
 333 333 l 1
 133 333 l 1
267 267 m 1
 267 333 l 1
 333 333 l 1
 333 267 l 1
 267 267 l 1
267 200 m 1
 267 267 l 1
 333 267 l 1
 333 200 l 1
 267 200 l 1
267 133 m 1
 267 200 l 1
 333 200 l 1
 333 133 l 1
 267 133 l 1
267 67 m 1
 267 133 l 1
 333 133 l 1
 333 67 l 1
 267 67 l 1
133 0 m 1
 133 67 l 1
 467 67 l 1
 467 0 l 1
 133 0 l 1
EndSplineSet
EndChar

StartChar: j
Encoding: 106 106 74
Width: 533
Flags: HW
LayerCount: 2
Back
Fore
SplineSet
333 533 m 1
 333 600 l 1
 400 600 l 1
 400 533 l 1
 333 533 l 1
333 467 m 1
 333 533 l 1
 400 533 l 1
 400 467 l 1
 333 467 l 1
200 333 m 1
 200 400 l 1
 400 400 l 1
 400 333 l 1
 200 333 l 1
333 267 m 1
 333 333 l 1
 400 333 l 1
 400 267 l 1
 333 267 l 1
333 200 m 1
 333 267 l 1
 400 267 l 1
 400 200 l 1
 333 200 l 1
333 133 m 1
 333 200 l 1
 400 200 l 1
 400 133 l 1
 333 133 l 1
333 67 m 1
 333 133 l 1
 400 133 l 1
 400 67 l 1
 333 67 l 1
333 0 m 1
 333 67 l 1
 400 67 l 1
 400 0 l 1
 333 0 l 1
67 -67 m 1
 67 0 l 1
 133 0 l 1
 133 -67 l 1
 67 -67 l 1
333 -67 m 1
 333 0 l 1
 400 0 l 1
 400 -67 l 1
 333 -67 l 1
133 -133 m 1
 133 -67 l 1
 333 -67 l 1
 333 -133 l 1
 133 -133 l 1
EndSplineSet
EndChar

StartChar: k
Encoding: 107 107 75
Width: 533
Flags: HW
LayerCount: 2
Back
Fore
SplineSet
67 467 m 1
 67 533 l 1
 133 533 l 1
 133 467 l 1
 67 467 l 1
67 400 m 1
 67 467 l 1
 133 467 l 1
 133 400 l 1
 67 400 l 1
67 333 m 1
 67 400 l 1
 133 400 l 1
 133 333 l 1
 67 333 l 1
333 333 m 1
 333 400 l 1
 400 400 l 1
 400 333 l 1
 333 333 l 1
67 267 m 1
 67 333 l 1
 133 333 l 1
 133 267 l 1
 67 267 l 1
267 267 m 1
 267 333 l 1
 333 333 l 1
 333 267 l 1
 267 267 l 1
67 200 m 1
 67 267 l 1
 267 267 l 1
 267 200 l 1
 67 200 l 1
67 133 m 1
 67 200 l 1
 133 200 l 1
 133 133 l 1
 67 133 l 1
267 133 m 1
 267 200 l 1
 333 200 l 1
 333 133 l 1
 267 133 l 1
67 67 m 1
 67 133 l 1
 133 133 l 1
 133 67 l 1
 67 67 l 1
333 67 m 1
 333 133 l 1
 400 133 l 1
 400 67 l 1
 333 67 l 1
67 0 m 1
 67 67 l 1
 133 67 l 1
 133 0 l 1
 67 0 l 1
400 0 m 1
 400 67 l 1
 467 67 l 1
 467 0 l 1
 400 0 l 1
EndSplineSet
EndChar

StartChar: l
Encoding: 108 108 76
Width: 533
Flags: HW
LayerCount: 2
Back
Fore
SplineSet
133 467 m 1
 133 533 l 1
 333 533 l 1
 333 467 l 1
 133 467 l 1
267 400 m 1
 267 467 l 1
 333 467 l 1
 333 400 l 1
 267 400 l 1
267 333 m 1
 267 400 l 1
 333 400 l 1
 333 333 l 1
 267 333 l 1
267 267 m 1
 267 333 l 1
 333 333 l 1
 333 267 l 1
 267 267 l 1
267 200 m 1
 267 267 l 1
 333 267 l 1
 333 200 l 1
 267 200 l 1
267 133 m 1
 267 200 l 1
 333 200 l 1
 333 133 l 1
 267 133 l 1
267 67 m 1
 267 133 l 1
 333 133 l 1
 333 67 l 1
 267 67 l 1
133 0 m 1
 133 67 l 1
 467 67 l 1
 467 0 l 1
 133 0 l 1
EndSplineSet
EndChar

StartChar: m
Encoding: 109 109 77
Width: 533
Flags: HW
LayerCount: 2
Back
Fore
SplineSet
67 333 m 1
 67 400 l 1
 267 400 l 1
 267 333 l 1
 67 333 l 1
333 333 m 1
 333 400 l 1
 467 400 l 1
 467 333 l 1
 333 333 l 1
67 267 m 1
 67 333 l 1
 133 333 l 1
 133 267 l 1
 67 267 l 1
267 267 m 1
 267 333 l 1
 333 333 l 1
 333 267 l 1
 267 267 l 1
467 267 m 1
 467 333 l 1
 533 333 l 1
 533 267 l 1
 467 267 l 1
67 200 m 1
 67 267 l 1
 133 267 l 1
 133 200 l 1
 67 200 l 1
267 200 m 1
 267 267 l 1
 333 267 l 1
 333 200 l 1
 267 200 l 1
467 200 m 1
 467 267 l 1
 533 267 l 1
 533 200 l 1
 467 200 l 1
67 133 m 1
 67 200 l 1
 133 200 l 1
 133 133 l 1
 67 133 l 1
267 133 m 1
 267 200 l 1
 333 200 l 1
 333 133 l 1
 267 133 l 1
467 133 m 1
 467 200 l 1
 533 200 l 1
 533 133 l 1
 467 133 l 1
67 67 m 1
 67 133 l 1
 133 133 l 1
 133 67 l 1
 67 67 l 1
467 67 m 1
 467 133 l 1
 533 133 l 1
 533 67 l 1
 467 67 l 1
67 0 m 1
 67 67 l 1
 133 67 l 1
 133 0 l 1
 67 0 l 1
467 0 m 1
 467 67 l 1
 533 67 l 1
 533 0 l 1
 467 0 l 1
EndSplineSet
EndChar

StartChar: n
Encoding: 110 110 78
Width: 533
Flags: HW
LayerCount: 2
Back
Fore
SplineSet
67 333 m 1
 67 400 l 1
 133 400 l 1
 133 333 l 1
 67 333 l 1
200 333 m 1
 200 400 l 1
 400 400 l 1
 400 333 l 1
 200 333 l 1
67 267 m 1
 67 333 l 1
 200 333 l 1
 200 267 l 1
 67 267 l 1
400 267 m 1
 400 333 l 1
 467 333 l 1
 467 267 l 1
 400 267 l 1
67 200 m 1
 67 267 l 1
 133 267 l 1
 133 200 l 1
 67 200 l 1
400 200 m 1
 400 267 l 1
 467 267 l 1
 467 200 l 1
 400 200 l 1
67 133 m 1
 67 200 l 1
 133 200 l 1
 133 133 l 1
 67 133 l 1
400 133 m 1
 400 200 l 1
 467 200 l 1
 467 133 l 1
 400 133 l 1
67 67 m 1
 67 133 l 1
 133 133 l 1
 133 67 l 1
 67 67 l 1
400 67 m 1
 400 133 l 1
 467 133 l 1
 467 67 l 1
 400 67 l 1
67 0 m 1
 67 67 l 1
 133 67 l 1
 133 0 l 1
 67 0 l 1
400 0 m 1
 400 67 l 1
 467 67 l 1
 467 0 l 1
 400 0 l 1
EndSplineSet
EndChar

StartChar: o
Encoding: 111 111 79
Width: 533
Flags: HW
LayerCount: 2
Back
Fore
SplineSet
133 333 m 1
 133 400 l 1
 400 400 l 1
 400 333 l 1
 133 333 l 1
67 267 m 1
 67 333 l 1
 133 333 l 1
 133 267 l 1
 67 267 l 1
400 267 m 1
 400 333 l 1
 467 333 l 1
 467 267 l 1
 400 267 l 1
67 200 m 1
 67 267 l 1
 133 267 l 1
 133 200 l 1
 67 200 l 1
400 200 m 1
 400 267 l 1
 467 267 l 1
 467 200 l 1
 400 200 l 1
67 133 m 1
 67 200 l 1
 133 200 l 1
 133 133 l 1
 67 133 l 1
400 133 m 1
 400 200 l 1
 467 200 l 1
 467 133 l 1
 400 133 l 1
67 67 m 1
 67 133 l 1
 133 133 l 1
 133 67 l 1
 67 67 l 1
400 67 m 1
 400 133 l 1
 467 133 l 1
 467 67 l 1
 400 67 l 1
133 0 m 1
 133 67 l 1
 400 67 l 1
 400 0 l 1
 133 0 l 1
EndSplineSet
EndChar

StartChar: p
Encoding: 112 112 80
Width: 533
Flags: HW
LayerCount: 2
Back
Fore
SplineSet
67 333 m 1
 67 400 l 1
 133 400 l 1
 133 333 l 1
 67 333 l 1
200 333 m 1
 200 400 l 1
 400 400 l 1
 400 333 l 1
 200 333 l 1
67 267 m 1
 67 333 l 1
 200 333 l 1
 200 267 l 1
 67 267 l 1
400 267 m 1
 400 333 l 1
 467 333 l 1
 467 267 l 1
 400 267 l 1
67 200 m 1
 67 267 l 1
 133 267 l 1
 133 200 l 1
 67 200 l 1
400 200 m 1
 400 267 l 1
 467 267 l 1
 467 200 l 1
 400 200 l 1
67 133 m 1
 67 200 l 1
 133 200 l 1
 133 133 l 1
 67 133 l 1
400 133 m 1
 400 200 l 1
 467 200 l 1
 467 133 l 1
 400 133 l 1
67 67 m 1
 67 133 l 1
 133 133 l 1
 133 67 l 1
 67 67 l 1
400 67 m 1
 400 133 l 1
 467 133 l 1
 467 67 l 1
 400 67 l 1
67 0 m 1
 67 67 l 1
 400 67 l 1
 400 0 l 1
 67 0 l 1
67 -67 m 1
 67 0 l 1
 133 0 l 1
 133 -67 l 1
 67 -67 l 1
67 -133 m 1
 67 -67 l 1
 133 -67 l 1
 133 -133 l 1
 67 -133 l 1
EndSplineSet
EndChar

StartChar: q
Encoding: 113 113 81
Width: 533
Flags: HW
LayerCount: 2
Back
Fore
SplineSet
133 333 m 1
 133 400 l 1
 467 400 l 1
 467 333 l 1
 133 333 l 1
67 267 m 1
 67 333 l 1
 133 333 l 1
 133 267 l 1
 67 267 l 1
400 267 m 1
 400 333 l 1
 467 333 l 1
 467 267 l 1
 400 267 l 1
67 200 m 1
 67 267 l 1
 133 267 l 1
 133 200 l 1
 67 200 l 1
400 200 m 1
 400 267 l 1
 467 267 l 1
 467 200 l 1
 400 200 l 1
67 133 m 1
 67 200 l 1
 133 200 l 1
 133 133 l 1
 67 133 l 1
400 133 m 1
 400 200 l 1
 467 200 l 1
 467 133 l 1
 400 133 l 1
67 67 m 1
 67 133 l 1
 133 133 l 1
 133 67 l 1
 67 67 l 1
333 67 m 1
 333 133 l 1
 467 133 l 1
 467 67 l 1
 333 67 l 1
133 0 m 1
 133 67 l 1
 333 67 l 1
 333 0 l 1
 133 0 l 1
400 0 m 1
 400 67 l 1
 467 67 l 1
 467 0 l 1
 400 0 l 1
400 -67 m 1
 400 0 l 1
 467 0 l 1
 467 -67 l 1
 400 -67 l 1
400 -133 m 1
 400 -67 l 1
 467 -67 l 1
 467 -133 l 1
 400 -133 l 1
EndSplineSet
EndChar

StartChar: r
Encoding: 114 114 82
Width: 533
Flags: HW
LayerCount: 2
Back
Fore
SplineSet
67 333 m 1
 67 400 l 1
 200 400 l 1
 200 333 l 1
 67 333 l 1
267 333 m 1
 267 400 l 1
 467 400 l 1
 467 333 l 1
 267 333 l 1
133 267 m 1
 133 333 l 1
 267 333 l 1
 267 267 l 1
 133 267 l 1
400 267 m 1
 400 333 l 1
 467 333 l 1
 467 267 l 1
 400 267 l 1
133 200 m 1
 133 267 l 1
 200 267 l 1
 200 200 l 1
 133 200 l 1
133 133 m 1
 133 200 l 1
 200 200 l 1
 200 133 l 1
 133 133 l 1
133 67 m 1
 133 133 l 1
 200 133 l 1
 200 67 l 1
 133 67 l 1
133 0 m 1
 133 67 l 1
 200 67 l 1
 200 0 l 1
 133 0 l 1
EndSplineSet
EndChar

StartChar: s
Encoding: 115 115 83
Width: 533
Flags: HW
LayerCount: 2
Back
Fore
SplineSet
133 333 m 1
 133 400 l 1
 400 400 l 1
 400 333 l 1
 133 333 l 1
67 267 m 1
 67 333 l 1
 133 333 l 1
 133 267 l 1
 67 267 l 1
400 267 m 1
 400 333 l 1
 467 333 l 1
 467 267 l 1
 400 267 l 1
133 200 m 1
 133 267 l 1
 400 267 l 1
 400 200 l 1
 133 200 l 1
400 133 m 1
 400 200 l 1
 467 200 l 1
 467 133 l 1
 400 133 l 1
67 67 m 1
 67 133 l 1
 133 133 l 1
 133 67 l 1
 67 67 l 1
400 67 m 1
 400 133 l 1
 467 133 l 1
 467 67 l 1
 400 67 l 1
133 0 m 1
 133 67 l 1
 400 67 l 1
 400 0 l 1
 133 0 l 1
EndSplineSet
EndChar

StartChar: t
Encoding: 116 116 84
Width: 533
Flags: HW
LayerCount: 2
Back
Fore
SplineSet
200 467 m 1
 200 533 l 1
 267 533 l 1
 267 467 l 1
 200 467 l 1
200 400 m 1
 200 467 l 1
 267 467 l 1
 267 400 l 1
 200 400 l 1
133 333 m 1
 133 400 l 1
 400 400 l 1
 400 333 l 1
 133 333 l 1
200 267 m 1
 200 333 l 1
 267 333 l 1
 267 267 l 1
 200 267 l 1
200 200 m 1
 200 267 l 1
 267 267 l 1
 267 200 l 1
 200 200 l 1
200 133 m 1
 200 200 l 1
 267 200 l 1
 267 133 l 1
 200 133 l 1
200 67 m 1
 200 133 l 1
 267 133 l 1
 267 67 l 1
 200 67 l 1
400 67 m 1
 400 133 l 1
 467 133 l 1
 467 67 l 1
 400 67 l 1
267 0 m 1
 267 67 l 1
 400 67 l 1
 400 0 l 1
 267 0 l 1
EndSplineSet
EndChar

StartChar: u
Encoding: 117 117 85
Width: 533
Flags: HW
LayerCount: 2
Back
Fore
SplineSet
67 333 m 1
 67 400 l 1
 133 400 l 1
 133 333 l 1
 67 333 l 1
400 333 m 1
 400 400 l 1
 467 400 l 1
 467 333 l 1
 400 333 l 1
67 267 m 1
 67 333 l 1
 133 333 l 1
 133 267 l 1
 67 267 l 1
400 267 m 1
 400 333 l 1
 467 333 l 1
 467 267 l 1
 400 267 l 1
67 200 m 1
 67 267 l 1
 133 267 l 1
 133 200 l 1
 67 200 l 1
400 200 m 1
 400 267 l 1
 467 267 l 1
 467 200 l 1
 400 200 l 1
67 133 m 1
 67 200 l 1
 133 200 l 1
 133 133 l 1
 67 133 l 1
400 133 m 1
 400 200 l 1
 467 200 l 1
 467 133 l 1
 400 133 l 1
67 67 m 1
 67 133 l 1
 133 133 l 1
 133 67 l 1
 67 67 l 1
333 67 m 1
 333 133 l 1
 467 133 l 1
 467 67 l 1
 333 67 l 1
133 0 m 1
 133 67 l 1
 333 67 l 1
 333 0 l 1
 133 0 l 1
400 0 m 1
 400 67 l 1
 467 67 l 1
 467 0 l 1
 400 0 l 1
EndSplineSet
EndChar

StartChar: v
Encoding: 118 118 86
Width: 533
Flags: HW
LayerCount: 2
Back
Fore
SplineSet
133 333 m 1
 133 400 l 1
 200 400 l 1
 200 333 l 1
 133 333 l 1
400 333 m 1
 400 400 l 1
 467 400 l 1
 467 333 l 1
 400 333 l 1
133 267 m 1
 133 333 l 1
 200 333 l 1
 200 267 l 1
 133 267 l 1
400 267 m 1
 400 333 l 1
 467 333 l 1
 467 267 l 1
 400 267 l 1
200 200 m 1
 200 267 l 1
 267 267 l 1
 267 200 l 1
 200 200 l 1
333 200 m 1
 333 267 l 1
 400 267 l 1
 400 200 l 1
 333 200 l 1
200 133 m 1
 200 200 l 1
 267 200 l 1
 267 133 l 1
 200 133 l 1
333 133 m 1
 333 200 l 1
 400 200 l 1
 400 133 l 1
 333 133 l 1
267 67 m 1
 267 133 l 1
 333 133 l 1
 333 67 l 1
 267 67 l 1
267 0 m 1
 267 67 l 1
 333 67 l 1
 333 0 l 1
 267 0 l 1
EndSplineSet
EndChar

StartChar: w
Encoding: 119 119 87
Width: 533
Flags: HW
LayerCount: 2
Back
Fore
SplineSet
67 333 m 1
 67 400 l 1
 133 400 l 1
 133 333 l 1
 67 333 l 1
467 333 m 1
 467 400 l 1
 533 400 l 1
 533 333 l 1
 467 333 l 1
67 267 m 1
 67 333 l 1
 133 333 l 1
 133 267 l 1
 67 267 l 1
467 267 m 1
 467 333 l 1
 533 333 l 1
 533 267 l 1
 467 267 l 1
67 200 m 1
 67 267 l 1
 133 267 l 1
 133 200 l 1
 67 200 l 1
267 200 m 1
 267 267 l 1
 333 267 l 1
 333 200 l 1
 267 200 l 1
467 200 m 1
 467 267 l 1
 533 267 l 1
 533 200 l 1
 467 200 l 1
67 133 m 1
 67 200 l 1
 133 200 l 1
 133 133 l 1
 67 133 l 1
267 133 m 1
 267 200 l 1
 333 200 l 1
 333 133 l 1
 267 133 l 1
467 133 m 1
 467 200 l 1
 533 200 l 1
 533 133 l 1
 467 133 l 1
67 67 m 1
 67 133 l 1
 133 133 l 1
 133 67 l 1
 67 67 l 1
267 67 m 1
 267 133 l 1
 333 133 l 1
 333 67 l 1
 267 67 l 1
467 67 m 1
 467 133 l 1
 533 133 l 1
 533 67 l 1
 467 67 l 1
133 0 m 1
 133 67 l 1
 267 67 l 1
 267 0 l 1
 133 0 l 1
333 0 m 1
 333 67 l 1
 467 67 l 1
 467 0 l 1
 333 0 l 1
EndSplineSet
EndChar

StartChar: x
Encoding: 120 120 88
Width: 533
Flags: HW
LayerCount: 2
Back
Fore
SplineSet
67 333 m 1
 67 400 l 1
 200 400 l 1
 200 333 l 1
 67 333 l 1
333 333 m 1
 333 400 l 1
 467 400 l 1
 467 333 l 1
 333 333 l 1
133 267 m 1
 133 333 l 1
 200 333 l 1
 200 267 l 1
 133 267 l 1
333 267 m 1
 333 333 l 1
 400 333 l 1
 400 267 l 1
 333 267 l 1
200 200 m 1
 200 267 l 1
 333 267 l 1
 333 200 l 1
 200 200 l 1
200 133 m 1
 200 200 l 1
 333 200 l 1
 333 133 l 1
 200 133 l 1
133 67 m 1
 133 133 l 1
 200 133 l 1
 200 67 l 1
 133 67 l 1
333 67 m 1
 333 133 l 1
 400 133 l 1
 400 67 l 1
 333 67 l 1
67 0 m 1
 67 67 l 1
 200 67 l 1
 200 0 l 1
 67 0 l 1
333 0 m 1
 333 67 l 1
 467 67 l 1
 467 0 l 1
 333 0 l 1
EndSplineSet
EndChar

StartChar: y
Encoding: 121 121 89
Width: 533
Flags: HW
LayerCount: 2
Back
Fore
SplineSet
67 333 m 1
 67 400 l 1
 200 400 l 1
 200 333 l 1
 67 333 l 1
400 333 m 1
 400 400 l 1
 533 400 l 1
 533 333 l 1
 400 333 l 1
133 267 m 1
 133 333 l 1
 200 333 l 1
 200 267 l 1
 133 267 l 1
400 267 m 1
 400 333 l 1
 467 333 l 1
 467 267 l 1
 400 267 l 1
133 200 m 1
 133 267 l 1
 200 267 l 1
 200 200 l 1
 133 200 l 1
400 200 m 1
 400 267 l 1
 467 267 l 1
 467 200 l 1
 400 200 l 1
200 133 m 1
 200 200 l 1
 267 200 l 1
 267 133 l 1
 200 133 l 1
333 133 m 1
 333 200 l 1
 400 200 l 1
 400 133 l 1
 333 133 l 1
267 67 m 1
 267 133 l 1
 400 133 l 1
 400 67 l 1
 267 67 l 1
267 0 m 1
 267 67 l 1
 333 67 l 1
 333 0 l 1
 267 0 l 1
67 -67 m 1
 67 0 l 1
 133 0 l 1
 133 -67 l 1
 67 -67 l 1
267 -67 m 1
 267 0 l 1
 333 0 l 1
 333 -67 l 1
 267 -67 l 1
133 -133 m 1
 133 -67 l 1
 267 -67 l 1
 267 -133 l 1
 133 -133 l 1
EndSplineSet
EndChar

StartChar: z
Encoding: 122 122 90
Width: 533
Flags: HW
LayerCount: 2
Back
Fore
SplineSet
67 333 m 1
 67 400 l 1
 467 400 l 1
 467 333 l 1
 67 333 l 1
333 267 m 1
 333 333 l 1
 400 333 l 1
 400 267 l 1
 333 267 l 1
267 200 m 1
 267 267 l 1
 333 267 l 1
 333 200 l 1
 267 200 l 1
200 133 m 1
 200 200 l 1
 267 200 l 1
 267 133 l 1
 200 133 l 1
133 67 m 1
 133 133 l 1
 200 133 l 1
 200 67 l 1
 133 67 l 1
67 0 m 1
 67 67 l 1
 467 67 l 1
 467 0 l 1
 67 0 l 1
EndSplineSet
EndChar

StartChar: braceleft
Encoding: 123 123 91
Width: 533
Flags: HW
LayerCount: 2
Back
Fore
SplineSet
267 533 m 1
 267 600 l 1
 400 600 l 1
 400 533 l 1
 267 533 l 1
200 467 m 1
 200 533 l 1
 267 533 l 1
 267 467 l 1
 200 467 l 1
200 400 m 1
 200 467 l 1
 267 467 l 1
 267 400 l 1
 200 400 l 1
267 333 m 1
 267 400 l 1
 333 400 l 1
 333 333 l 1
 267 333 l 1
133 267 m 1
 133 333 l 1
 267 333 l 1
 267 267 l 1
 133 267 l 1
267 200 m 1
 267 267 l 1
 333 267 l 1
 333 200 l 1
 267 200 l 1
200 133 m 1
 200 200 l 1
 267 200 l 1
 267 133 l 1
 200 133 l 1
200 67 m 1
 200 133 l 1
 267 133 l 1
 267 67 l 1
 200 67 l 1
200 0 m 1
 200 67 l 1
 267 67 l 1
 267 0 l 1
 200 0 l 1
267 -67 m 1
 267 0 l 1
 400 0 l 1
 400 -67 l 1
 267 -67 l 1
EndSplineSet
EndChar

StartChar: bar
Encoding: 124 124 92
Width: 533
Flags: HW
LayerCount: 2
Back
Fore
SplineSet
200 533 m 1
 200 600 l 1
 267 600 l 1
 267 533 l 1
 200 533 l 1
200 467 m 1
 200 533 l 1
 267 533 l 1
 267 467 l 1
 200 467 l 1
200 400 m 1
 200 467 l 1
 267 467 l 1
 267 400 l 1
 200 400 l 1
200 333 m 1
 200 400 l 1
 267 400 l 1
 267 333 l 1
 200 333 l 1
200 267 m 1
 200 333 l 1
 267 333 l 1
 267 267 l 1
 200 267 l 1
200 200 m 1
 200 267 l 1
 267 267 l 1
 267 200 l 1
 200 200 l 1
200 133 m 1
 200 200 l 1
 267 200 l 1
 267 133 l 1
 200 133 l 1
200 67 m 1
 200 133 l 1
 267 133 l 1
 267 67 l 1
 200 67 l 1
200 0 m 1
 200 67 l 1
 267 67 l 1
 267 0 l 1
 200 0 l 1
200 -67 m 1
 200 0 l 1
 267 0 l 1
 267 -67 l 1
 200 -67 l 1
EndSplineSet
EndChar

StartChar: braceright
Encoding: 125 125 93
Width: 533
Flags: HW
LayerCount: 2
Back
Fore
SplineSet
133 533 m 1
 133 600 l 1
 267 600 l 1
 267 533 l 1
 133 533 l 1
267 467 m 1
 267 533 l 1
 333 533 l 1
 333 467 l 1
 267 467 l 1
267 400 m 1
 267 467 l 1
 333 467 l 1
 333 400 l 1
 267 400 l 1
200 333 m 1
 200 400 l 1
 267 400 l 1
 267 333 l 1
 200 333 l 1
267 267 m 1
 267 333 l 1
 400 333 l 1
 400 267 l 1
 267 267 l 1
200 200 m 1
 200 267 l 1
 267 267 l 1
 267 200 l 1
 200 200 l 1
267 133 m 1
 267 200 l 1
 333 200 l 1
 333 133 l 1
 267 133 l 1
267 67 m 1
 267 133 l 1
 333 133 l 1
 333 67 l 1
 267 67 l 1
267 0 m 1
 267 67 l 1
 333 67 l 1
 333 0 l 1
 267 0 l 1
133 -67 m 1
 133 0 l 1
 267 0 l 1
 267 -67 l 1
 133 -67 l 1
EndSplineSet
EndChar

StartChar: asciitilde
Encoding: 126 126 94
Width: 533
Flags: HW
LayerCount: 2
Back
Fore
SplineSet
133 333 m 1
 133 400 l 1
 267 400 l 1
 267 333 l 1
 133 333 l 1
400 333 m 1
 400 400 l 1
 467 400 l 1
 467 333 l 1
 400 333 l 1
67 267 m 1
 67 333 l 1
 133 333 l 1
 133 267 l 1
 67 267 l 1
267 267 m 1
 267 333 l 1
 400 333 l 1
 400 267 l 1
 267 267 l 1
EndSplineSet
EndChar

StartChar: OE
Encoding: 128 338 95
Width: 533
Flags: HW
LayerCount: 2
Back
Fore
SplineSet
133 467 m 1
 133 533 l 1
 533 533 l 1
 533 467 l 1
 133 467 l 1
67 400 m 1
 67 467 l 1
 133 467 l 1
 133 400 l 1
 67 400 l 1
267 400 m 1
 267 467 l 1
 333 467 l 1
 333 400 l 1
 267 400 l 1
67 333 m 1
 67 400 l 1
 133 400 l 1
 133 333 l 1
 67 333 l 1
267 333 m 1
 267 400 l 1
 333 400 l 1
 333 333 l 1
 267 333 l 1
67 267 m 1
 67 333 l 1
 133 333 l 1
 133 267 l 1
 67 267 l 1
267 267 m 1
 267 333 l 1
 467 333 l 1
 467 267 l 1
 267 267 l 1
67 200 m 1
 67 267 l 1
 133 267 l 1
 133 200 l 1
 67 200 l 1
267 200 m 1
 267 267 l 1
 333 267 l 1
 333 200 l 1
 267 200 l 1
67 133 m 1
 67 200 l 1
 133 200 l 1
 133 133 l 1
 67 133 l 1
267 133 m 1
 267 200 l 1
 333 200 l 1
 333 133 l 1
 267 133 l 1
67 67 m 1
 67 133 l 1
 133 133 l 1
 133 67 l 1
 67 67 l 1
267 67 m 1
 267 133 l 1
 333 133 l 1
 333 67 l 1
 267 67 l 1
133 0 m 1
 133 67 l 1
 533 67 l 1
 533 0 l 1
 133 0 l 1
EndSplineSet
EndChar

StartChar: oe
Encoding: 129 339 96
Width: 533
Flags: HW
LayerCount: 2
Back
Fore
SplineSet
133 333 m 1
 133 400 l 1
 267 400 l 1
 267 333 l 1
 133 333 l 1
333 333 m 1
 333 400 l 1
 467 400 l 1
 467 333 l 1
 333 333 l 1
67 267 m 1
 67 333 l 1
 133 333 l 1
 133 267 l 1
 67 267 l 1
267 267 m 1
 267 333 l 1
 333 333 l 1
 333 267 l 1
 267 267 l 1
467 267 m 1
 467 333 l 1
 533 333 l 1
 533 267 l 1
 467 267 l 1
67 200 m 1
 67 267 l 1
 133 267 l 1
 133 200 l 1
 67 200 l 1
267 200 m 1
 267 267 l 1
 533 267 l 1
 533 200 l 1
 267 200 l 1
67 133 m 1
 67 200 l 1
 133 200 l 1
 133 133 l 1
 67 133 l 1
267 133 m 1
 267 200 l 1
 333 200 l 1
 333 133 l 1
 267 133 l 1
67 67 m 1
 67 133 l 1
 133 133 l 1
 133 67 l 1
 67 67 l 1
267 67 m 1
 267 133 l 1
 333 133 l 1
 333 67 l 1
 267 67 l 1
467 67 m 1
 467 133 l 1
 533 133 l 1
 533 67 l 1
 467 67 l 1
133 0 m 1
 133 67 l 1
 267 67 l 1
 267 0 l 1
 133 0 l 1
333 0 m 1
 333 67 l 1
 467 67 l 1
 467 0 l 1
 333 0 l 1
EndSplineSet
EndChar

StartChar: Ydieresis
Encoding: 130 376 97
Width: 533
Flags: HW
LayerCount: 2
Back
Fore
SplineSet
133 667 m 1
 133 733 l 1
 200 733 l 1
 200 667 l 1
 133 667 l 1
333 667 m 1
 333 733 l 1
 400 733 l 1
 400 667 l 1
 333 667 l 1
133 600 m 1
 133 667 l 1
 200 667 l 1
 200 600 l 1
 133 600 l 1
333 600 m 1
 333 667 l 1
 400 667 l 1
 400 600 l 1
 333 600 l 1
67 467 m 1
 67 533 l 1
 133 533 l 1
 133 467 l 1
 67 467 l 1
467 467 m 1
 467 533 l 1
 533 533 l 1
 533 467 l 1
 467 467 l 1
67 400 m 1
 67 467 l 1
 133 467 l 1
 133 400 l 1
 67 400 l 1
467 400 m 1
 467 467 l 1
 533 467 l 1
 533 400 l 1
 467 400 l 1
133 333 m 1
 133 400 l 1
 200 400 l 1
 200 333 l 1
 133 333 l 1
400 333 m 1
 400 400 l 1
 467 400 l 1
 467 333 l 1
 400 333 l 1
200 267 m 1
 200 333 l 1
 267 333 l 1
 267 267 l 1
 200 267 l 1
333 267 m 1
 333 333 l 1
 400 333 l 1
 400 267 l 1
 333 267 l 1
267 200 m 1
 267 267 l 1
 333 267 l 1
 333 200 l 1
 267 200 l 1
267 133 m 1
 267 200 l 1
 333 200 l 1
 333 133 l 1
 267 133 l 1
267 67 m 1
 267 133 l 1
 333 133 l 1
 333 67 l 1
 267 67 l 1
267 0 m 1
 267 67 l 1
 333 67 l 1
 333 0 l 1
 267 0 l 1
EndSplineSet
EndChar

StartChar: Error
Encoding: 159 159 98
Width: 533
Flags: HW
LayerCount: 2
Back
Fore
SplineSet
133 667 m 1
 133 733 l 1
 400 733 l 1
 400 667 l 1
 133 667 l 1
67 600 m 1
 67 667 l 1
 200 667 l 1
 200 600 l 1
 67 600 l 1
333 600 m 1
 333 667 l 1
 467 667 l 1
 467 600 l 1
 333 600 l 1
67 533 m 1
 67 600 l 1
 133 600 l 1
 133 533 l 1
 67 533 l 1
400 533 m 1
 400 600 l 1
 467 600 l 1
 467 533 l 1
 400 533 l 1
67 467 m 1
 67 533 l 1
 133 533 l 1
 133 467 l 1
 67 467 l 1
67 400 m 1
 67 467 l 1
 200 467 l 1
 200 400 l 1
 67 400 l 1
133 333 m 1
 133 400 l 1
 267 400 l 1
 267 333 l 1
 133 333 l 1
200 267 m 1
 200 333 l 1
 333 333 l 1
 333 267 l 1
 200 267 l 1
267 200 m 1
 267 267 l 1
 333 267 l 1
 333 200 l 1
 267 200 l 1
267 133 m 1
 267 200 l 1
 333 200 l 1
 333 133 l 1
 267 133 l 1
267 -67 m 1
 267 0 l 1
 333 0 l 1
 333 -67 l 1
 267 -67 l 1
267 -133 m 1
 267 -67 l 1
 333 -67 l 1
 333 -133 l 1
 267 -133 l 1
EndSplineSet
EndChar

StartChar: exclamdown
Encoding: 161 161 100
Width: 533
Flags: HW
LayerCount: 2
Back
Fore
SplineSet
267 467 m 1
 267 533 l 1
 333 533 l 1
 333 467 l 1
 267 467 l 1
267 400 m 1
 267 467 l 1
 333 467 l 1
 333 400 l 1
 267 400 l 1
267 267 m 1
 267 333 l 1
 333 333 l 1
 333 267 l 1
 267 267 l 1
267 200 m 1
 267 267 l 1
 333 267 l 1
 333 200 l 1
 267 200 l 1
267 133 m 1
 267 200 l 1
 333 200 l 1
 333 133 l 1
 267 133 l 1
267 67 m 1
 267 133 l 1
 333 133 l 1
 333 67 l 1
 267 67 l 1
267 0 m 1
 267 67 l 1
 333 67 l 1
 333 0 l 1
 267 0 l 1
267 -67 m 1
 267 0 l 1
 333 0 l 1
 333 -67 l 1
 267 -67 l 1
EndSplineSet
EndChar

StartChar: cent
Encoding: 162 162 101
Width: 533
Flags: HW
LayerCount: 2
Back
Fore
SplineSet
267 533 m 1
 267 600 l 1
 333 600 l 1
 333 533 l 1
 267 533 l 1
267 467 m 1
 267 533 l 1
 333 533 l 1
 333 467 l 1
 267 467 l 1
200 400 m 1
 200 467 l 1
 400 467 l 1
 400 400 l 1
 200 400 l 1
133 333 m 1
 133 400 l 1
 200 400 l 1
 200 333 l 1
 133 333 l 1
267 333 m 1
 267 400 l 1
 333 400 l 1
 333 333 l 1
 267 333 l 1
400 333 m 1
 400 400 l 1
 467 400 l 1
 467 333 l 1
 400 333 l 1
133 267 m 1
 133 333 l 1
 200 333 l 1
 200 267 l 1
 133 267 l 1
267 267 m 1
 267 333 l 1
 333 333 l 1
 333 267 l 1
 267 267 l 1
133 200 m 1
 133 267 l 1
 200 267 l 1
 200 200 l 1
 133 200 l 1
267 200 m 1
 267 267 l 1
 333 267 l 1
 333 200 l 1
 267 200 l 1
400 200 m 1
 400 267 l 1
 467 267 l 1
 467 200 l 1
 400 200 l 1
200 133 m 1
 200 200 l 1
 400 200 l 1
 400 133 l 1
 200 133 l 1
267 67 m 1
 267 133 l 1
 333 133 l 1
 333 67 l 1
 267 67 l 1
267 0 m 1
 267 67 l 1
 333 67 l 1
 333 0 l 1
 267 0 l 1
EndSplineSet
EndChar

StartChar: sterling
Encoding: 163 163 102
Width: 533
Flags: HW
LayerCount: 2
Back
Fore
SplineSet
267 467 m 1
 267 533 l 1
 400 533 l 1
 400 467 l 1
 267 467 l 1
200 400 m 1
 200 467 l 1
 267 467 l 1
 267 400 l 1
 200 400 l 1
400 400 m 1
 400 467 l 1
 467 467 l 1
 467 400 l 1
 400 400 l 1
200 333 m 1
 200 400 l 1
 267 400 l 1
 267 333 l 1
 200 333 l 1
400 333 m 1
 400 400 l 1
 467 400 l 1
 467 333 l 1
 400 333 l 1
200 267 m 1
 200 333 l 1
 267 333 l 1
 267 267 l 1
 200 267 l 1
133 200 m 1
 133 267 l 1
 400 267 l 1
 400 200 l 1
 133 200 l 1
200 133 m 1
 200 200 l 1
 267 200 l 1
 267 133 l 1
 200 133 l 1
133 67 m 1
 133 133 l 1
 267 133 l 1
 267 67 l 1
 133 67 l 1
467 67 m 1
 467 133 l 1
 533 133 l 1
 533 67 l 1
 467 67 l 1
67 0 m 1
 67 67 l 1
 200 67 l 1
 200 0 l 1
 67 0 l 1
267 0 m 1
 267 67 l 1
 467 67 l 1
 467 0 l 1
 267 0 l 1
EndSplineSet
EndChar

StartChar: currency
Encoding: 164 164 103
Width: 533
Flags: HW
LayerCount: 2
Back
Fore
SplineSet
133 467 m 1
 133 533 l 1
 200 533 l 1
 200 467 l 1
 133 467 l 1
400 467 m 1
 400 533 l 1
 467 533 l 1
 467 467 l 1
 400 467 l 1
200 400 m 1
 200 467 l 1
 400 467 l 1
 400 400 l 1
 200 400 l 1
133 333 m 1
 133 400 l 1
 200 400 l 1
 200 333 l 1
 133 333 l 1
400 333 m 1
 400 400 l 1
 467 400 l 1
 467 333 l 1
 400 333 l 1
133 267 m 1
 133 333 l 1
 200 333 l 1
 200 267 l 1
 133 267 l 1
400 267 m 1
 400 333 l 1
 467 333 l 1
 467 267 l 1
 400 267 l 1
133 200 m 1
 133 267 l 1
 200 267 l 1
 200 200 l 1
 133 200 l 1
400 200 m 1
 400 267 l 1
 467 267 l 1
 467 200 l 1
 400 200 l 1
200 133 m 1
 200 200 l 1
 400 200 l 1
 400 133 l 1
 200 133 l 1
133 67 m 1
 133 133 l 1
 200 133 l 1
 200 67 l 1
 133 67 l 1
400 67 m 1
 400 133 l 1
 467 133 l 1
 467 67 l 1
 400 67 l 1
EndSplineSet
EndChar

StartChar: yen
Encoding: 165 165 104
Width: 533
Flags: HW
LayerCount: 2
Back
Fore
SplineSet
133 467 m 1
 133 533 l 1
 200 533 l 1
 200 467 l 1
 133 467 l 1
400 467 m 1
 400 533 l 1
 467 533 l 1
 467 467 l 1
 400 467 l 1
133 400 m 1
 133 467 l 1
 200 467 l 1
 200 400 l 1
 133 400 l 1
400 400 m 1
 400 467 l 1
 467 467 l 1
 467 400 l 1
 400 400 l 1
200 333 m 1
 200 400 l 1
 267 400 l 1
 267 333 l 1
 200 333 l 1
333 333 m 1
 333 400 l 1
 400 400 l 1
 400 333 l 1
 333 333 l 1
133 267 m 1
 133 333 l 1
 467 333 l 1
 467 267 l 1
 133 267 l 1
267 200 m 1
 267 267 l 1
 333 267 l 1
 333 200 l 1
 267 200 l 1
133 133 m 1
 133 200 l 1
 467 200 l 1
 467 133 l 1
 133 133 l 1
267 67 m 1
 267 133 l 1
 333 133 l 1
 333 67 l 1
 267 67 l 1
267 0 m 1
 267 67 l 1
 333 67 l 1
 333 0 l 1
 267 0 l 1
EndSplineSet
EndChar

StartChar: brokenbar
Encoding: 166 166 105
Width: 533
Flags: HW
LayerCount: 2
Back
Fore
SplineSet
200 533 m 1
 200 600 l 1
 267 600 l 1
 267 533 l 1
 200 533 l 1
200 467 m 1
 200 533 l 1
 267 533 l 1
 267 467 l 1
 200 467 l 1
200 400 m 1
 200 467 l 1
 267 467 l 1
 267 400 l 1
 200 400 l 1
200 333 m 1
 200 400 l 1
 267 400 l 1
 267 333 l 1
 200 333 l 1
200 133 m 1
 200 200 l 1
 267 200 l 1
 267 133 l 1
 200 133 l 1
200 67 m 1
 200 133 l 1
 267 133 l 1
 267 67 l 1
 200 67 l 1
200 0 m 1
 200 67 l 1
 267 67 l 1
 267 0 l 1
 200 0 l 1
200 -67 m 1
 200 0 l 1
 267 0 l 1
 267 -67 l 1
 200 -67 l 1
EndSplineSet
EndChar

StartChar: section
Encoding: 167 167 106
Width: 533
Flags: HW
LayerCount: 2
Back
Fore
SplineSet
200 533 m 1
 200 600 l 1
 400 600 l 1
 400 533 l 1
 200 533 l 1
133 467 m 1
 133 533 l 1
 200 533 l 1
 200 467 l 1
 133 467 l 1
400 467 m 1
 400 533 l 1
 467 533 l 1
 467 467 l 1
 400 467 l 1
133 400 m 1
 133 467 l 1
 200 467 l 1
 200 400 l 1
 133 400 l 1
200 333 m 1
 200 400 l 1
 400 400 l 1
 400 333 l 1
 200 333 l 1
133 267 m 1
 133 333 l 1
 200 333 l 1
 200 267 l 1
 133 267 l 1
400 267 m 1
 400 333 l 1
 467 333 l 1
 467 267 l 1
 400 267 l 1
133 200 m 1
 133 267 l 1
 200 267 l 1
 200 200 l 1
 133 200 l 1
400 200 m 1
 400 267 l 1
 467 267 l 1
 467 200 l 1
 400 200 l 1
200 133 m 1
 200 200 l 1
 400 200 l 1
 400 133 l 1
 200 133 l 1
400 67 m 1
 400 133 l 1
 467 133 l 1
 467 67 l 1
 400 67 l 1
133 0 m 1
 133 67 l 1
 200 67 l 1
 200 0 l 1
 133 0 l 1
400 0 m 1
 400 67 l 1
 467 67 l 1
 467 0 l 1
 400 0 l 1
200 -67 m 1
 200 0 l 1
 400 0 l 1
 400 -67 l 1
 200 -67 l 1
EndSplineSet
EndChar

StartChar: dieresis
Encoding: 168 168 107
Width: 533
Flags: HW
LayerCount: 2
Back
Fore
SplineSet
133 533 m 1
 133 600 l 1
 200 600 l 1
 200 533 l 1
 133 533 l 1
333 533 m 1
 333 600 l 1
 400 600 l 1
 400 533 l 1
 333 533 l 1
133 467 m 1
 133 533 l 1
 200 533 l 1
 200 467 l 1
 133 467 l 1
333 467 m 1
 333 533 l 1
 400 533 l 1
 400 467 l 1
 333 467 l 1
EndSplineSet
EndChar

StartChar: copyright
Encoding: 169 169 108
Width: 533
Flags: HW
LayerCount: 2
Back
Fore
SplineSet
133 467 m 1
 133 533 l 1
 467 533 l 1
 467 467 l 1
 133 467 l 1
67 400 m 1
 67 467 l 1
 133 467 l 1
 133 400 l 1
 67 400 l 1
467 400 m 1
 467 467 l 1
 533 467 l 1
 533 400 l 1
 467 400 l 1
67 333 m 1
 67 400 l 1
 133 400 l 1
 133 333 l 1
 67 333 l 1
267 333 m 1
 267 400 l 1
 400 400 l 1
 400 333 l 1
 267 333 l 1
467 333 m 1
 467 400 l 1
 533 400 l 1
 533 333 l 1
 467 333 l 1
67 267 m 1
 67 333 l 1
 133 333 l 1
 133 267 l 1
 67 267 l 1
200 267 m 1
 200 333 l 1
 267 333 l 1
 267 267 l 1
 200 267 l 1
467 267 m 1
 467 333 l 1
 533 333 l 1
 533 267 l 1
 467 267 l 1
67 200 m 1
 67 267 l 1
 133 267 l 1
 133 200 l 1
 67 200 l 1
200 200 m 1
 200 267 l 1
 267 267 l 1
 267 200 l 1
 200 200 l 1
467 200 m 1
 467 267 l 1
 533 267 l 1
 533 200 l 1
 467 200 l 1
67 133 m 1
 67 200 l 1
 133 200 l 1
 133 133 l 1
 67 133 l 1
267 133 m 1
 267 200 l 1
 400 200 l 1
 400 133 l 1
 267 133 l 1
467 133 m 1
 467 200 l 1
 533 200 l 1
 533 133 l 1
 467 133 l 1
67 67 m 1
 67 133 l 1
 133 133 l 1
 133 67 l 1
 67 67 l 1
467 67 m 1
 467 133 l 1
 533 133 l 1
 533 67 l 1
 467 67 l 1
133 0 m 1
 133 67 l 1
 467 67 l 1
 467 0 l 1
 133 0 l 1
EndSplineSet
EndChar

StartChar: ordfeminine
Encoding: 170 170 109
Width: 533
Flags: HW
LayerCount: 2
Back
Fore
SplineSet
133 467 m 1
 133 533 l 1
 267 533 l 1
 267 467 l 1
 133 467 l 1
267 400 m 1
 267 467 l 1
 333 467 l 1
 333 400 l 1
 267 400 l 1
133 333 m 1
 133 400 l 1
 333 400 l 1
 333 333 l 1
 133 333 l 1
67 267 m 1
 67 333 l 1
 133 333 l 1
 133 267 l 1
 67 267 l 1
267 267 m 1
 267 333 l 1
 333 333 l 1
 333 267 l 1
 267 267 l 1
133 200 m 1
 133 267 l 1
 333 267 l 1
 333 200 l 1
 133 200 l 1
67 67 m 1
 67 133 l 1
 333 133 l 1
 333 67 l 1
 67 67 l 1
EndSplineSet
EndChar

StartChar: guillemotleft
Encoding: 171 171 110
Width: 533
Flags: HW
LayerCount: 2
Back
Fore
SplineSet
200 333 m 1
 200 400 l 1
 267 400 l 1
 267 333 l 1
 200 333 l 1
400 333 m 1
 400 400 l 1
 467 400 l 1
 467 333 l 1
 400 333 l 1
133 267 m 1
 133 333 l 1
 200 333 l 1
 200 267 l 1
 133 267 l 1
333 267 m 1
 333 333 l 1
 400 333 l 1
 400 267 l 1
 333 267 l 1
67 200 m 1
 67 267 l 1
 133 267 l 1
 133 200 l 1
 67 200 l 1
267 200 m 1
 267 267 l 1
 333 267 l 1
 333 200 l 1
 267 200 l 1
133 133 m 1
 133 200 l 1
 200 200 l 1
 200 133 l 1
 133 133 l 1
333 133 m 1
 333 200 l 1
 400 200 l 1
 400 133 l 1
 333 133 l 1
200 67 m 1
 200 133 l 1
 267 133 l 1
 267 67 l 1
 200 67 l 1
400 67 m 1
 400 133 l 1
 467 133 l 1
 467 67 l 1
 400 67 l 1
EndSplineSet
EndChar

StartChar: logicalnot
Encoding: 172 172 111
Width: 533
Flags: HW
LayerCount: 2
Back
Fore
SplineSet
67 267 m 1
 67 333 l 1
 467 333 l 1
 467 267 l 1
 67 267 l 1
400 200 m 1
 400 267 l 1
 467 267 l 1
 467 200 l 1
 400 200 l 1
EndSplineSet
EndChar

StartChar: hyphen
Encoding: 173 45 112
Width: 533
Flags: HW
LayerCount: 2
Back
Fore
SplineSet
133 200 m 1
 133 267 l 1
 400 267 l 1
 400 200 l 1
 133 200 l 1
EndSplineSet
EndChar

StartChar: registered
Encoding: 174 174 113
Width: 533
Flags: HW
LayerCount: 2
Back
Fore
SplineSet
133 467 m 1
 133 533 l 1
 467 533 l 1
 467 467 l 1
 133 467 l 1
67 400 m 1
 67 467 l 1
 133 467 l 1
 133 400 l 1
 67 400 l 1
467 400 m 1
 467 467 l 1
 533 467 l 1
 533 400 l 1
 467 400 l 1
67 333 m 1
 67 400 l 1
 133 400 l 1
 133 333 l 1
 67 333 l 1
200 333 m 1
 200 400 l 1
 333 400 l 1
 333 333 l 1
 200 333 l 1
467 333 m 1
 467 400 l 1
 533 400 l 1
 533 333 l 1
 467 333 l 1
67 267 m 1
 67 333 l 1
 133 333 l 1
 133 267 l 1
 67 267 l 1
200 267 m 1
 200 333 l 1
 267 333 l 1
 267 267 l 1
 200 267 l 1
333 267 m 1
 333 333 l 1
 400 333 l 1
 400 267 l 1
 333 267 l 1
467 267 m 1
 467 333 l 1
 533 333 l 1
 533 267 l 1
 467 267 l 1
67 200 m 1
 67 267 l 1
 133 267 l 1
 133 200 l 1
 67 200 l 1
200 200 m 1
 200 267 l 1
 333 267 l 1
 333 200 l 1
 200 200 l 1
467 200 m 1
 467 267 l 1
 533 267 l 1
 533 200 l 1
 467 200 l 1
67 133 m 1
 67 200 l 1
 133 200 l 1
 133 133 l 1
 67 133 l 1
200 133 m 1
 200 200 l 1
 267 200 l 1
 267 133 l 1
 200 133 l 1
333 133 m 1
 333 200 l 1
 400 200 l 1
 400 133 l 1
 333 133 l 1
467 133 m 1
 467 200 l 1
 533 200 l 1
 533 133 l 1
 467 133 l 1
67 67 m 1
 67 133 l 1
 133 133 l 1
 133 67 l 1
 67 67 l 1
467 67 m 1
 467 133 l 1
 533 133 l 1
 533 67 l 1
 467 67 l 1
133 0 m 1
 133 67 l 1
 467 67 l 1
 467 0 l 1
 133 0 l 1
EndSplineSet
EndChar

StartChar: macron
Encoding: 175 175 114
Width: 533
Flags: HW
LayerCount: 2
Back
Fore
SplineSet
67 533 m 1
 67 600 l 1
 467 600 l 1
 467 533 l 1
 67 533 l 1
EndSplineSet
EndChar

StartChar: degree
Encoding: 176 176 115
Width: 533
Flags: HW
LayerCount: 2
Back
Fore
SplineSet
200 533 m 1
 200 600 l 1
 267 600 l 1
 267 533 l 1
 200 533 l 1
133 467 m 1
 133 533 l 1
 200 533 l 1
 200 467 l 1
 133 467 l 1
267 467 m 1
 267 533 l 1
 333 533 l 1
 333 467 l 1
 267 467 l 1
200 400 m 1
 200 467 l 1
 267 467 l 1
 267 400 l 1
 200 400 l 1
EndSplineSet
EndChar

StartChar: plusminus
Encoding: 177 177 116
Width: 533
Flags: HW
LayerCount: 2
Back
Fore
SplineSet
267 400 m 1
 267 467 l 1
 333 467 l 1
 333 400 l 1
 267 400 l 1
267 333 m 1
 267 400 l 1
 333 400 l 1
 333 333 l 1
 267 333 l 1
133 267 m 1
 133 333 l 1
 467 333 l 1
 467 267 l 1
 133 267 l 1
267 200 m 1
 267 267 l 1
 333 267 l 1
 333 200 l 1
 267 200 l 1
267 133 m 1
 267 200 l 1
 333 200 l 1
 333 133 l 1
 267 133 l 1
133 0 m 1
 133 67 l 1
 467 67 l 1
 467 0 l 1
 133 0 l 1
EndSplineSet
EndChar

StartChar: twosuperior
Encoding: 178 178 117
Width: 533
Flags: HW
LayerCount: 2
Back
Fore
SplineSet
200 467 m 1
 200 533 l 1
 333 533 l 1
 333 467 l 1
 200 467 l 1
133 400 m 1
 133 467 l 1
 200 467 l 1
 200 400 l 1
 133 400 l 1
333 400 m 1
 333 467 l 1
 400 467 l 1
 400 400 l 1
 333 400 l 1
267 333 m 1
 267 400 l 1
 333 400 l 1
 333 333 l 1
 267 333 l 1
200 267 m 1
 200 333 l 1
 267 333 l 1
 267 267 l 1
 200 267 l 1
133 200 m 1
 133 267 l 1
 200 267 l 1
 200 200 l 1
 133 200 l 1
133 133 m 1
 133 200 l 1
 400 200 l 1
 400 133 l 1
 133 133 l 1
EndSplineSet
EndChar

StartChar: threesuperior
Encoding: 179 179 118
Width: 533
Flags: HW
LayerCount: 2
Back
Fore
SplineSet
200 467 m 1
 200 533 l 1
 333 533 l 1
 333 467 l 1
 200 467 l 1
133 400 m 1
 133 467 l 1
 200 467 l 1
 200 400 l 1
 133 400 l 1
333 400 m 1
 333 467 l 1
 400 467 l 1
 400 400 l 1
 333 400 l 1
267 333 m 1
 267 400 l 1
 333 400 l 1
 333 333 l 1
 267 333 l 1
333 267 m 1
 333 333 l 1
 400 333 l 1
 400 267 l 1
 333 267 l 1
133 200 m 1
 133 267 l 1
 200 267 l 1
 200 200 l 1
 133 200 l 1
333 200 m 1
 333 267 l 1
 400 267 l 1
 400 200 l 1
 333 200 l 1
200 133 m 1
 200 200 l 1
 333 200 l 1
 333 133 l 1
 200 133 l 1
EndSplineSet
EndChar

StartChar: acute
Encoding: 180 180 119
Width: 533
Flags: HW
LayerCount: 2
Back
Fore
SplineSet
333 533 m 1
 333 600 l 1
 400 600 l 1
 400 533 l 1
 333 533 l 1
267 467 m 1
 267 533 l 1
 333 533 l 1
 333 467 l 1
 267 467 l 1
200 400 m 1
 200 467 l 1
 267 467 l 1
 267 400 l 1
 200 400 l 1
EndSplineSet
EndChar

StartChar: mu
Encoding: 181 181 120
Width: 533
Flags: HW
LayerCount: 2
Back
Fore
SplineSet
200 333 m 1
 200 400 l 1
 267 400 l 1
 267 333 l 1
 200 333 l 1
400 333 m 1
 400 400 l 1
 467 400 l 1
 467 333 l 1
 400 333 l 1
133 267 m 1
 133 333 l 1
 200 333 l 1
 200 267 l 1
 133 267 l 1
333 267 m 1
 333 333 l 1
 400 333 l 1
 400 267 l 1
 333 267 l 1
133 200 m 1
 133 267 l 1
 200 267 l 1
 200 200 l 1
 133 200 l 1
333 200 m 1
 333 267 l 1
 400 267 l 1
 400 200 l 1
 333 200 l 1
67 133 m 1
 67 200 l 1
 133 200 l 1
 133 133 l 1
 67 133 l 1
267 133 m 1
 267 200 l 1
 333 200 l 1
 333 133 l 1
 267 133 l 1
67 67 m 1
 67 133 l 1
 133 133 l 1
 133 67 l 1
 67 67 l 1
267 67 m 1
 267 133 l 1
 333 133 l 1
 333 67 l 1
 267 67 l 1
0 0 m 1
 0 67 l 1
 67 67 l 1
 67 0 l 1
 0 0 l 1
133 0 m 1
 133 67 l 1
 267 67 l 1
 267 0 l 1
 133 0 l 1
333 0 m 1
 333 67 l 1
 467 67 l 1
 467 0 l 1
 333 0 l 1
EndSplineSet
EndChar

StartChar: paragraph
Encoding: 182 182 121
Width: 533
Flags: HW
LayerCount: 2
Back
Fore
SplineSet
133 467 m 1
 133 533 l 1
 467 533 l 1
 467 467 l 1
 133 467 l 1
67 400 m 1
 67 467 l 1
 267 467 l 1
 267 400 l 1
 67 400 l 1
333 400 m 1
 333 467 l 1
 400 467 l 1
 400 400 l 1
 333 400 l 1
67 333 m 1
 67 400 l 1
 267 400 l 1
 267 333 l 1
 67 333 l 1
333 333 m 1
 333 400 l 1
 400 400 l 1
 400 333 l 1
 333 333 l 1
67 267 m 1
 67 333 l 1
 267 333 l 1
 267 267 l 1
 67 267 l 1
333 267 m 1
 333 333 l 1
 400 333 l 1
 400 267 l 1
 333 267 l 1
133 200 m 1
 133 267 l 1
 267 267 l 1
 267 200 l 1
 133 200 l 1
333 200 m 1
 333 267 l 1
 400 267 l 1
 400 200 l 1
 333 200 l 1
200 133 m 1
 200 200 l 1
 267 200 l 1
 267 133 l 1
 200 133 l 1
333 133 m 1
 333 200 l 1
 400 200 l 1
 400 133 l 1
 333 133 l 1
200 67 m 1
 200 133 l 1
 267 133 l 1
 267 67 l 1
 200 67 l 1
333 67 m 1
 333 133 l 1
 400 133 l 1
 400 67 l 1
 333 67 l 1
200 0 m 1
 200 67 l 1
 267 67 l 1
 267 0 l 1
 200 0 l 1
333 0 m 1
 333 67 l 1
 400 67 l 1
 400 0 l 1
 333 0 l 1
200 -67 m 1
 200 0 l 1
 267 0 l 1
 267 -67 l 1
 200 -67 l 1
333 -67 m 1
 333 0 l 1
 400 0 l 1
 400 -67 l 1
 333 -67 l 1
EndSplineSet
EndChar

StartChar: periodcentered
Encoding: 183 183 122
Width: 533
Flags: HW
LayerCount: 2
Back
Fore
SplineSet
200 333 m 1
 200 400 l 1
 267 400 l 1
 267 333 l 1
 200 333 l 1
200 267 m 1
 200 333 l 1
 267 333 l 1
 267 267 l 1
 200 267 l 1
EndSplineSet
EndChar

StartChar: cedilla
Encoding: 184 184 123
Width: 533
Flags: HW
LayerCount: 2
Back
Fore
SplineSet
267 0 m 1
 267 67 l 1
 333 67 l 1
 333 0 l 1
 267 0 l 1
267 -67 m 1
 267 0 l 1
 333 0 l 1
 333 -67 l 1
 267 -67 l 1
200 -133 m 1
 200 -67 l 1
 333 -67 l 1
 333 -133 l 1
 200 -133 l 1
EndSplineSet
EndChar

StartChar: onesuperior
Encoding: 185 185 124
Width: 533
Flags: HW
LayerCount: 2
Back
Fore
SplineSet
200 467 m 1
 200 533 l 1
 267 533 l 1
 267 467 l 1
 200 467 l 1
133 400 m 1
 133 467 l 1
 267 467 l 1
 267 400 l 1
 133 400 l 1
200 333 m 1
 200 400 l 1
 267 400 l 1
 267 333 l 1
 200 333 l 1
200 267 m 1
 200 333 l 1
 267 333 l 1
 267 267 l 1
 200 267 l 1
200 200 m 1
 200 267 l 1
 267 267 l 1
 267 200 l 1
 200 200 l 1
133 133 m 1
 133 200 l 1
 333 200 l 1
 333 133 l 1
 133 133 l 1
EndSplineSet
EndChar

StartChar: ordmasculine
Encoding: 186 186 125
Width: 533
Flags: HW
LayerCount: 2
Back
Fore
SplineSet
133 467 m 1
 133 533 l 1
 267 533 l 1
 267 467 l 1
 133 467 l 1
67 400 m 1
 67 467 l 1
 133 467 l 1
 133 400 l 1
 67 400 l 1
267 400 m 1
 267 467 l 1
 333 467 l 1
 333 400 l 1
 267 400 l 1
67 333 m 1
 67 400 l 1
 133 400 l 1
 133 333 l 1
 67 333 l 1
267 333 m 1
 267 400 l 1
 333 400 l 1
 333 333 l 1
 267 333 l 1
67 267 m 1
 67 333 l 1
 133 333 l 1
 133 267 l 1
 67 267 l 1
267 267 m 1
 267 333 l 1
 333 333 l 1
 333 267 l 1
 267 267 l 1
133 200 m 1
 133 267 l 1
 267 267 l 1
 267 200 l 1
 133 200 l 1
67 67 m 1
 67 133 l 1
 333 133 l 1
 333 67 l 1
 67 67 l 1
EndSplineSet
EndChar

StartChar: guillemotright
Encoding: 187 187 126
Width: 533
Flags: HW
LayerCount: 2
Back
Fore
SplineSet
67 333 m 1
 67 400 l 1
 133 400 l 1
 133 333 l 1
 67 333 l 1
267 333 m 1
 267 400 l 1
 333 400 l 1
 333 333 l 1
 267 333 l 1
133 267 m 1
 133 333 l 1
 200 333 l 1
 200 267 l 1
 133 267 l 1
333 267 m 1
 333 333 l 1
 400 333 l 1
 400 267 l 1
 333 267 l 1
200 200 m 1
 200 267 l 1
 267 267 l 1
 267 200 l 1
 200 200 l 1
400 200 m 1
 400 267 l 1
 467 267 l 1
 467 200 l 1
 400 200 l 1
133 133 m 1
 133 200 l 1
 200 200 l 1
 200 133 l 1
 133 133 l 1
333 133 m 1
 333 200 l 1
 400 200 l 1
 400 133 l 1
 333 133 l 1
67 67 m 1
 67 133 l 1
 133 133 l 1
 133 67 l 1
 67 67 l 1
267 67 m 1
 267 133 l 1
 333 133 l 1
 333 67 l 1
 267 67 l 1
EndSplineSet
EndChar

StartChar: onequarter
Encoding: 188 188 127
Width: 533
Flags: HW
LayerCount: 2
Back
Fore
SplineSet
133 533 m 1
 133 600 l 1
 200 600 l 1
 200 533 l 1
 133 533 l 1
67 467 m 1
 67 533 l 1
 200 533 l 1
 200 467 l 1
 67 467 l 1
133 400 m 1
 133 467 l 1
 200 467 l 1
 200 400 l 1
 133 400 l 1
400 400 m 1
 400 467 l 1
 467 467 l 1
 467 400 l 1
 400 400 l 1
133 333 m 1
 133 400 l 1
 200 400 l 1
 200 333 l 1
 133 333 l 1
333 333 m 1
 333 400 l 1
 400 400 l 1
 400 333 l 1
 333 333 l 1
67 267 m 1
 67 333 l 1
 333 333 l 1
 333 267 l 1
 67 267 l 1
200 200 m 1
 200 267 l 1
 267 267 l 1
 267 200 l 1
 200 200 l 1
400 200 m 1
 400 267 l 1
 467 267 l 1
 467 200 l 1
 400 200 l 1
133 133 m 1
 133 200 l 1
 200 200 l 1
 200 133 l 1
 133 133 l 1
333 133 m 1
 333 200 l 1
 467 200 l 1
 467 133 l 1
 333 133 l 1
67 67 m 1
 67 133 l 1
 133 133 l 1
 133 67 l 1
 67 67 l 1
267 67 m 1
 267 133 l 1
 333 133 l 1
 333 67 l 1
 267 67 l 1
400 67 m 1
 400 133 l 1
 467 133 l 1
 467 67 l 1
 400 67 l 1
200 0 m 1
 200 67 l 1
 533 67 l 1
 533 0 l 1
 200 0 l 1
400 -67 m 1
 400 0 l 1
 467 0 l 1
 467 -67 l 1
 400 -67 l 1
EndSplineSet
EndChar

StartChar: onehalf
Encoding: 189 189 128
Width: 533
Flags: HW
LayerCount: 2
Back
Fore
SplineSet
133 533 m 1
 133 600 l 1
 200 600 l 1
 200 533 l 1
 133 533 l 1
67 467 m 1
 67 533 l 1
 200 533 l 1
 200 467 l 1
 67 467 l 1
133 400 m 1
 133 467 l 1
 200 467 l 1
 200 400 l 1
 133 400 l 1
400 400 m 1
 400 467 l 1
 467 467 l 1
 467 400 l 1
 400 400 l 1
133 333 m 1
 133 400 l 1
 200 400 l 1
 200 333 l 1
 133 333 l 1
333 333 m 1
 333 400 l 1
 400 400 l 1
 400 333 l 1
 333 333 l 1
67 267 m 1
 67 333 l 1
 333 333 l 1
 333 267 l 1
 67 267 l 1
200 200 m 1
 200 267 l 1
 267 267 l 1
 267 200 l 1
 200 200 l 1
333 200 m 1
 333 267 l 1
 467 267 l 1
 467 200 l 1
 333 200 l 1
133 133 m 1
 133 200 l 1
 200 200 l 1
 200 133 l 1
 133 133 l 1
267 133 m 1
 267 200 l 1
 333 200 l 1
 333 133 l 1
 267 133 l 1
467 133 m 1
 467 200 l 1
 533 200 l 1
 533 133 l 1
 467 133 l 1
67 67 m 1
 67 133 l 1
 133 133 l 1
 133 67 l 1
 67 67 l 1
400 67 m 1
 400 133 l 1
 467 133 l 1
 467 67 l 1
 400 67 l 1
333 0 m 1
 333 67 l 1
 400 67 l 1
 400 0 l 1
 333 0 l 1
267 -67 m 1
 267 0 l 1
 533 0 l 1
 533 -67 l 1
 267 -67 l 1
EndSplineSet
EndChar

StartChar: threequarters
Encoding: 190 190 129
Width: 533
Flags: HW
LayerCount: 2
Back
Fore
SplineSet
133 533 m 1
 133 600 l 1
 267 600 l 1
 267 533 l 1
 133 533 l 1
67 467 m 1
 67 533 l 1
 133 533 l 1
 133 467 l 1
 67 467 l 1
267 467 m 1
 267 533 l 1
 333 533 l 1
 333 467 l 1
 267 467 l 1
200 400 m 1
 200 467 l 1
 267 467 l 1
 267 400 l 1
 200 400 l 1
67 333 m 1
 67 400 l 1
 133 400 l 1
 133 333 l 1
 67 333 l 1
267 333 m 1
 267 400 l 1
 333 400 l 1
 333 333 l 1
 267 333 l 1
400 333 m 1
 400 400 l 1
 467 400 l 1
 467 333 l 1
 400 333 l 1
133 267 m 1
 133 333 l 1
 267 333 l 1
 267 267 l 1
 133 267 l 1
333 267 m 1
 333 333 l 1
 400 333 l 1
 400 267 l 1
 333 267 l 1
267 200 m 1
 267 267 l 1
 333 267 l 1
 333 200 l 1
 267 200 l 1
400 200 m 1
 400 267 l 1
 467 267 l 1
 467 200 l 1
 400 200 l 1
200 133 m 1
 200 200 l 1
 267 200 l 1
 267 133 l 1
 200 133 l 1
333 133 m 1
 333 200 l 1
 467 200 l 1
 467 133 l 1
 333 133 l 1
133 67 m 1
 133 133 l 1
 200 133 l 1
 200 67 l 1
 133 67 l 1
267 67 m 1
 267 133 l 1
 333 133 l 1
 333 67 l 1
 267 67 l 1
400 67 m 1
 400 133 l 1
 467 133 l 1
 467 67 l 1
 400 67 l 1
67 0 m 1
 67 67 l 1
 133 67 l 1
 133 0 l 1
 67 0 l 1
200 0 m 1
 200 67 l 1
 533 67 l 1
 533 0 l 1
 200 0 l 1
400 -67 m 1
 400 0 l 1
 467 0 l 1
 467 -67 l 1
 400 -67 l 1
EndSplineSet
EndChar

StartChar: questiondown
Encoding: 191 191 130
Width: 533
Flags: HW
LayerCount: 2
Back
Fore
SplineSet
267 467 m 1
 267 533 l 1
 333 533 l 1
 333 467 l 1
 267 467 l 1
267 400 m 1
 267 467 l 1
 333 467 l 1
 333 400 l 1
 267 400 l 1
267 267 m 1
 267 333 l 1
 333 333 l 1
 333 267 l 1
 267 267 l 1
267 200 m 1
 267 267 l 1
 333 267 l 1
 333 200 l 1
 267 200 l 1
200 133 m 1
 200 200 l 1
 267 200 l 1
 267 133 l 1
 200 133 l 1
133 67 m 1
 133 133 l 1
 200 133 l 1
 200 67 l 1
 133 67 l 1
133 0 m 1
 133 67 l 1
 200 67 l 1
 200 0 l 1
 133 0 l 1
400 0 m 1
 400 67 l 1
 467 67 l 1
 467 0 l 1
 400 0 l 1
200 -67 m 1
 200 0 l 1
 400 0 l 1
 400 -67 l 1
 200 -67 l 1
EndSplineSet
EndChar

StartChar: Agrave
Encoding: 192 192 131
Width: 533
Flags: HW
LayerCount: 2
Back
Fore
SplineSet
200 667 m 1
 200 733 l 1
 267 733 l 1
 267 667 l 1
 200 667 l 1
267 600 m 1
 267 667 l 1
 333 667 l 1
 333 600 l 1
 267 600 l 1
200 467 m 1
 200 533 l 1
 333 533 l 1
 333 467 l 1
 200 467 l 1
133 400 m 1
 133 467 l 1
 200 467 l 1
 200 400 l 1
 133 400 l 1
333 400 m 1
 333 467 l 1
 400 467 l 1
 400 400 l 1
 333 400 l 1
67 333 m 1
 67 400 l 1
 133 400 l 1
 133 333 l 1
 67 333 l 1
400 333 m 1
 400 400 l 1
 467 400 l 1
 467 333 l 1
 400 333 l 1
67 267 m 1
 67 333 l 1
 133 333 l 1
 133 267 l 1
 67 267 l 1
400 267 m 1
 400 333 l 1
 467 333 l 1
 467 267 l 1
 400 267 l 1
67 200 m 1
 67 267 l 1
 467 267 l 1
 467 200 l 1
 67 200 l 1
67 133 m 1
 67 200 l 1
 133 200 l 1
 133 133 l 1
 67 133 l 1
400 133 m 1
 400 200 l 1
 467 200 l 1
 467 133 l 1
 400 133 l 1
67 67 m 1
 67 133 l 1
 133 133 l 1
 133 67 l 1
 67 67 l 1
400 67 m 1
 400 133 l 1
 467 133 l 1
 467 67 l 1
 400 67 l 1
67 0 m 1
 67 67 l 1
 133 67 l 1
 133 0 l 1
 67 0 l 1
400 0 m 1
 400 67 l 1
 467 67 l 1
 467 0 l 1
 400 0 l 1
EndSplineSet
EndChar

StartChar: Aacute
Encoding: 193 193 132
Width: 533
Flags: HW
LayerCount: 2
Back
Fore
SplineSet
267 667 m 1
 267 733 l 1
 333 733 l 1
 333 667 l 1
 267 667 l 1
200 600 m 1
 200 667 l 1
 267 667 l 1
 267 600 l 1
 200 600 l 1
200 467 m 1
 200 533 l 1
 333 533 l 1
 333 467 l 1
 200 467 l 1
133 400 m 1
 133 467 l 1
 200 467 l 1
 200 400 l 1
 133 400 l 1
333 400 m 1
 333 467 l 1
 400 467 l 1
 400 400 l 1
 333 400 l 1
67 333 m 1
 67 400 l 1
 133 400 l 1
 133 333 l 1
 67 333 l 1
400 333 m 1
 400 400 l 1
 467 400 l 1
 467 333 l 1
 400 333 l 1
67 267 m 1
 67 333 l 1
 133 333 l 1
 133 267 l 1
 67 267 l 1
400 267 m 1
 400 333 l 1
 467 333 l 1
 467 267 l 1
 400 267 l 1
67 200 m 1
 67 267 l 1
 467 267 l 1
 467 200 l 1
 67 200 l 1
67 133 m 1
 67 200 l 1
 133 200 l 1
 133 133 l 1
 67 133 l 1
400 133 m 1
 400 200 l 1
 467 200 l 1
 467 133 l 1
 400 133 l 1
67 67 m 1
 67 133 l 1
 133 133 l 1
 133 67 l 1
 67 67 l 1
400 67 m 1
 400 133 l 1
 467 133 l 1
 467 67 l 1
 400 67 l 1
67 0 m 1
 67 67 l 1
 133 67 l 1
 133 0 l 1
 67 0 l 1
400 0 m 1
 400 67 l 1
 467 67 l 1
 467 0 l 1
 400 0 l 1
EndSplineSet
EndChar

StartChar: Acircumflex
Encoding: 194 194 133
Width: 533
Flags: HW
LayerCount: 2
Back
Fore
SplineSet
200 667 m 1
 200 733 l 1
 333 733 l 1
 333 667 l 1
 200 667 l 1
133 600 m 1
 133 667 l 1
 200 667 l 1
 200 600 l 1
 133 600 l 1
333 600 m 1
 333 667 l 1
 400 667 l 1
 400 600 l 1
 333 600 l 1
200 467 m 1
 200 533 l 1
 333 533 l 1
 333 467 l 1
 200 467 l 1
133 400 m 1
 133 467 l 1
 200 467 l 1
 200 400 l 1
 133 400 l 1
333 400 m 1
 333 467 l 1
 400 467 l 1
 400 400 l 1
 333 400 l 1
67 333 m 1
 67 400 l 1
 133 400 l 1
 133 333 l 1
 67 333 l 1
400 333 m 1
 400 400 l 1
 467 400 l 1
 467 333 l 1
 400 333 l 1
67 267 m 1
 67 333 l 1
 133 333 l 1
 133 267 l 1
 67 267 l 1
400 267 m 1
 400 333 l 1
 467 333 l 1
 467 267 l 1
 400 267 l 1
67 200 m 1
 67 267 l 1
 467 267 l 1
 467 200 l 1
 67 200 l 1
67 133 m 1
 67 200 l 1
 133 200 l 1
 133 133 l 1
 67 133 l 1
400 133 m 1
 400 200 l 1
 467 200 l 1
 467 133 l 1
 400 133 l 1
67 67 m 1
 67 133 l 1
 133 133 l 1
 133 67 l 1
 67 67 l 1
400 67 m 1
 400 133 l 1
 467 133 l 1
 467 67 l 1
 400 67 l 1
67 0 m 1
 67 67 l 1
 133 67 l 1
 133 0 l 1
 67 0 l 1
400 0 m 1
 400 67 l 1
 467 67 l 1
 467 0 l 1
 400 0 l 1
EndSplineSet
EndChar

StartChar: Atilde
Encoding: 195 195 134
Width: 533
Flags: HW
LayerCount: 2
Back
Fore
SplineSet
133 667 m 1
 133 733 l 1
 267 733 l 1
 267 667 l 1
 133 667 l 1
400 667 m 1
 400 733 l 1
 467 733 l 1
 467 667 l 1
 400 667 l 1
67 600 m 1
 67 667 l 1
 133 667 l 1
 133 600 l 1
 67 600 l 1
267 600 m 1
 267 667 l 1
 400 667 l 1
 400 600 l 1
 267 600 l 1
200 467 m 1
 200 533 l 1
 333 533 l 1
 333 467 l 1
 200 467 l 1
133 400 m 1
 133 467 l 1
 200 467 l 1
 200 400 l 1
 133 400 l 1
333 400 m 1
 333 467 l 1
 400 467 l 1
 400 400 l 1
 333 400 l 1
67 333 m 1
 67 400 l 1
 133 400 l 1
 133 333 l 1
 67 333 l 1
400 333 m 1
 400 400 l 1
 467 400 l 1
 467 333 l 1
 400 333 l 1
67 267 m 1
 67 333 l 1
 133 333 l 1
 133 267 l 1
 67 267 l 1
400 267 m 1
 400 333 l 1
 467 333 l 1
 467 267 l 1
 400 267 l 1
67 200 m 1
 67 267 l 1
 467 267 l 1
 467 200 l 1
 67 200 l 1
67 133 m 1
 67 200 l 1
 133 200 l 1
 133 133 l 1
 67 133 l 1
400 133 m 1
 400 200 l 1
 467 200 l 1
 467 133 l 1
 400 133 l 1
67 67 m 1
 67 133 l 1
 133 133 l 1
 133 67 l 1
 67 67 l 1
400 67 m 1
 400 133 l 1
 467 133 l 1
 467 67 l 1
 400 67 l 1
67 0 m 1
 67 67 l 1
 133 67 l 1
 133 0 l 1
 67 0 l 1
400 0 m 1
 400 67 l 1
 467 67 l 1
 467 0 l 1
 400 0 l 1
EndSplineSet
EndChar

StartChar: Adieresis
Encoding: 196 196 135
Width: 533
Flags: HW
LayerCount: 2
Back
Fore
SplineSet
133 667 m 1
 133 733 l 1
 200 733 l 1
 200 667 l 1
 133 667 l 1
333 667 m 1
 333 733 l 1
 400 733 l 1
 400 667 l 1
 333 667 l 1
133 600 m 1
 133 667 l 1
 200 667 l 1
 200 600 l 1
 133 600 l 1
333 600 m 1
 333 667 l 1
 400 667 l 1
 400 600 l 1
 333 600 l 1
200 467 m 1
 200 533 l 1
 333 533 l 1
 333 467 l 1
 200 467 l 1
133 400 m 1
 133 467 l 1
 200 467 l 1
 200 400 l 1
 133 400 l 1
333 400 m 1
 333 467 l 1
 400 467 l 1
 400 400 l 1
 333 400 l 1
67 333 m 1
 67 400 l 1
 133 400 l 1
 133 333 l 1
 67 333 l 1
400 333 m 1
 400 400 l 1
 467 400 l 1
 467 333 l 1
 400 333 l 1
67 267 m 1
 67 333 l 1
 133 333 l 1
 133 267 l 1
 67 267 l 1
400 267 m 1
 400 333 l 1
 467 333 l 1
 467 267 l 1
 400 267 l 1
67 200 m 1
 67 267 l 1
 467 267 l 1
 467 200 l 1
 67 200 l 1
67 133 m 1
 67 200 l 1
 133 200 l 1
 133 133 l 1
 67 133 l 1
400 133 m 1
 400 200 l 1
 467 200 l 1
 467 133 l 1
 400 133 l 1
67 67 m 1
 67 133 l 1
 133 133 l 1
 133 67 l 1
 67 67 l 1
400 67 m 1
 400 133 l 1
 467 133 l 1
 467 67 l 1
 400 67 l 1
67 0 m 1
 67 67 l 1
 133 67 l 1
 133 0 l 1
 67 0 l 1
400 0 m 1
 400 67 l 1
 467 67 l 1
 467 0 l 1
 400 0 l 1
EndSplineSet
EndChar

StartChar: Aring
Encoding: 197 197 136
Width: 533
Flags: HW
LayerCount: 2
Back
Fore
SplineSet
200 667 m 1
 200 733 l 1
 333 733 l 1
 333 667 l 1
 200 667 l 1
133 600 m 1
 133 667 l 1
 200 667 l 1
 200 600 l 1
 133 600 l 1
333 600 m 1
 333 667 l 1
 400 667 l 1
 400 600 l 1
 333 600 l 1
200 533 m 1
 200 600 l 1
 333 600 l 1
 333 533 l 1
 200 533 l 1
200 467 m 1
 200 533 l 1
 333 533 l 1
 333 467 l 1
 200 467 l 1
133 400 m 1
 133 467 l 1
 200 467 l 1
 200 400 l 1
 133 400 l 1
333 400 m 1
 333 467 l 1
 400 467 l 1
 400 400 l 1
 333 400 l 1
67 333 m 1
 67 400 l 1
 133 400 l 1
 133 333 l 1
 67 333 l 1
400 333 m 1
 400 400 l 1
 467 400 l 1
 467 333 l 1
 400 333 l 1
67 267 m 1
 67 333 l 1
 133 333 l 1
 133 267 l 1
 67 267 l 1
400 267 m 1
 400 333 l 1
 467 333 l 1
 467 267 l 1
 400 267 l 1
67 200 m 1
 67 267 l 1
 467 267 l 1
 467 200 l 1
 67 200 l 1
67 133 m 1
 67 200 l 1
 133 200 l 1
 133 133 l 1
 67 133 l 1
400 133 m 1
 400 200 l 1
 467 200 l 1
 467 133 l 1
 400 133 l 1
67 67 m 1
 67 133 l 1
 133 133 l 1
 133 67 l 1
 67 67 l 1
400 67 m 1
 400 133 l 1
 467 133 l 1
 467 67 l 1
 400 67 l 1
67 0 m 1
 67 67 l 1
 133 67 l 1
 133 0 l 1
 67 0 l 1
400 0 m 1
 400 67 l 1
 467 67 l 1
 467 0 l 1
 400 0 l 1
EndSplineSet
EndChar

StartChar: AE
Encoding: 198 198 137
Width: 533
Flags: HW
LayerCount: 2
Back
Fore
SplineSet
200 467 m 1
 200 533 l 1
 533 533 l 1
 533 467 l 1
 200 467 l 1
133 400 m 1
 133 467 l 1
 200 467 l 1
 200 400 l 1
 133 400 l 1
267 400 m 1
 267 467 l 1
 333 467 l 1
 333 400 l 1
 267 400 l 1
133 333 m 1
 133 400 l 1
 200 400 l 1
 200 333 l 1
 133 333 l 1
267 333 m 1
 267 400 l 1
 333 400 l 1
 333 333 l 1
 267 333 l 1
67 267 m 1
 67 333 l 1
 133 333 l 1
 133 267 l 1
 67 267 l 1
267 267 m 1
 267 333 l 1
 467 333 l 1
 467 267 l 1
 267 267 l 1
67 200 m 1
 67 267 l 1
 333 267 l 1
 333 200 l 1
 67 200 l 1
67 133 m 1
 67 200 l 1
 133 200 l 1
 133 133 l 1
 67 133 l 1
267 133 m 1
 267 200 l 1
 333 200 l 1
 333 133 l 1
 267 133 l 1
67 67 m 1
 67 133 l 1
 133 133 l 1
 133 67 l 1
 67 67 l 1
267 67 m 1
 267 133 l 1
 333 133 l 1
 333 67 l 1
 267 67 l 1
67 0 m 1
 67 67 l 1
 133 67 l 1
 133 0 l 1
 67 0 l 1
267 0 m 1
 267 67 l 1
 533 67 l 1
 533 0 l 1
 267 0 l 1
EndSplineSet
EndChar

StartChar: Ccedilla
Encoding: 199 199 138
Width: 533
Flags: HW
LayerCount: 2
Back
Fore
SplineSet
133 467 m 1
 133 533 l 1
 400 533 l 1
 400 467 l 1
 133 467 l 1
67 400 m 1
 67 467 l 1
 133 467 l 1
 133 400 l 1
 67 400 l 1
400 400 m 1
 400 467 l 1
 467 467 l 1
 467 400 l 1
 400 400 l 1
67 333 m 1
 67 400 l 1
 133 400 l 1
 133 333 l 1
 67 333 l 1
67 267 m 1
 67 333 l 1
 133 333 l 1
 133 267 l 1
 67 267 l 1
67 200 m 1
 67 267 l 1
 133 267 l 1
 133 200 l 1
 67 200 l 1
67 133 m 1
 67 200 l 1
 133 200 l 1
 133 133 l 1
 67 133 l 1
67 67 m 1
 67 133 l 1
 133 133 l 1
 133 67 l 1
 67 67 l 1
400 67 m 1
 400 133 l 1
 467 133 l 1
 467 67 l 1
 400 67 l 1
133 0 m 1
 133 67 l 1
 400 67 l 1
 400 0 l 1
 133 0 l 1
267 -67 m 1
 267 0 l 1
 333 0 l 1
 333 -67 l 1
 267 -67 l 1
200 -133 m 1
 200 -67 l 1
 267 -67 l 1
 267 -133 l 1
 200 -133 l 1
EndSplineSet
EndChar

StartChar: Egrave
Encoding: 200 200 139
Width: 533
Flags: HW
LayerCount: 2
Back
Fore
SplineSet
200 667 m 1
 200 733 l 1
 267 733 l 1
 267 667 l 1
 200 667 l 1
267 600 m 1
 267 667 l 1
 333 667 l 1
 333 600 l 1
 267 600 l 1
133 467 m 1
 133 533 l 1
 467 533 l 1
 467 467 l 1
 133 467 l 1
133 400 m 1
 133 467 l 1
 200 467 l 1
 200 400 l 1
 133 400 l 1
133 333 m 1
 133 400 l 1
 200 400 l 1
 200 333 l 1
 133 333 l 1
133 267 m 1
 133 333 l 1
 400 333 l 1
 400 267 l 1
 133 267 l 1
133 200 m 1
 133 267 l 1
 200 267 l 1
 200 200 l 1
 133 200 l 1
133 133 m 1
 133 200 l 1
 200 200 l 1
 200 133 l 1
 133 133 l 1
133 67 m 1
 133 133 l 1
 200 133 l 1
 200 67 l 1
 133 67 l 1
133 0 m 1
 133 67 l 1
 467 67 l 1
 467 0 l 1
 133 0 l 1
EndSplineSet
EndChar

StartChar: Eacute
Encoding: 201 201 140
Width: 533
Flags: HW
LayerCount: 2
Back
Fore
SplineSet
333 667 m 1
 333 733 l 1
 400 733 l 1
 400 667 l 1
 333 667 l 1
267 600 m 1
 267 667 l 1
 333 667 l 1
 333 600 l 1
 267 600 l 1
133 467 m 1
 133 533 l 1
 467 533 l 1
 467 467 l 1
 133 467 l 1
133 400 m 1
 133 467 l 1
 200 467 l 1
 200 400 l 1
 133 400 l 1
133 333 m 1
 133 400 l 1
 200 400 l 1
 200 333 l 1
 133 333 l 1
133 267 m 1
 133 333 l 1
 400 333 l 1
 400 267 l 1
 133 267 l 1
133 200 m 1
 133 267 l 1
 200 267 l 1
 200 200 l 1
 133 200 l 1
133 133 m 1
 133 200 l 1
 200 200 l 1
 200 133 l 1
 133 133 l 1
133 67 m 1
 133 133 l 1
 200 133 l 1
 200 67 l 1
 133 67 l 1
133 0 m 1
 133 67 l 1
 467 67 l 1
 467 0 l 1
 133 0 l 1
EndSplineSet
EndChar

StartChar: Ecircumflex
Encoding: 202 202 141
Width: 533
Flags: HW
LayerCount: 2
Back
Fore
SplineSet
267 667 m 1
 267 733 l 1
 400 733 l 1
 400 667 l 1
 267 667 l 1
200 600 m 1
 200 667 l 1
 267 667 l 1
 267 600 l 1
 200 600 l 1
400 600 m 1
 400 667 l 1
 467 667 l 1
 467 600 l 1
 400 600 l 1
133 467 m 1
 133 533 l 1
 467 533 l 1
 467 467 l 1
 133 467 l 1
133 400 m 1
 133 467 l 1
 200 467 l 1
 200 400 l 1
 133 400 l 1
133 333 m 1
 133 400 l 1
 200 400 l 1
 200 333 l 1
 133 333 l 1
133 267 m 1
 133 333 l 1
 400 333 l 1
 400 267 l 1
 133 267 l 1
133 200 m 1
 133 267 l 1
 200 267 l 1
 200 200 l 1
 133 200 l 1
133 133 m 1
 133 200 l 1
 200 200 l 1
 200 133 l 1
 133 133 l 1
133 67 m 1
 133 133 l 1
 200 133 l 1
 200 67 l 1
 133 67 l 1
133 0 m 1
 133 67 l 1
 467 67 l 1
 467 0 l 1
 133 0 l 1
EndSplineSet
EndChar

StartChar: Edieresis
Encoding: 203 203 142
Width: 533
Flags: HW
LayerCount: 2
Back
Fore
SplineSet
200 667 m 1
 200 733 l 1
 267 733 l 1
 267 667 l 1
 200 667 l 1
333 667 m 1
 333 733 l 1
 400 733 l 1
 400 667 l 1
 333 667 l 1
200 600 m 1
 200 667 l 1
 267 667 l 1
 267 600 l 1
 200 600 l 1
333 600 m 1
 333 667 l 1
 400 667 l 1
 400 600 l 1
 333 600 l 1
133 467 m 1
 133 533 l 1
 467 533 l 1
 467 467 l 1
 133 467 l 1
133 400 m 1
 133 467 l 1
 200 467 l 1
 200 400 l 1
 133 400 l 1
133 333 m 1
 133 400 l 1
 200 400 l 1
 200 333 l 1
 133 333 l 1
133 267 m 1
 133 333 l 1
 400 333 l 1
 400 267 l 1
 133 267 l 1
133 200 m 1
 133 267 l 1
 200 267 l 1
 200 200 l 1
 133 200 l 1
133 133 m 1
 133 200 l 1
 200 200 l 1
 200 133 l 1
 133 133 l 1
133 67 m 1
 133 133 l 1
 200 133 l 1
 200 67 l 1
 133 67 l 1
133 0 m 1
 133 67 l 1
 467 67 l 1
 467 0 l 1
 133 0 l 1
EndSplineSet
EndChar

StartChar: Igrave
Encoding: 204 204 143
Width: 533
Flags: HW
LayerCount: 2
Back
Fore
SplineSet
200 667 m 1
 200 733 l 1
 267 733 l 1
 267 667 l 1
 200 667 l 1
267 600 m 1
 267 667 l 1
 333 667 l 1
 333 600 l 1
 267 600 l 1
133 467 m 1
 133 533 l 1
 467 533 l 1
 467 467 l 1
 133 467 l 1
267 400 m 1
 267 467 l 1
 333 467 l 1
 333 400 l 1
 267 400 l 1
267 333 m 1
 267 400 l 1
 333 400 l 1
 333 333 l 1
 267 333 l 1
267 267 m 1
 267 333 l 1
 333 333 l 1
 333 267 l 1
 267 267 l 1
267 200 m 1
 267 267 l 1
 333 267 l 1
 333 200 l 1
 267 200 l 1
267 133 m 1
 267 200 l 1
 333 200 l 1
 333 133 l 1
 267 133 l 1
267 67 m 1
 267 133 l 1
 333 133 l 1
 333 67 l 1
 267 67 l 1
133 0 m 1
 133 67 l 1
 467 67 l 1
 467 0 l 1
 133 0 l 1
EndSplineSet
EndChar

StartChar: Iacute
Encoding: 205 205 144
Width: 533
Flags: HW
LayerCount: 2
Back
Fore
SplineSet
333 667 m 1
 333 733 l 1
 400 733 l 1
 400 667 l 1
 333 667 l 1
267 600 m 1
 267 667 l 1
 333 667 l 1
 333 600 l 1
 267 600 l 1
133 467 m 1
 133 533 l 1
 467 533 l 1
 467 467 l 1
 133 467 l 1
267 400 m 1
 267 467 l 1
 333 467 l 1
 333 400 l 1
 267 400 l 1
267 333 m 1
 267 400 l 1
 333 400 l 1
 333 333 l 1
 267 333 l 1
267 267 m 1
 267 333 l 1
 333 333 l 1
 333 267 l 1
 267 267 l 1
267 200 m 1
 267 267 l 1
 333 267 l 1
 333 200 l 1
 267 200 l 1
267 133 m 1
 267 200 l 1
 333 200 l 1
 333 133 l 1
 267 133 l 1
267 67 m 1
 267 133 l 1
 333 133 l 1
 333 67 l 1
 267 67 l 1
133 0 m 1
 133 67 l 1
 467 67 l 1
 467 0 l 1
 133 0 l 1
EndSplineSet
EndChar

StartChar: Icircumflex
Encoding: 206 206 145
Width: 533
Flags: HW
LayerCount: 2
Back
Fore
SplineSet
267 667 m 1
 267 733 l 1
 333 733 l 1
 333 667 l 1
 267 667 l 1
200 600 m 1
 200 667 l 1
 267 667 l 1
 267 600 l 1
 200 600 l 1
333 600 m 1
 333 667 l 1
 400 667 l 1
 400 600 l 1
 333 600 l 1
133 467 m 1
 133 533 l 1
 467 533 l 1
 467 467 l 1
 133 467 l 1
267 400 m 1
 267 467 l 1
 333 467 l 1
 333 400 l 1
 267 400 l 1
267 333 m 1
 267 400 l 1
 333 400 l 1
 333 333 l 1
 267 333 l 1
267 267 m 1
 267 333 l 1
 333 333 l 1
 333 267 l 1
 267 267 l 1
267 200 m 1
 267 267 l 1
 333 267 l 1
 333 200 l 1
 267 200 l 1
267 133 m 1
 267 200 l 1
 333 200 l 1
 333 133 l 1
 267 133 l 1
267 67 m 1
 267 133 l 1
 333 133 l 1
 333 67 l 1
 267 67 l 1
133 0 m 1
 133 67 l 1
 467 67 l 1
 467 0 l 1
 133 0 l 1
EndSplineSet
EndChar

StartChar: Idieresis
Encoding: 207 207 146
Width: 533
Flags: HW
LayerCount: 2
Back
Fore
SplineSet
200 667 m 1
 200 733 l 1
 267 733 l 1
 267 667 l 1
 200 667 l 1
333 667 m 1
 333 733 l 1
 400 733 l 1
 400 667 l 1
 333 667 l 1
200 600 m 1
 200 667 l 1
 267 667 l 1
 267 600 l 1
 200 600 l 1
333 600 m 1
 333 667 l 1
 400 667 l 1
 400 600 l 1
 333 600 l 1
133 467 m 1
 133 533 l 1
 467 533 l 1
 467 467 l 1
 133 467 l 1
267 400 m 1
 267 467 l 1
 333 467 l 1
 333 400 l 1
 267 400 l 1
267 333 m 1
 267 400 l 1
 333 400 l 1
 333 333 l 1
 267 333 l 1
267 267 m 1
 267 333 l 1
 333 333 l 1
 333 267 l 1
 267 267 l 1
267 200 m 1
 267 267 l 1
 333 267 l 1
 333 200 l 1
 267 200 l 1
267 133 m 1
 267 200 l 1
 333 200 l 1
 333 133 l 1
 267 133 l 1
267 67 m 1
 267 133 l 1
 333 133 l 1
 333 67 l 1
 267 67 l 1
133 0 m 1
 133 67 l 1
 467 67 l 1
 467 0 l 1
 133 0 l 1
EndSplineSet
EndChar

StartChar: Eth
Encoding: 208 208 147
Width: 533
Flags: HW
LayerCount: 2
Back
Fore
SplineSet
67 467 m 1
 67 533 l 1
 400 533 l 1
 400 467 l 1
 67 467 l 1
67 400 m 1
 67 467 l 1
 133 467 l 1
 133 400 l 1
 67 400 l 1
400 400 m 1
 400 467 l 1
 467 467 l 1
 467 400 l 1
 400 400 l 1
67 333 m 1
 67 400 l 1
 133 400 l 1
 133 333 l 1
 67 333 l 1
400 333 m 1
 400 400 l 1
 467 400 l 1
 467 333 l 1
 400 333 l 1
0 267 m 1
 0 333 l 1
 267 333 l 1
 267 267 l 1
 0 267 l 1
400 267 m 1
 400 333 l 1
 467 333 l 1
 467 267 l 1
 400 267 l 1
67 200 m 1
 67 267 l 1
 133 267 l 1
 133 200 l 1
 67 200 l 1
400 200 m 1
 400 267 l 1
 467 267 l 1
 467 200 l 1
 400 200 l 1
67 133 m 1
 67 200 l 1
 133 200 l 1
 133 133 l 1
 67 133 l 1
400 133 m 1
 400 200 l 1
 467 200 l 1
 467 133 l 1
 400 133 l 1
67 67 m 1
 67 133 l 1
 133 133 l 1
 133 67 l 1
 67 67 l 1
400 67 m 1
 400 133 l 1
 467 133 l 1
 467 67 l 1
 400 67 l 1
67 0 m 1
 67 67 l 1
 400 67 l 1
 400 0 l 1
 67 0 l 1
EndSplineSet
EndChar

StartChar: Ntilde
Encoding: 209 209 148
Width: 533
Flags: HW
LayerCount: 2
Back
Fore
SplineSet
133 667 m 1
 133 733 l 1
 267 733 l 1
 267 667 l 1
 133 667 l 1
400 667 m 1
 400 733 l 1
 467 733 l 1
 467 667 l 1
 400 667 l 1
67 600 m 1
 67 667 l 1
 133 667 l 1
 133 600 l 1
 67 600 l 1
267 600 m 1
 267 667 l 1
 400 667 l 1
 400 600 l 1
 267 600 l 1
67 467 m 1
 67 533 l 1
 133 533 l 1
 133 467 l 1
 67 467 l 1
400 467 m 1
 400 533 l 1
 467 533 l 1
 467 467 l 1
 400 467 l 1
67 400 m 1
 67 467 l 1
 200 467 l 1
 200 400 l 1
 67 400 l 1
400 400 m 1
 400 467 l 1
 467 467 l 1
 467 400 l 1
 400 400 l 1
67 333 m 1
 67 400 l 1
 133 400 l 1
 133 333 l 1
 67 333 l 1
200 333 m 1
 200 400 l 1
 267 400 l 1
 267 333 l 1
 200 333 l 1
400 333 m 1
 400 400 l 1
 467 400 l 1
 467 333 l 1
 400 333 l 1
67 267 m 1
 67 333 l 1
 133 333 l 1
 133 267 l 1
 67 267 l 1
200 267 m 1
 200 333 l 1
 267 333 l 1
 267 267 l 1
 200 267 l 1
400 267 m 1
 400 333 l 1
 467 333 l 1
 467 267 l 1
 400 267 l 1
67 200 m 1
 67 267 l 1
 133 267 l 1
 133 200 l 1
 67 200 l 1
267 200 m 1
 267 267 l 1
 333 267 l 1
 333 200 l 1
 267 200 l 1
400 200 m 1
 400 267 l 1
 467 267 l 1
 467 200 l 1
 400 200 l 1
67 133 m 1
 67 200 l 1
 133 200 l 1
 133 133 l 1
 67 133 l 1
267 133 m 1
 267 200 l 1
 333 200 l 1
 333 133 l 1
 267 133 l 1
400 133 m 1
 400 200 l 1
 467 200 l 1
 467 133 l 1
 400 133 l 1
67 67 m 1
 67 133 l 1
 133 133 l 1
 133 67 l 1
 67 67 l 1
333 67 m 1
 333 133 l 1
 467 133 l 1
 467 67 l 1
 333 67 l 1
67 0 m 1
 67 67 l 1
 133 67 l 1
 133 0 l 1
 67 0 l 1
400 0 m 1
 400 67 l 1
 467 67 l 1
 467 0 l 1
 400 0 l 1
EndSplineSet
EndChar

StartChar: Ograve
Encoding: 210 210 149
Width: 533
Flags: HW
LayerCount: 2
Back
Fore
SplineSet
200 667 m 1
 200 733 l 1
 267 733 l 1
 267 667 l 1
 200 667 l 1
267 600 m 1
 267 667 l 1
 333 667 l 1
 333 600 l 1
 267 600 l 1
133 467 m 1
 133 533 l 1
 400 533 l 1
 400 467 l 1
 133 467 l 1
67 400 m 1
 67 467 l 1
 133 467 l 1
 133 400 l 1
 67 400 l 1
400 400 m 1
 400 467 l 1
 467 467 l 1
 467 400 l 1
 400 400 l 1
67 333 m 1
 67 400 l 1
 133 400 l 1
 133 333 l 1
 67 333 l 1
400 333 m 1
 400 400 l 1
 467 400 l 1
 467 333 l 1
 400 333 l 1
67 267 m 1
 67 333 l 1
 133 333 l 1
 133 267 l 1
 67 267 l 1
400 267 m 1
 400 333 l 1
 467 333 l 1
 467 267 l 1
 400 267 l 1
67 200 m 1
 67 267 l 1
 133 267 l 1
 133 200 l 1
 67 200 l 1
400 200 m 1
 400 267 l 1
 467 267 l 1
 467 200 l 1
 400 200 l 1
67 133 m 1
 67 200 l 1
 133 200 l 1
 133 133 l 1
 67 133 l 1
400 133 m 1
 400 200 l 1
 467 200 l 1
 467 133 l 1
 400 133 l 1
67 67 m 1
 67 133 l 1
 133 133 l 1
 133 67 l 1
 67 67 l 1
400 67 m 1
 400 133 l 1
 467 133 l 1
 467 67 l 1
 400 67 l 1
133 0 m 1
 133 67 l 1
 400 67 l 1
 400 0 l 1
 133 0 l 1
EndSplineSet
EndChar

StartChar: Oacute
Encoding: 211 211 150
Width: 533
Flags: HW
LayerCount: 2
Back
Fore
SplineSet
267 667 m 1
 267 733 l 1
 333 733 l 1
 333 667 l 1
 267 667 l 1
200 600 m 1
 200 667 l 1
 267 667 l 1
 267 600 l 1
 200 600 l 1
133 467 m 1
 133 533 l 1
 400 533 l 1
 400 467 l 1
 133 467 l 1
67 400 m 1
 67 467 l 1
 133 467 l 1
 133 400 l 1
 67 400 l 1
400 400 m 1
 400 467 l 1
 467 467 l 1
 467 400 l 1
 400 400 l 1
67 333 m 1
 67 400 l 1
 133 400 l 1
 133 333 l 1
 67 333 l 1
400 333 m 1
 400 400 l 1
 467 400 l 1
 467 333 l 1
 400 333 l 1
67 267 m 1
 67 333 l 1
 133 333 l 1
 133 267 l 1
 67 267 l 1
400 267 m 1
 400 333 l 1
 467 333 l 1
 467 267 l 1
 400 267 l 1
67 200 m 1
 67 267 l 1
 133 267 l 1
 133 200 l 1
 67 200 l 1
400 200 m 1
 400 267 l 1
 467 267 l 1
 467 200 l 1
 400 200 l 1
67 133 m 1
 67 200 l 1
 133 200 l 1
 133 133 l 1
 67 133 l 1
400 133 m 1
 400 200 l 1
 467 200 l 1
 467 133 l 1
 400 133 l 1
67 67 m 1
 67 133 l 1
 133 133 l 1
 133 67 l 1
 67 67 l 1
400 67 m 1
 400 133 l 1
 467 133 l 1
 467 67 l 1
 400 67 l 1
133 0 m 1
 133 67 l 1
 400 67 l 1
 400 0 l 1
 133 0 l 1
EndSplineSet
EndChar

StartChar: Ocircumflex
Encoding: 212 212 151
Width: 533
Flags: HW
LayerCount: 2
Back
Fore
SplineSet
200 667 m 1
 200 733 l 1
 333 733 l 1
 333 667 l 1
 200 667 l 1
133 600 m 1
 133 667 l 1
 200 667 l 1
 200 600 l 1
 133 600 l 1
333 600 m 1
 333 667 l 1
 400 667 l 1
 400 600 l 1
 333 600 l 1
133 467 m 1
 133 533 l 1
 400 533 l 1
 400 467 l 1
 133 467 l 1
67 400 m 1
 67 467 l 1
 133 467 l 1
 133 400 l 1
 67 400 l 1
400 400 m 1
 400 467 l 1
 467 467 l 1
 467 400 l 1
 400 400 l 1
67 333 m 1
 67 400 l 1
 133 400 l 1
 133 333 l 1
 67 333 l 1
400 333 m 1
 400 400 l 1
 467 400 l 1
 467 333 l 1
 400 333 l 1
67 267 m 1
 67 333 l 1
 133 333 l 1
 133 267 l 1
 67 267 l 1
400 267 m 1
 400 333 l 1
 467 333 l 1
 467 267 l 1
 400 267 l 1
67 200 m 1
 67 267 l 1
 133 267 l 1
 133 200 l 1
 67 200 l 1
400 200 m 1
 400 267 l 1
 467 267 l 1
 467 200 l 1
 400 200 l 1
67 133 m 1
 67 200 l 1
 133 200 l 1
 133 133 l 1
 67 133 l 1
400 133 m 1
 400 200 l 1
 467 200 l 1
 467 133 l 1
 400 133 l 1
67 67 m 1
 67 133 l 1
 133 133 l 1
 133 67 l 1
 67 67 l 1
400 67 m 1
 400 133 l 1
 467 133 l 1
 467 67 l 1
 400 67 l 1
133 0 m 1
 133 67 l 1
 400 67 l 1
 400 0 l 1
 133 0 l 1
EndSplineSet
EndChar

StartChar: Otilde
Encoding: 213 213 152
Width: 533
Flags: HW
LayerCount: 2
Back
Fore
SplineSet
133 667 m 1
 133 733 l 1
 267 733 l 1
 267 667 l 1
 133 667 l 1
400 667 m 1
 400 733 l 1
 467 733 l 1
 467 667 l 1
 400 667 l 1
67 600 m 1
 67 667 l 1
 133 667 l 1
 133 600 l 1
 67 600 l 1
267 600 m 1
 267 667 l 1
 400 667 l 1
 400 600 l 1
 267 600 l 1
133 467 m 1
 133 533 l 1
 400 533 l 1
 400 467 l 1
 133 467 l 1
67 400 m 1
 67 467 l 1
 133 467 l 1
 133 400 l 1
 67 400 l 1
400 400 m 1
 400 467 l 1
 467 467 l 1
 467 400 l 1
 400 400 l 1
67 333 m 1
 67 400 l 1
 133 400 l 1
 133 333 l 1
 67 333 l 1
400 333 m 1
 400 400 l 1
 467 400 l 1
 467 333 l 1
 400 333 l 1
67 267 m 1
 67 333 l 1
 133 333 l 1
 133 267 l 1
 67 267 l 1
400 267 m 1
 400 333 l 1
 467 333 l 1
 467 267 l 1
 400 267 l 1
67 200 m 1
 67 267 l 1
 133 267 l 1
 133 200 l 1
 67 200 l 1
400 200 m 1
 400 267 l 1
 467 267 l 1
 467 200 l 1
 400 200 l 1
67 133 m 1
 67 200 l 1
 133 200 l 1
 133 133 l 1
 67 133 l 1
400 133 m 1
 400 200 l 1
 467 200 l 1
 467 133 l 1
 400 133 l 1
67 67 m 1
 67 133 l 1
 133 133 l 1
 133 67 l 1
 67 67 l 1
400 67 m 1
 400 133 l 1
 467 133 l 1
 467 67 l 1
 400 67 l 1
133 0 m 1
 133 67 l 1
 400 67 l 1
 400 0 l 1
 133 0 l 1
EndSplineSet
EndChar

StartChar: Odieresis
Encoding: 214 214 153
Width: 533
Flags: HW
LayerCount: 2
Back
Fore
SplineSet
133 667 m 1
 133 733 l 1
 200 733 l 1
 200 667 l 1
 133 667 l 1
333 667 m 1
 333 733 l 1
 400 733 l 1
 400 667 l 1
 333 667 l 1
133 600 m 1
 133 667 l 1
 200 667 l 1
 200 600 l 1
 133 600 l 1
333 600 m 1
 333 667 l 1
 400 667 l 1
 400 600 l 1
 333 600 l 1
133 467 m 1
 133 533 l 1
 400 533 l 1
 400 467 l 1
 133 467 l 1
67 400 m 1
 67 467 l 1
 133 467 l 1
 133 400 l 1
 67 400 l 1
400 400 m 1
 400 467 l 1
 467 467 l 1
 467 400 l 1
 400 400 l 1
67 333 m 1
 67 400 l 1
 133 400 l 1
 133 333 l 1
 67 333 l 1
400 333 m 1
 400 400 l 1
 467 400 l 1
 467 333 l 1
 400 333 l 1
67 267 m 1
 67 333 l 1
 133 333 l 1
 133 267 l 1
 67 267 l 1
400 267 m 1
 400 333 l 1
 467 333 l 1
 467 267 l 1
 400 267 l 1
67 200 m 1
 67 267 l 1
 133 267 l 1
 133 200 l 1
 67 200 l 1
400 200 m 1
 400 267 l 1
 467 267 l 1
 467 200 l 1
 400 200 l 1
67 133 m 1
 67 200 l 1
 133 200 l 1
 133 133 l 1
 67 133 l 1
400 133 m 1
 400 200 l 1
 467 200 l 1
 467 133 l 1
 400 133 l 1
67 67 m 1
 67 133 l 1
 133 133 l 1
 133 67 l 1
 67 67 l 1
400 67 m 1
 400 133 l 1
 467 133 l 1
 467 67 l 1
 400 67 l 1
133 0 m 1
 133 67 l 1
 400 67 l 1
 400 0 l 1
 133 0 l 1
EndSplineSet
EndChar

StartChar: multiply
Encoding: 215 215 154
Width: 533
Flags: HW
LayerCount: 2
Back
Fore
SplineSet
133 333 m 1
 133 400 l 1
 200 400 l 1
 200 333 l 1
 133 333 l 1
400 333 m 1
 400 400 l 1
 467 400 l 1
 467 333 l 1
 400 333 l 1
200 267 m 1
 200 333 l 1
 267 333 l 1
 267 267 l 1
 200 267 l 1
333 267 m 1
 333 333 l 1
 400 333 l 1
 400 267 l 1
 333 267 l 1
267 200 m 1
 267 267 l 1
 333 267 l 1
 333 200 l 1
 267 200 l 1
200 133 m 1
 200 200 l 1
 267 200 l 1
 267 133 l 1
 200 133 l 1
333 133 m 1
 333 200 l 1
 400 200 l 1
 400 133 l 1
 333 133 l 1
133 67 m 1
 133 133 l 1
 200 133 l 1
 200 67 l 1
 133 67 l 1
400 67 m 1
 400 133 l 1
 467 133 l 1
 467 67 l 1
 400 67 l 1
EndSplineSet
EndChar

StartChar: Oslash
Encoding: 216 216 155
Width: 533
Flags: HW
LayerCount: 2
Back
Fore
SplineSet
133 467 m 1
 133 533 l 1
 400 533 l 1
 400 467 l 1
 133 467 l 1
467 467 m 1
 467 533 l 1
 533 533 l 1
 533 467 l 1
 467 467 l 1
67 400 m 1
 67 467 l 1
 133 467 l 1
 133 400 l 1
 67 400 l 1
400 400 m 1
 400 467 l 1
 467 467 l 1
 467 400 l 1
 400 400 l 1
67 333 m 1
 67 400 l 1
 133 400 l 1
 133 333 l 1
 67 333 l 1
333 333 m 1
 333 400 l 1
 467 400 l 1
 467 333 l 1
 333 333 l 1
67 267 m 1
 67 333 l 1
 133 333 l 1
 133 267 l 1
 67 267 l 1
267 267 m 1
 267 333 l 1
 333 333 l 1
 333 267 l 1
 267 267 l 1
400 267 m 1
 400 333 l 1
 467 333 l 1
 467 267 l 1
 400 267 l 1
67 200 m 1
 67 267 l 1
 133 267 l 1
 133 200 l 1
 67 200 l 1
267 200 m 1
 267 267 l 1
 333 267 l 1
 333 200 l 1
 267 200 l 1
400 200 m 1
 400 267 l 1
 467 267 l 1
 467 200 l 1
 400 200 l 1
67 133 m 1
 67 200 l 1
 133 200 l 1
 133 133 l 1
 67 133 l 1
200 133 m 1
 200 200 l 1
 267 200 l 1
 267 133 l 1
 200 133 l 1
400 133 m 1
 400 200 l 1
 467 200 l 1
 467 133 l 1
 400 133 l 1
67 67 m 1
 67 133 l 1
 200 133 l 1
 200 67 l 1
 67 67 l 1
400 67 m 1
 400 133 l 1
 467 133 l 1
 467 67 l 1
 400 67 l 1
67 0 m 1
 67 67 l 1
 400 67 l 1
 400 0 l 1
 67 0 l 1
0 -67 m 1
 0 0 l 1
 67 0 l 1
 67 -67 l 1
 0 -67 l 1
EndSplineSet
EndChar

StartChar: Ugrave
Encoding: 217 217 156
Width: 533
Flags: HW
LayerCount: 2
Back
Fore
SplineSet
200 667 m 1
 200 733 l 1
 267 733 l 1
 267 667 l 1
 200 667 l 1
267 600 m 1
 267 667 l 1
 333 667 l 1
 333 600 l 1
 267 600 l 1
67 467 m 1
 67 533 l 1
 133 533 l 1
 133 467 l 1
 67 467 l 1
400 467 m 1
 400 533 l 1
 467 533 l 1
 467 467 l 1
 400 467 l 1
67 400 m 1
 67 467 l 1
 133 467 l 1
 133 400 l 1
 67 400 l 1
400 400 m 1
 400 467 l 1
 467 467 l 1
 467 400 l 1
 400 400 l 1
67 333 m 1
 67 400 l 1
 133 400 l 1
 133 333 l 1
 67 333 l 1
400 333 m 1
 400 400 l 1
 467 400 l 1
 467 333 l 1
 400 333 l 1
67 267 m 1
 67 333 l 1
 133 333 l 1
 133 267 l 1
 67 267 l 1
400 267 m 1
 400 333 l 1
 467 333 l 1
 467 267 l 1
 400 267 l 1
67 200 m 1
 67 267 l 1
 133 267 l 1
 133 200 l 1
 67 200 l 1
400 200 m 1
 400 267 l 1
 467 267 l 1
 467 200 l 1
 400 200 l 1
67 133 m 1
 67 200 l 1
 133 200 l 1
 133 133 l 1
 67 133 l 1
400 133 m 1
 400 200 l 1
 467 200 l 1
 467 133 l 1
 400 133 l 1
67 67 m 1
 67 133 l 1
 133 133 l 1
 133 67 l 1
 67 67 l 1
400 67 m 1
 400 133 l 1
 467 133 l 1
 467 67 l 1
 400 67 l 1
133 0 m 1
 133 67 l 1
 400 67 l 1
 400 0 l 1
 133 0 l 1
EndSplineSet
EndChar

StartChar: Uacute
Encoding: 218 218 157
Width: 533
Flags: HW
LayerCount: 2
Back
Fore
SplineSet
267 667 m 1
 267 733 l 1
 333 733 l 1
 333 667 l 1
 267 667 l 1
200 600 m 1
 200 667 l 1
 267 667 l 1
 267 600 l 1
 200 600 l 1
67 467 m 1
 67 533 l 1
 133 533 l 1
 133 467 l 1
 67 467 l 1
400 467 m 1
 400 533 l 1
 467 533 l 1
 467 467 l 1
 400 467 l 1
67 400 m 1
 67 467 l 1
 133 467 l 1
 133 400 l 1
 67 400 l 1
400 400 m 1
 400 467 l 1
 467 467 l 1
 467 400 l 1
 400 400 l 1
67 333 m 1
 67 400 l 1
 133 400 l 1
 133 333 l 1
 67 333 l 1
400 333 m 1
 400 400 l 1
 467 400 l 1
 467 333 l 1
 400 333 l 1
67 267 m 1
 67 333 l 1
 133 333 l 1
 133 267 l 1
 67 267 l 1
400 267 m 1
 400 333 l 1
 467 333 l 1
 467 267 l 1
 400 267 l 1
67 200 m 1
 67 267 l 1
 133 267 l 1
 133 200 l 1
 67 200 l 1
400 200 m 1
 400 267 l 1
 467 267 l 1
 467 200 l 1
 400 200 l 1
67 133 m 1
 67 200 l 1
 133 200 l 1
 133 133 l 1
 67 133 l 1
400 133 m 1
 400 200 l 1
 467 200 l 1
 467 133 l 1
 400 133 l 1
67 67 m 1
 67 133 l 1
 133 133 l 1
 133 67 l 1
 67 67 l 1
400 67 m 1
 400 133 l 1
 467 133 l 1
 467 67 l 1
 400 67 l 1
133 0 m 1
 133 67 l 1
 400 67 l 1
 400 0 l 1
 133 0 l 1
EndSplineSet
EndChar

StartChar: Ucircumflex
Encoding: 219 219 158
Width: 533
Flags: HW
LayerCount: 2
Back
Fore
SplineSet
200 667 m 1
 200 733 l 1
 333 733 l 1
 333 667 l 1
 200 667 l 1
133 600 m 1
 133 667 l 1
 200 667 l 1
 200 600 l 1
 133 600 l 1
333 600 m 1
 333 667 l 1
 400 667 l 1
 400 600 l 1
 333 600 l 1
67 467 m 1
 67 533 l 1
 133 533 l 1
 133 467 l 1
 67 467 l 1
400 467 m 1
 400 533 l 1
 467 533 l 1
 467 467 l 1
 400 467 l 1
67 400 m 1
 67 467 l 1
 133 467 l 1
 133 400 l 1
 67 400 l 1
400 400 m 1
 400 467 l 1
 467 467 l 1
 467 400 l 1
 400 400 l 1
67 333 m 1
 67 400 l 1
 133 400 l 1
 133 333 l 1
 67 333 l 1
400 333 m 1
 400 400 l 1
 467 400 l 1
 467 333 l 1
 400 333 l 1
67 267 m 1
 67 333 l 1
 133 333 l 1
 133 267 l 1
 67 267 l 1
400 267 m 1
 400 333 l 1
 467 333 l 1
 467 267 l 1
 400 267 l 1
67 200 m 1
 67 267 l 1
 133 267 l 1
 133 200 l 1
 67 200 l 1
400 200 m 1
 400 267 l 1
 467 267 l 1
 467 200 l 1
 400 200 l 1
67 133 m 1
 67 200 l 1
 133 200 l 1
 133 133 l 1
 67 133 l 1
400 133 m 1
 400 200 l 1
 467 200 l 1
 467 133 l 1
 400 133 l 1
67 67 m 1
 67 133 l 1
 133 133 l 1
 133 67 l 1
 67 67 l 1
400 67 m 1
 400 133 l 1
 467 133 l 1
 467 67 l 1
 400 67 l 1
133 0 m 1
 133 67 l 1
 400 67 l 1
 400 0 l 1
 133 0 l 1
EndSplineSet
EndChar

StartChar: Udieresis
Encoding: 220 220 159
Width: 533
Flags: HW
LayerCount: 2
Back
Fore
SplineSet
133 667 m 1
 133 733 l 1
 200 733 l 1
 200 667 l 1
 133 667 l 1
333 667 m 1
 333 733 l 1
 400 733 l 1
 400 667 l 1
 333 667 l 1
133 600 m 1
 133 667 l 1
 200 667 l 1
 200 600 l 1
 133 600 l 1
333 600 m 1
 333 667 l 1
 400 667 l 1
 400 600 l 1
 333 600 l 1
67 467 m 1
 67 533 l 1
 133 533 l 1
 133 467 l 1
 67 467 l 1
400 467 m 1
 400 533 l 1
 467 533 l 1
 467 467 l 1
 400 467 l 1
67 400 m 1
 67 467 l 1
 133 467 l 1
 133 400 l 1
 67 400 l 1
400 400 m 1
 400 467 l 1
 467 467 l 1
 467 400 l 1
 400 400 l 1
67 333 m 1
 67 400 l 1
 133 400 l 1
 133 333 l 1
 67 333 l 1
400 333 m 1
 400 400 l 1
 467 400 l 1
 467 333 l 1
 400 333 l 1
67 267 m 1
 67 333 l 1
 133 333 l 1
 133 267 l 1
 67 267 l 1
400 267 m 1
 400 333 l 1
 467 333 l 1
 467 267 l 1
 400 267 l 1
67 200 m 1
 67 267 l 1
 133 267 l 1
 133 200 l 1
 67 200 l 1
400 200 m 1
 400 267 l 1
 467 267 l 1
 467 200 l 1
 400 200 l 1
67 133 m 1
 67 200 l 1
 133 200 l 1
 133 133 l 1
 67 133 l 1
400 133 m 1
 400 200 l 1
 467 200 l 1
 467 133 l 1
 400 133 l 1
67 67 m 1
 67 133 l 1
 133 133 l 1
 133 67 l 1
 67 67 l 1
400 67 m 1
 400 133 l 1
 467 133 l 1
 467 67 l 1
 400 67 l 1
133 0 m 1
 133 67 l 1
 400 67 l 1
 400 0 l 1
 133 0 l 1
EndSplineSet
EndChar

StartChar: Yacute
Encoding: 221 221 160
Width: 533
Flags: HW
LayerCount: 2
Back
Fore
SplineSet
267 667 m 1
 267 733 l 1
 400 733 l 1
 400 667 l 1
 267 667 l 1
200 600 m 1
 200 667 l 1
 267 667 l 1
 267 600 l 1
 200 600 l 1
67 467 m 1
 67 533 l 1
 133 533 l 1
 133 467 l 1
 67 467 l 1
467 467 m 1
 467 533 l 1
 533 533 l 1
 533 467 l 1
 467 467 l 1
67 400 m 1
 67 467 l 1
 133 467 l 1
 133 400 l 1
 67 400 l 1
467 400 m 1
 467 467 l 1
 533 467 l 1
 533 400 l 1
 467 400 l 1
133 333 m 1
 133 400 l 1
 200 400 l 1
 200 333 l 1
 133 333 l 1
400 333 m 1
 400 400 l 1
 467 400 l 1
 467 333 l 1
 400 333 l 1
200 267 m 1
 200 333 l 1
 267 333 l 1
 267 267 l 1
 200 267 l 1
333 267 m 1
 333 333 l 1
 400 333 l 1
 400 267 l 1
 333 267 l 1
267 200 m 1
 267 267 l 1
 333 267 l 1
 333 200 l 1
 267 200 l 1
267 133 m 1
 267 200 l 1
 333 200 l 1
 333 133 l 1
 267 133 l 1
267 67 m 1
 267 133 l 1
 333 133 l 1
 333 67 l 1
 267 67 l 1
267 0 m 1
 267 67 l 1
 333 67 l 1
 333 0 l 1
 267 0 l 1
EndSplineSet
EndChar

StartChar: Thorn
Encoding: 222 222 161
Width: 533
Flags: HW
LayerCount: 2
Back
Fore
SplineSet
67 467 m 1
 67 533 l 1
 267 533 l 1
 267 467 l 1
 67 467 l 1
133 400 m 1
 133 467 l 1
 200 467 l 1
 200 400 l 1
 133 400 l 1
133 333 m 1
 133 400 l 1
 400 400 l 1
 400 333 l 1
 133 333 l 1
133 267 m 1
 133 333 l 1
 200 333 l 1
 200 267 l 1
 133 267 l 1
400 267 m 1
 400 333 l 1
 467 333 l 1
 467 267 l 1
 400 267 l 1
133 200 m 1
 133 267 l 1
 200 267 l 1
 200 200 l 1
 133 200 l 1
400 200 m 1
 400 267 l 1
 467 267 l 1
 467 200 l 1
 400 200 l 1
133 133 m 1
 133 200 l 1
 400 200 l 1
 400 133 l 1
 133 133 l 1
133 67 m 1
 133 133 l 1
 200 133 l 1
 200 67 l 1
 133 67 l 1
67 0 m 1
 67 67 l 1
 267 67 l 1
 267 0 l 1
 67 0 l 1
EndSplineSet
EndChar

StartChar: germandbls
Encoding: 223 223 162
Width: 533
Flags: HW
LayerCount: 2
Back
Fore
SplineSet
200 467 m 1
 200 533 l 1
 400 533 l 1
 400 467 l 1
 200 467 l 1
133 400 m 1
 133 467 l 1
 200 467 l 1
 200 400 l 1
 133 400 l 1
400 400 m 1
 400 467 l 1
 467 467 l 1
 467 400 l 1
 400 400 l 1
133 333 m 1
 133 400 l 1
 200 400 l 1
 200 333 l 1
 133 333 l 1
400 333 m 1
 400 400 l 1
 467 400 l 1
 467 333 l 1
 400 333 l 1
67 267 m 1
 67 333 l 1
 200 333 l 1
 200 267 l 1
 67 267 l 1
333 267 m 1
 333 333 l 1
 400 333 l 1
 400 267 l 1
 333 267 l 1
133 200 m 1
 133 267 l 1
 200 267 l 1
 200 200 l 1
 133 200 l 1
400 200 m 1
 400 267 l 1
 467 267 l 1
 467 200 l 1
 400 200 l 1
133 133 m 1
 133 200 l 1
 200 200 l 1
 200 133 l 1
 133 133 l 1
400 133 m 1
 400 200 l 1
 467 200 l 1
 467 133 l 1
 400 133 l 1
133 67 m 1
 133 133 l 1
 200 133 l 1
 200 67 l 1
 133 67 l 1
400 67 m 1
 400 133 l 1
 467 133 l 1
 467 67 l 1
 400 67 l 1
67 0 m 1
 67 67 l 1
 200 67 l 1
 200 0 l 1
 67 0 l 1
267 0 m 1
 267 67 l 1
 400 67 l 1
 400 0 l 1
 267 0 l 1
EndSplineSet
EndChar

StartChar: agrave
Encoding: 224 224 163
Width: 533
Flags: HW
LayerCount: 2
Back
Fore
SplineSet
200 533 m 1
 200 600 l 1
 267 600 l 1
 267 533 l 1
 200 533 l 1
267 467 m 1
 267 533 l 1
 333 533 l 1
 333 467 l 1
 267 467 l 1
133 333 m 1
 133 400 l 1
 400 400 l 1
 400 333 l 1
 133 333 l 1
400 267 m 1
 400 333 l 1
 467 333 l 1
 467 267 l 1
 400 267 l 1
133 200 m 1
 133 267 l 1
 467 267 l 1
 467 200 l 1
 133 200 l 1
67 133 m 1
 67 200 l 1
 133 200 l 1
 133 133 l 1
 67 133 l 1
400 133 m 1
 400 200 l 1
 467 200 l 1
 467 133 l 1
 400 133 l 1
67 67 m 1
 67 133 l 1
 133 133 l 1
 133 67 l 1
 67 67 l 1
400 67 m 1
 400 133 l 1
 467 133 l 1
 467 67 l 1
 400 67 l 1
133 0 m 1
 133 67 l 1
 400 67 l 1
 400 0 l 1
 133 0 l 1
467 0 m 1
 467 67 l 1
 533 67 l 1
 533 0 l 1
 467 0 l 1
EndSplineSet
EndChar

StartChar: aacute
Encoding: 225 225 164
Width: 533
Flags: HW
LayerCount: 2
Back
Fore
SplineSet
333 533 m 1
 333 600 l 1
 400 600 l 1
 400 533 l 1
 333 533 l 1
267 467 m 1
 267 533 l 1
 333 533 l 1
 333 467 l 1
 267 467 l 1
133 333 m 1
 133 400 l 1
 400 400 l 1
 400 333 l 1
 133 333 l 1
400 267 m 1
 400 333 l 1
 467 333 l 1
 467 267 l 1
 400 267 l 1
133 200 m 1
 133 267 l 1
 467 267 l 1
 467 200 l 1
 133 200 l 1
67 133 m 1
 67 200 l 1
 133 200 l 1
 133 133 l 1
 67 133 l 1
400 133 m 1
 400 200 l 1
 467 200 l 1
 467 133 l 1
 400 133 l 1
67 67 m 1
 67 133 l 1
 133 133 l 1
 133 67 l 1
 67 67 l 1
400 67 m 1
 400 133 l 1
 467 133 l 1
 467 67 l 1
 400 67 l 1
133 0 m 1
 133 67 l 1
 400 67 l 1
 400 0 l 1
 133 0 l 1
467 0 m 1
 467 67 l 1
 533 67 l 1
 533 0 l 1
 467 0 l 1
EndSplineSet
EndChar

StartChar: acircumflex
Encoding: 226 226 165
Width: 533
Flags: HW
LayerCount: 2
Back
Fore
SplineSet
200 533 m 1
 200 600 l 1
 333 600 l 1
 333 533 l 1
 200 533 l 1
133 467 m 1
 133 533 l 1
 200 533 l 1
 200 467 l 1
 133 467 l 1
333 467 m 1
 333 533 l 1
 400 533 l 1
 400 467 l 1
 333 467 l 1
133 333 m 1
 133 400 l 1
 400 400 l 1
 400 333 l 1
 133 333 l 1
400 267 m 1
 400 333 l 1
 467 333 l 1
 467 267 l 1
 400 267 l 1
133 200 m 1
 133 267 l 1
 467 267 l 1
 467 200 l 1
 133 200 l 1
67 133 m 1
 67 200 l 1
 133 200 l 1
 133 133 l 1
 67 133 l 1
400 133 m 1
 400 200 l 1
 467 200 l 1
 467 133 l 1
 400 133 l 1
67 67 m 1
 67 133 l 1
 133 133 l 1
 133 67 l 1
 67 67 l 1
400 67 m 1
 400 133 l 1
 467 133 l 1
 467 67 l 1
 400 67 l 1
133 0 m 1
 133 67 l 1
 400 67 l 1
 400 0 l 1
 133 0 l 1
467 0 m 1
 467 67 l 1
 533 67 l 1
 533 0 l 1
 467 0 l 1
EndSplineSet
EndChar

StartChar: atilde
Encoding: 227 227 166
Width: 533
Flags: HW
LayerCount: 2
Back
Fore
SplineSet
200 533 m 1
 200 600 l 1
 333 600 l 1
 333 533 l 1
 200 533 l 1
400 533 m 1
 400 600 l 1
 467 600 l 1
 467 533 l 1
 400 533 l 1
133 467 m 1
 133 533 l 1
 200 533 l 1
 200 467 l 1
 133 467 l 1
267 467 m 1
 267 533 l 1
 400 533 l 1
 400 467 l 1
 267 467 l 1
133 333 m 1
 133 400 l 1
 400 400 l 1
 400 333 l 1
 133 333 l 1
400 267 m 1
 400 333 l 1
 467 333 l 1
 467 267 l 1
 400 267 l 1
133 200 m 1
 133 267 l 1
 467 267 l 1
 467 200 l 1
 133 200 l 1
67 133 m 1
 67 200 l 1
 133 200 l 1
 133 133 l 1
 67 133 l 1
400 133 m 1
 400 200 l 1
 467 200 l 1
 467 133 l 1
 400 133 l 1
67 67 m 1
 67 133 l 1
 133 133 l 1
 133 67 l 1
 67 67 l 1
400 67 m 1
 400 133 l 1
 467 133 l 1
 467 67 l 1
 400 67 l 1
133 0 m 1
 133 67 l 1
 400 67 l 1
 400 0 l 1
 133 0 l 1
467 0 m 1
 467 67 l 1
 533 67 l 1
 533 0 l 1
 467 0 l 1
EndSplineSet
EndChar

StartChar: adieresis
Encoding: 228 228 167
Width: 533
Flags: HW
LayerCount: 2
Back
Fore
SplineSet
200 533 m 1
 200 600 l 1
 267 600 l 1
 267 533 l 1
 200 533 l 1
400 533 m 1
 400 600 l 1
 467 600 l 1
 467 533 l 1
 400 533 l 1
200 467 m 1
 200 533 l 1
 267 533 l 1
 267 467 l 1
 200 467 l 1
400 467 m 1
 400 533 l 1
 467 533 l 1
 467 467 l 1
 400 467 l 1
133 333 m 1
 133 400 l 1
 400 400 l 1
 400 333 l 1
 133 333 l 1
400 267 m 1
 400 333 l 1
 467 333 l 1
 467 267 l 1
 400 267 l 1
133 200 m 1
 133 267 l 1
 467 267 l 1
 467 200 l 1
 133 200 l 1
67 133 m 1
 67 200 l 1
 133 200 l 1
 133 133 l 1
 67 133 l 1
400 133 m 1
 400 200 l 1
 467 200 l 1
 467 133 l 1
 400 133 l 1
67 67 m 1
 67 133 l 1
 133 133 l 1
 133 67 l 1
 67 67 l 1
400 67 m 1
 400 133 l 1
 467 133 l 1
 467 67 l 1
 400 67 l 1
133 0 m 1
 133 67 l 1
 400 67 l 1
 400 0 l 1
 133 0 l 1
467 0 m 1
 467 67 l 1
 533 67 l 1
 533 0 l 1
 467 0 l 1
EndSplineSet
EndChar

StartChar: aring
Encoding: 229 229 168
Width: 533
Flags: HW
LayerCount: 2
Back
Fore
SplineSet
200 600 m 1
 200 667 l 1
 400 667 l 1
 400 600 l 1
 200 600 l 1
133 533 m 1
 133 600 l 1
 200 600 l 1
 200 533 l 1
 133 533 l 1
400 533 m 1
 400 600 l 1
 467 600 l 1
 467 533 l 1
 400 533 l 1
200 467 m 1
 200 533 l 1
 400 533 l 1
 400 467 l 1
 200 467 l 1
133 333 m 1
 133 400 l 1
 400 400 l 1
 400 333 l 1
 133 333 l 1
400 267 m 1
 400 333 l 1
 467 333 l 1
 467 267 l 1
 400 267 l 1
133 200 m 1
 133 267 l 1
 467 267 l 1
 467 200 l 1
 133 200 l 1
67 133 m 1
 67 200 l 1
 133 200 l 1
 133 133 l 1
 67 133 l 1
400 133 m 1
 400 200 l 1
 467 200 l 1
 467 133 l 1
 400 133 l 1
67 67 m 1
 67 133 l 1
 133 133 l 1
 133 67 l 1
 67 67 l 1
400 67 m 1
 400 133 l 1
 467 133 l 1
 467 67 l 1
 400 67 l 1
133 0 m 1
 133 67 l 1
 400 67 l 1
 400 0 l 1
 133 0 l 1
467 0 m 1
 467 67 l 1
 533 67 l 1
 533 0 l 1
 467 0 l 1
EndSplineSet
EndChar

StartChar: ae
Encoding: 230 230 169
Width: 533
Flags: HW
LayerCount: 2
Back
Fore
SplineSet
67 333 m 1
 67 400 l 1
 267 400 l 1
 267 333 l 1
 67 333 l 1
333 333 m 1
 333 400 l 1
 467 400 l 1
 467 333 l 1
 333 333 l 1
267 267 m 1
 267 333 l 1
 333 333 l 1
 333 267 l 1
 267 267 l 1
467 267 m 1
 467 333 l 1
 533 333 l 1
 533 267 l 1
 467 267 l 1
133 200 m 1
 133 267 l 1
 533 267 l 1
 533 200 l 1
 133 200 l 1
67 133 m 1
 67 200 l 1
 133 200 l 1
 133 133 l 1
 67 133 l 1
267 133 m 1
 267 200 l 1
 333 200 l 1
 333 133 l 1
 267 133 l 1
67 67 m 1
 67 133 l 1
 133 133 l 1
 133 67 l 1
 67 67 l 1
267 67 m 1
 267 133 l 1
 333 133 l 1
 333 67 l 1
 267 67 l 1
467 67 m 1
 467 133 l 1
 533 133 l 1
 533 67 l 1
 467 67 l 1
133 0 m 1
 133 67 l 1
 267 67 l 1
 267 0 l 1
 133 0 l 1
333 0 m 1
 333 67 l 1
 467 67 l 1
 467 0 l 1
 333 0 l 1
EndSplineSet
EndChar

StartChar: ccedilla
Encoding: 231 231 170
Width: 533
Flags: HW
LayerCount: 2
Back
Fore
SplineSet
133 333 m 1
 133 400 l 1
 400 400 l 1
 400 333 l 1
 133 333 l 1
67 267 m 1
 67 333 l 1
 133 333 l 1
 133 267 l 1
 67 267 l 1
400 267 m 1
 400 333 l 1
 467 333 l 1
 467 267 l 1
 400 267 l 1
67 200 m 1
 67 267 l 1
 133 267 l 1
 133 200 l 1
 67 200 l 1
67 133 m 1
 67 200 l 1
 133 200 l 1
 133 133 l 1
 67 133 l 1
67 67 m 1
 67 133 l 1
 133 133 l 1
 133 67 l 1
 67 67 l 1
400 67 m 1
 400 133 l 1
 467 133 l 1
 467 67 l 1
 400 67 l 1
133 0 m 1
 133 67 l 1
 400 67 l 1
 400 0 l 1
 133 0 l 1
200 -67 m 1
 200 0 l 1
 267 0 l 1
 267 -67 l 1
 200 -67 l 1
133 -133 m 1
 133 -67 l 1
 200 -67 l 1
 200 -133 l 1
 133 -133 l 1
EndSplineSet
EndChar

StartChar: egrave
Encoding: 232 232 171
Width: 533
Flags: HW
LayerCount: 2
Back
Fore
SplineSet
200 533 m 1
 200 600 l 1
 267 600 l 1
 267 533 l 1
 200 533 l 1
267 467 m 1
 267 533 l 1
 333 533 l 1
 333 467 l 1
 267 467 l 1
133 333 m 1
 133 400 l 1
 400 400 l 1
 400 333 l 1
 133 333 l 1
67 267 m 1
 67 333 l 1
 133 333 l 1
 133 267 l 1
 67 267 l 1
400 267 m 1
 400 333 l 1
 467 333 l 1
 467 267 l 1
 400 267 l 1
67 200 m 1
 67 267 l 1
 467 267 l 1
 467 200 l 1
 67 200 l 1
67 133 m 1
 67 200 l 1
 133 200 l 1
 133 133 l 1
 67 133 l 1
67 67 m 1
 67 133 l 1
 133 133 l 1
 133 67 l 1
 67 67 l 1
400 67 m 1
 400 133 l 1
 467 133 l 1
 467 67 l 1
 400 67 l 1
133 0 m 1
 133 67 l 1
 400 67 l 1
 400 0 l 1
 133 0 l 1
EndSplineSet
EndChar

StartChar: eacute
Encoding: 233 233 172
Width: 533
Flags: HW
LayerCount: 2
Back
Fore
SplineSet
333 533 m 1
 333 600 l 1
 400 600 l 1
 400 533 l 1
 333 533 l 1
267 467 m 1
 267 533 l 1
 333 533 l 1
 333 467 l 1
 267 467 l 1
133 333 m 1
 133 400 l 1
 400 400 l 1
 400 333 l 1
 133 333 l 1
67 267 m 1
 67 333 l 1
 133 333 l 1
 133 267 l 1
 67 267 l 1
400 267 m 1
 400 333 l 1
 467 333 l 1
 467 267 l 1
 400 267 l 1
67 200 m 1
 67 267 l 1
 467 267 l 1
 467 200 l 1
 67 200 l 1
67 133 m 1
 67 200 l 1
 133 200 l 1
 133 133 l 1
 67 133 l 1
67 67 m 1
 67 133 l 1
 133 133 l 1
 133 67 l 1
 67 67 l 1
400 67 m 1
 400 133 l 1
 467 133 l 1
 467 67 l 1
 400 67 l 1
133 0 m 1
 133 67 l 1
 400 67 l 1
 400 0 l 1
 133 0 l 1
EndSplineSet
EndChar

StartChar: ecircumflex
Encoding: 234 234 173
Width: 533
Flags: HW
LayerCount: 2
Back
Fore
SplineSet
200 533 m 1
 200 600 l 1
 333 600 l 1
 333 533 l 1
 200 533 l 1
133 467 m 1
 133 533 l 1
 200 533 l 1
 200 467 l 1
 133 467 l 1
333 467 m 1
 333 533 l 1
 400 533 l 1
 400 467 l 1
 333 467 l 1
133 333 m 1
 133 400 l 1
 400 400 l 1
 400 333 l 1
 133 333 l 1
67 267 m 1
 67 333 l 1
 133 333 l 1
 133 267 l 1
 67 267 l 1
400 267 m 1
 400 333 l 1
 467 333 l 1
 467 267 l 1
 400 267 l 1
67 200 m 1
 67 267 l 1
 467 267 l 1
 467 200 l 1
 67 200 l 1
67 133 m 1
 67 200 l 1
 133 200 l 1
 133 133 l 1
 67 133 l 1
67 67 m 1
 67 133 l 1
 133 133 l 1
 133 67 l 1
 67 67 l 1
400 67 m 1
 400 133 l 1
 467 133 l 1
 467 67 l 1
 400 67 l 1
133 0 m 1
 133 67 l 1
 400 67 l 1
 400 0 l 1
 133 0 l 1
EndSplineSet
EndChar

StartChar: edieresis
Encoding: 235 235 174
Width: 533
Flags: HW
LayerCount: 2
Back
Fore
SplineSet
133 533 m 1
 133 600 l 1
 200 600 l 1
 200 533 l 1
 133 533 l 1
333 533 m 1
 333 600 l 1
 400 600 l 1
 400 533 l 1
 333 533 l 1
133 467 m 1
 133 533 l 1
 200 533 l 1
 200 467 l 1
 133 467 l 1
333 467 m 1
 333 533 l 1
 400 533 l 1
 400 467 l 1
 333 467 l 1
133 333 m 1
 133 400 l 1
 400 400 l 1
 400 333 l 1
 133 333 l 1
67 267 m 1
 67 333 l 1
 133 333 l 1
 133 267 l 1
 67 267 l 1
400 267 m 1
 400 333 l 1
 467 333 l 1
 467 267 l 1
 400 267 l 1
67 200 m 1
 67 267 l 1
 467 267 l 1
 467 200 l 1
 67 200 l 1
67 133 m 1
 67 200 l 1
 133 200 l 1
 133 133 l 1
 67 133 l 1
67 67 m 1
 67 133 l 1
 133 133 l 1
 133 67 l 1
 67 67 l 1
400 67 m 1
 400 133 l 1
 467 133 l 1
 467 67 l 1
 400 67 l 1
133 0 m 1
 133 67 l 1
 400 67 l 1
 400 0 l 1
 133 0 l 1
EndSplineSet
EndChar

StartChar: igrave
Encoding: 236 236 175
Width: 533
Flags: HW
LayerCount: 2
Back
Fore
SplineSet
200 533 m 1
 200 600 l 1
 267 600 l 1
 267 533 l 1
 200 533 l 1
267 467 m 1
 267 533 l 1
 333 533 l 1
 333 467 l 1
 267 467 l 1
200 333 m 1
 200 400 l 1
 333 400 l 1
 333 333 l 1
 200 333 l 1
267 267 m 1
 267 333 l 1
 333 333 l 1
 333 267 l 1
 267 267 l 1
267 200 m 1
 267 267 l 1
 333 267 l 1
 333 200 l 1
 267 200 l 1
267 133 m 1
 267 200 l 1
 333 200 l 1
 333 133 l 1
 267 133 l 1
267 67 m 1
 267 133 l 1
 333 133 l 1
 333 67 l 1
 267 67 l 1
133 0 m 1
 133 67 l 1
 467 67 l 1
 467 0 l 1
 133 0 l 1
EndSplineSet
EndChar

StartChar: iacute
Encoding: 237 237 176
Width: 533
Flags: HW
LayerCount: 2
Back
Fore
SplineSet
267 533 m 1
 267 600 l 1
 333 600 l 1
 333 533 l 1
 267 533 l 1
200 467 m 1
 200 533 l 1
 267 533 l 1
 267 467 l 1
 200 467 l 1
200 333 m 1
 200 400 l 1
 333 400 l 1
 333 333 l 1
 200 333 l 1
267 267 m 1
 267 333 l 1
 333 333 l 1
 333 267 l 1
 267 267 l 1
267 200 m 1
 267 267 l 1
 333 267 l 1
 333 200 l 1
 267 200 l 1
267 133 m 1
 267 200 l 1
 333 200 l 1
 333 133 l 1
 267 133 l 1
267 67 m 1
 267 133 l 1
 333 133 l 1
 333 67 l 1
 267 67 l 1
133 0 m 1
 133 67 l 1
 467 67 l 1
 467 0 l 1
 133 0 l 1
EndSplineSet
EndChar

StartChar: icircumflex
Encoding: 238 238 177
Width: 533
Flags: HW
LayerCount: 2
Back
Fore
SplineSet
200 533 m 1
 200 600 l 1
 333 600 l 1
 333 533 l 1
 200 533 l 1
133 467 m 1
 133 533 l 1
 200 533 l 1
 200 467 l 1
 133 467 l 1
333 467 m 1
 333 533 l 1
 400 533 l 1
 400 467 l 1
 333 467 l 1
200 333 m 1
 200 400 l 1
 333 400 l 1
 333 333 l 1
 200 333 l 1
267 267 m 1
 267 333 l 1
 333 333 l 1
 333 267 l 1
 267 267 l 1
267 200 m 1
 267 267 l 1
 333 267 l 1
 333 200 l 1
 267 200 l 1
267 133 m 1
 267 200 l 1
 333 200 l 1
 333 133 l 1
 267 133 l 1
267 67 m 1
 267 133 l 1
 333 133 l 1
 333 67 l 1
 267 67 l 1
133 0 m 1
 133 67 l 1
 467 67 l 1
 467 0 l 1
 133 0 l 1
EndSplineSet
EndChar

StartChar: idieresis
Encoding: 239 239 178
Width: 533
Flags: HW
LayerCount: 2
Back
Fore
SplineSet
200 533 m 1
 200 600 l 1
 267 600 l 1
 267 533 l 1
 200 533 l 1
333 533 m 1
 333 600 l 1
 400 600 l 1
 400 533 l 1
 333 533 l 1
200 467 m 1
 200 533 l 1
 267 533 l 1
 267 467 l 1
 200 467 l 1
333 467 m 1
 333 533 l 1
 400 533 l 1
 400 467 l 1
 333 467 l 1
200 333 m 1
 200 400 l 1
 333 400 l 1
 333 333 l 1
 200 333 l 1
267 267 m 1
 267 333 l 1
 333 333 l 1
 333 267 l 1
 267 267 l 1
267 200 m 1
 267 267 l 1
 333 267 l 1
 333 200 l 1
 267 200 l 1
267 133 m 1
 267 200 l 1
 333 200 l 1
 333 133 l 1
 267 133 l 1
267 67 m 1
 267 133 l 1
 333 133 l 1
 333 67 l 1
 267 67 l 1
133 0 m 1
 133 67 l 1
 467 67 l 1
 467 0 l 1
 133 0 l 1
EndSplineSet
EndChar

StartChar: eth
Encoding: 240 240 179
Width: 533
Flags: HW
LayerCount: 2
Back
Fore
SplineSet
67 533 m 1
 67 600 l 1
 133 600 l 1
 133 533 l 1
 67 533 l 1
267 533 m 1
 267 600 l 1
 333 600 l 1
 333 533 l 1
 267 533 l 1
133 467 m 1
 133 533 l 1
 267 533 l 1
 267 467 l 1
 133 467 l 1
133 400 m 1
 133 467 l 1
 267 467 l 1
 267 400 l 1
 133 400 l 1
67 333 m 1
 67 400 l 1
 133 400 l 1
 133 333 l 1
 67 333 l 1
267 333 m 1
 267 400 l 1
 333 400 l 1
 333 333 l 1
 267 333 l 1
133 267 m 1
 133 333 l 1
 400 333 l 1
 400 267 l 1
 133 267 l 1
67 200 m 1
 67 267 l 1
 133 267 l 1
 133 200 l 1
 67 200 l 1
400 200 m 1
 400 267 l 1
 467 267 l 1
 467 200 l 1
 400 200 l 1
67 133 m 1
 67 200 l 1
 133 200 l 1
 133 133 l 1
 67 133 l 1
400 133 m 1
 400 200 l 1
 467 200 l 1
 467 133 l 1
 400 133 l 1
67 67 m 1
 67 133 l 1
 133 133 l 1
 133 67 l 1
 67 67 l 1
400 67 m 1
 400 133 l 1
 467 133 l 1
 467 67 l 1
 400 67 l 1
133 0 m 1
 133 67 l 1
 400 67 l 1
 400 0 l 1
 133 0 l 1
EndSplineSet
EndChar

StartChar: ntilde
Encoding: 241 241 180
Width: 533
Flags: HW
LayerCount: 2
Back
Fore
SplineSet
200 533 m 1
 200 600 l 1
 333 600 l 1
 333 533 l 1
 200 533 l 1
400 533 m 1
 400 600 l 1
 467 600 l 1
 467 533 l 1
 400 533 l 1
133 467 m 1
 133 533 l 1
 200 533 l 1
 200 467 l 1
 133 467 l 1
267 467 m 1
 267 533 l 1
 400 533 l 1
 400 467 l 1
 267 467 l 1
67 333 m 1
 67 400 l 1
 133 400 l 1
 133 333 l 1
 67 333 l 1
200 333 m 1
 200 400 l 1
 400 400 l 1
 400 333 l 1
 200 333 l 1
67 267 m 1
 67 333 l 1
 200 333 l 1
 200 267 l 1
 67 267 l 1
400 267 m 1
 400 333 l 1
 467 333 l 1
 467 267 l 1
 400 267 l 1
67 200 m 1
 67 267 l 1
 133 267 l 1
 133 200 l 1
 67 200 l 1
400 200 m 1
 400 267 l 1
 467 267 l 1
 467 200 l 1
 400 200 l 1
67 133 m 1
 67 200 l 1
 133 200 l 1
 133 133 l 1
 67 133 l 1
400 133 m 1
 400 200 l 1
 467 200 l 1
 467 133 l 1
 400 133 l 1
67 67 m 1
 67 133 l 1
 133 133 l 1
 133 67 l 1
 67 67 l 1
400 67 m 1
 400 133 l 1
 467 133 l 1
 467 67 l 1
 400 67 l 1
67 0 m 1
 67 67 l 1
 133 67 l 1
 133 0 l 1
 67 0 l 1
400 0 m 1
 400 67 l 1
 467 67 l 1
 467 0 l 1
 400 0 l 1
EndSplineSet
EndChar

StartChar: ograve
Encoding: 242 242 181
Width: 533
Flags: HW
LayerCount: 2
Back
Fore
SplineSet
200 533 m 1
 200 600 l 1
 267 600 l 1
 267 533 l 1
 200 533 l 1
267 467 m 1
 267 533 l 1
 333 533 l 1
 333 467 l 1
 267 467 l 1
133 333 m 1
 133 400 l 1
 400 400 l 1
 400 333 l 1
 133 333 l 1
67 267 m 1
 67 333 l 1
 133 333 l 1
 133 267 l 1
 67 267 l 1
400 267 m 1
 400 333 l 1
 467 333 l 1
 467 267 l 1
 400 267 l 1
67 200 m 1
 67 267 l 1
 133 267 l 1
 133 200 l 1
 67 200 l 1
400 200 m 1
 400 267 l 1
 467 267 l 1
 467 200 l 1
 400 200 l 1
67 133 m 1
 67 200 l 1
 133 200 l 1
 133 133 l 1
 67 133 l 1
400 133 m 1
 400 200 l 1
 467 200 l 1
 467 133 l 1
 400 133 l 1
67 67 m 1
 67 133 l 1
 133 133 l 1
 133 67 l 1
 67 67 l 1
400 67 m 1
 400 133 l 1
 467 133 l 1
 467 67 l 1
 400 67 l 1
133 0 m 1
 133 67 l 1
 400 67 l 1
 400 0 l 1
 133 0 l 1
EndSplineSet
EndChar

StartChar: oacute
Encoding: 243 243 182
Width: 533
Flags: HW
LayerCount: 2
Back
Fore
SplineSet
267 533 m 1
 267 600 l 1
 333 600 l 1
 333 533 l 1
 267 533 l 1
200 467 m 1
 200 533 l 1
 267 533 l 1
 267 467 l 1
 200 467 l 1
133 333 m 1
 133 400 l 1
 400 400 l 1
 400 333 l 1
 133 333 l 1
67 267 m 1
 67 333 l 1
 133 333 l 1
 133 267 l 1
 67 267 l 1
400 267 m 1
 400 333 l 1
 467 333 l 1
 467 267 l 1
 400 267 l 1
67 200 m 1
 67 267 l 1
 133 267 l 1
 133 200 l 1
 67 200 l 1
400 200 m 1
 400 267 l 1
 467 267 l 1
 467 200 l 1
 400 200 l 1
67 133 m 1
 67 200 l 1
 133 200 l 1
 133 133 l 1
 67 133 l 1
400 133 m 1
 400 200 l 1
 467 200 l 1
 467 133 l 1
 400 133 l 1
67 67 m 1
 67 133 l 1
 133 133 l 1
 133 67 l 1
 67 67 l 1
400 67 m 1
 400 133 l 1
 467 133 l 1
 467 67 l 1
 400 67 l 1
133 0 m 1
 133 67 l 1
 400 67 l 1
 400 0 l 1
 133 0 l 1
EndSplineSet
EndChar

StartChar: ocircumflex
Encoding: 244 244 183
Width: 533
Flags: HW
LayerCount: 2
Back
Fore
SplineSet
200 533 m 1
 200 600 l 1
 333 600 l 1
 333 533 l 1
 200 533 l 1
133 467 m 1
 133 533 l 1
 200 533 l 1
 200 467 l 1
 133 467 l 1
333 467 m 1
 333 533 l 1
 400 533 l 1
 400 467 l 1
 333 467 l 1
133 333 m 1
 133 400 l 1
 400 400 l 1
 400 333 l 1
 133 333 l 1
67 267 m 1
 67 333 l 1
 133 333 l 1
 133 267 l 1
 67 267 l 1
400 267 m 1
 400 333 l 1
 467 333 l 1
 467 267 l 1
 400 267 l 1
67 200 m 1
 67 267 l 1
 133 267 l 1
 133 200 l 1
 67 200 l 1
400 200 m 1
 400 267 l 1
 467 267 l 1
 467 200 l 1
 400 200 l 1
67 133 m 1
 67 200 l 1
 133 200 l 1
 133 133 l 1
 67 133 l 1
400 133 m 1
 400 200 l 1
 467 200 l 1
 467 133 l 1
 400 133 l 1
67 67 m 1
 67 133 l 1
 133 133 l 1
 133 67 l 1
 67 67 l 1
400 67 m 1
 400 133 l 1
 467 133 l 1
 467 67 l 1
 400 67 l 1
133 0 m 1
 133 67 l 1
 400 67 l 1
 400 0 l 1
 133 0 l 1
EndSplineSet
EndChar

StartChar: otilde
Encoding: 245 245 184
Width: 533
Flags: HW
LayerCount: 2
Back
Fore
SplineSet
200 533 m 1
 200 600 l 1
 333 600 l 1
 333 533 l 1
 200 533 l 1
400 533 m 1
 400 600 l 1
 467 600 l 1
 467 533 l 1
 400 533 l 1
133 467 m 1
 133 533 l 1
 200 533 l 1
 200 467 l 1
 133 467 l 1
267 467 m 1
 267 533 l 1
 400 533 l 1
 400 467 l 1
 267 467 l 1
133 333 m 1
 133 400 l 1
 400 400 l 1
 400 333 l 1
 133 333 l 1
67 267 m 1
 67 333 l 1
 133 333 l 1
 133 267 l 1
 67 267 l 1
400 267 m 1
 400 333 l 1
 467 333 l 1
 467 267 l 1
 400 267 l 1
67 200 m 1
 67 267 l 1
 133 267 l 1
 133 200 l 1
 67 200 l 1
400 200 m 1
 400 267 l 1
 467 267 l 1
 467 200 l 1
 400 200 l 1
67 133 m 1
 67 200 l 1
 133 200 l 1
 133 133 l 1
 67 133 l 1
400 133 m 1
 400 200 l 1
 467 200 l 1
 467 133 l 1
 400 133 l 1
67 67 m 1
 67 133 l 1
 133 133 l 1
 133 67 l 1
 67 67 l 1
400 67 m 1
 400 133 l 1
 467 133 l 1
 467 67 l 1
 400 67 l 1
133 0 m 1
 133 67 l 1
 400 67 l 1
 400 0 l 1
 133 0 l 1
EndSplineSet
EndChar

StartChar: odieresis
Encoding: 246 246 185
Width: 533
Flags: HW
LayerCount: 2
Back
Fore
SplineSet
133 533 m 1
 133 600 l 1
 200 600 l 1
 200 533 l 1
 133 533 l 1
333 533 m 1
 333 600 l 1
 400 600 l 1
 400 533 l 1
 333 533 l 1
133 467 m 1
 133 533 l 1
 200 533 l 1
 200 467 l 1
 133 467 l 1
333 467 m 1
 333 533 l 1
 400 533 l 1
 400 467 l 1
 333 467 l 1
133 333 m 1
 133 400 l 1
 400 400 l 1
 400 333 l 1
 133 333 l 1
67 267 m 1
 67 333 l 1
 133 333 l 1
 133 267 l 1
 67 267 l 1
400 267 m 1
 400 333 l 1
 467 333 l 1
 467 267 l 1
 400 267 l 1
67 200 m 1
 67 267 l 1
 133 267 l 1
 133 200 l 1
 67 200 l 1
400 200 m 1
 400 267 l 1
 467 267 l 1
 467 200 l 1
 400 200 l 1
67 133 m 1
 67 200 l 1
 133 200 l 1
 133 133 l 1
 67 133 l 1
400 133 m 1
 400 200 l 1
 467 200 l 1
 467 133 l 1
 400 133 l 1
67 67 m 1
 67 133 l 1
 133 133 l 1
 133 67 l 1
 67 67 l 1
400 67 m 1
 400 133 l 1
 467 133 l 1
 467 67 l 1
 400 67 l 1
133 0 m 1
 133 67 l 1
 400 67 l 1
 400 0 l 1
 133 0 l 1
EndSplineSet
EndChar

StartChar: divide
Encoding: 247 247 186
Width: 533
Flags: HW
LayerCount: 2
Back
Fore
SplineSet
267 400 m 1
 267 467 l 1
 333 467 l 1
 333 400 l 1
 267 400 l 1
267 333 m 1
 267 400 l 1
 333 400 l 1
 333 333 l 1
 267 333 l 1
133 200 m 1
 133 267 l 1
 467 267 l 1
 467 200 l 1
 133 200 l 1
267 67 m 1
 267 133 l 1
 333 133 l 1
 333 67 l 1
 267 67 l 1
267 0 m 1
 267 67 l 1
 333 67 l 1
 333 0 l 1
 267 0 l 1
EndSplineSet
EndChar

StartChar: oslash
Encoding: 248 248 187
Width: 533
Flags: HW
LayerCount: 2
Back
Fore
SplineSet
467 400 m 1
 467 467 l 1
 533 467 l 1
 533 400 l 1
 467 400 l 1
133 333 m 1
 133 400 l 1
 467 400 l 1
 467 333 l 1
 133 333 l 1
67 267 m 1
 67 333 l 1
 133 333 l 1
 133 267 l 1
 67 267 l 1
333 267 m 1
 333 333 l 1
 467 333 l 1
 467 267 l 1
 333 267 l 1
67 200 m 1
 67 267 l 1
 133 267 l 1
 133 200 l 1
 67 200 l 1
267 200 m 1
 267 267 l 1
 333 267 l 1
 333 200 l 1
 267 200 l 1
400 200 m 1
 400 267 l 1
 467 267 l 1
 467 200 l 1
 400 200 l 1
67 133 m 1
 67 200 l 1
 133 200 l 1
 133 133 l 1
 67 133 l 1
200 133 m 1
 200 200 l 1
 267 200 l 1
 267 133 l 1
 200 133 l 1
400 133 m 1
 400 200 l 1
 467 200 l 1
 467 133 l 1
 400 133 l 1
67 67 m 1
 67 133 l 1
 200 133 l 1
 200 67 l 1
 67 67 l 1
400 67 m 1
 400 133 l 1
 467 133 l 1
 467 67 l 1
 400 67 l 1
67 0 m 1
 67 67 l 1
 400 67 l 1
 400 0 l 1
 67 0 l 1
0 -67 m 1
 0 0 l 1
 67 0 l 1
 67 -67 l 1
 0 -67 l 1
EndSplineSet
EndChar

StartChar: ugrave
Encoding: 249 249 188
Width: 533
Flags: HW
LayerCount: 2
Back
Fore
SplineSet
200 533 m 1
 200 600 l 1
 267 600 l 1
 267 533 l 1
 200 533 l 1
267 467 m 1
 267 533 l 1
 333 533 l 1
 333 467 l 1
 267 467 l 1
67 333 m 1
 67 400 l 1
 133 400 l 1
 133 333 l 1
 67 333 l 1
400 333 m 1
 400 400 l 1
 467 400 l 1
 467 333 l 1
 400 333 l 1
67 267 m 1
 67 333 l 1
 133 333 l 1
 133 267 l 1
 67 267 l 1
400 267 m 1
 400 333 l 1
 467 333 l 1
 467 267 l 1
 400 267 l 1
67 200 m 1
 67 267 l 1
 133 267 l 1
 133 200 l 1
 67 200 l 1
400 200 m 1
 400 267 l 1
 467 267 l 1
 467 200 l 1
 400 200 l 1
67 133 m 1
 67 200 l 1
 133 200 l 1
 133 133 l 1
 67 133 l 1
400 133 m 1
 400 200 l 1
 467 200 l 1
 467 133 l 1
 400 133 l 1
67 67 m 1
 67 133 l 1
 133 133 l 1
 133 67 l 1
 67 67 l 1
333 67 m 1
 333 133 l 1
 467 133 l 1
 467 67 l 1
 333 67 l 1
133 0 m 1
 133 67 l 1
 333 67 l 1
 333 0 l 1
 133 0 l 1
400 0 m 1
 400 67 l 1
 467 67 l 1
 467 0 l 1
 400 0 l 1
EndSplineSet
EndChar

StartChar: uacute
Encoding: 250 250 189
Width: 533
Flags: HW
LayerCount: 2
Back
Fore
SplineSet
267 533 m 1
 267 600 l 1
 333 600 l 1
 333 533 l 1
 267 533 l 1
200 467 m 1
 200 533 l 1
 267 533 l 1
 267 467 l 1
 200 467 l 1
67 333 m 1
 67 400 l 1
 133 400 l 1
 133 333 l 1
 67 333 l 1
400 333 m 1
 400 400 l 1
 467 400 l 1
 467 333 l 1
 400 333 l 1
67 267 m 1
 67 333 l 1
 133 333 l 1
 133 267 l 1
 67 267 l 1
400 267 m 1
 400 333 l 1
 467 333 l 1
 467 267 l 1
 400 267 l 1
67 200 m 1
 67 267 l 1
 133 267 l 1
 133 200 l 1
 67 200 l 1
400 200 m 1
 400 267 l 1
 467 267 l 1
 467 200 l 1
 400 200 l 1
67 133 m 1
 67 200 l 1
 133 200 l 1
 133 133 l 1
 67 133 l 1
400 133 m 1
 400 200 l 1
 467 200 l 1
 467 133 l 1
 400 133 l 1
67 67 m 1
 67 133 l 1
 133 133 l 1
 133 67 l 1
 67 67 l 1
333 67 m 1
 333 133 l 1
 467 133 l 1
 467 67 l 1
 333 67 l 1
133 0 m 1
 133 67 l 1
 333 67 l 1
 333 0 l 1
 133 0 l 1
400 0 m 1
 400 67 l 1
 467 67 l 1
 467 0 l 1
 400 0 l 1
EndSplineSet
EndChar

StartChar: ucircumflex
Encoding: 251 251 190
Width: 533
Flags: HW
LayerCount: 2
Back
Fore
SplineSet
200 533 m 1
 200 600 l 1
 333 600 l 1
 333 533 l 1
 200 533 l 1
133 467 m 1
 133 533 l 1
 200 533 l 1
 200 467 l 1
 133 467 l 1
333 467 m 1
 333 533 l 1
 400 533 l 1
 400 467 l 1
 333 467 l 1
67 333 m 1
 67 400 l 1
 133 400 l 1
 133 333 l 1
 67 333 l 1
400 333 m 1
 400 400 l 1
 467 400 l 1
 467 333 l 1
 400 333 l 1
67 267 m 1
 67 333 l 1
 133 333 l 1
 133 267 l 1
 67 267 l 1
400 267 m 1
 400 333 l 1
 467 333 l 1
 467 267 l 1
 400 267 l 1
67 200 m 1
 67 267 l 1
 133 267 l 1
 133 200 l 1
 67 200 l 1
400 200 m 1
 400 267 l 1
 467 267 l 1
 467 200 l 1
 400 200 l 1
67 133 m 1
 67 200 l 1
 133 200 l 1
 133 133 l 1
 67 133 l 1
400 133 m 1
 400 200 l 1
 467 200 l 1
 467 133 l 1
 400 133 l 1
67 67 m 1
 67 133 l 1
 133 133 l 1
 133 67 l 1
 67 67 l 1
333 67 m 1
 333 133 l 1
 467 133 l 1
 467 67 l 1
 333 67 l 1
133 0 m 1
 133 67 l 1
 333 67 l 1
 333 0 l 1
 133 0 l 1
400 0 m 1
 400 67 l 1
 467 67 l 1
 467 0 l 1
 400 0 l 1
EndSplineSet
EndChar

StartChar: udieresis
Encoding: 252 252 191
Width: 533
Flags: HW
LayerCount: 2
Back
Fore
SplineSet
133 533 m 1
 133 600 l 1
 200 600 l 1
 200 533 l 1
 133 533 l 1
333 533 m 1
 333 600 l 1
 400 600 l 1
 400 533 l 1
 333 533 l 1
133 467 m 1
 133 533 l 1
 200 533 l 1
 200 467 l 1
 133 467 l 1
333 467 m 1
 333 533 l 1
 400 533 l 1
 400 467 l 1
 333 467 l 1
67 333 m 1
 67 400 l 1
 133 400 l 1
 133 333 l 1
 67 333 l 1
400 333 m 1
 400 400 l 1
 467 400 l 1
 467 333 l 1
 400 333 l 1
67 267 m 1
 67 333 l 1
 133 333 l 1
 133 267 l 1
 67 267 l 1
400 267 m 1
 400 333 l 1
 467 333 l 1
 467 267 l 1
 400 267 l 1
67 200 m 1
 67 267 l 1
 133 267 l 1
 133 200 l 1
 67 200 l 1
400 200 m 1
 400 267 l 1
 467 267 l 1
 467 200 l 1
 400 200 l 1
67 133 m 1
 67 200 l 1
 133 200 l 1
 133 133 l 1
 67 133 l 1
400 133 m 1
 400 200 l 1
 467 200 l 1
 467 133 l 1
 400 133 l 1
67 67 m 1
 67 133 l 1
 133 133 l 1
 133 67 l 1
 67 67 l 1
333 67 m 1
 333 133 l 1
 467 133 l 1
 467 67 l 1
 333 67 l 1
133 0 m 1
 133 67 l 1
 333 67 l 1
 333 0 l 1
 133 0 l 1
400 0 m 1
 400 67 l 1
 467 67 l 1
 467 0 l 1
 400 0 l 1
EndSplineSet
EndChar

StartChar: yacute
Encoding: 253 253 192
Width: 533
Flags: HW
LayerCount: 2
Back
Fore
SplineSet
333 533 m 1
 333 600 l 1
 400 600 l 1
 400 533 l 1
 333 533 l 1
267 467 m 1
 267 533 l 1
 333 533 l 1
 333 467 l 1
 267 467 l 1
67 333 m 1
 67 400 l 1
 200 400 l 1
 200 333 l 1
 67 333 l 1
400 333 m 1
 400 400 l 1
 533 400 l 1
 533 333 l 1
 400 333 l 1
133 267 m 1
 133 333 l 1
 200 333 l 1
 200 267 l 1
 133 267 l 1
400 267 m 1
 400 333 l 1
 467 333 l 1
 467 267 l 1
 400 267 l 1
133 200 m 1
 133 267 l 1
 200 267 l 1
 200 200 l 1
 133 200 l 1
400 200 m 1
 400 267 l 1
 467 267 l 1
 467 200 l 1
 400 200 l 1
200 133 m 1
 200 200 l 1
 267 200 l 1
 267 133 l 1
 200 133 l 1
333 133 m 1
 333 200 l 1
 400 200 l 1
 400 133 l 1
 333 133 l 1
267 67 m 1
 267 133 l 1
 400 133 l 1
 400 67 l 1
 267 67 l 1
267 0 m 1
 267 67 l 1
 333 67 l 1
 333 0 l 1
 267 0 l 1
67 -67 m 1
 67 0 l 1
 133 0 l 1
 133 -67 l 1
 67 -67 l 1
267 -67 m 1
 267 0 l 1
 333 0 l 1
 333 -67 l 1
 267 -67 l 1
133 -133 m 1
 133 -67 l 1
 267 -67 l 1
 267 -133 l 1
 133 -133 l 1
EndSplineSet
EndChar

StartChar: thorn
Encoding: 254 254 193
Width: 533
Flags: HW
LayerCount: 2
Back
Fore
SplineSet
67 467 m 1
 67 533 l 1
 267 533 l 1
 267 467 l 1
 67 467 l 1
133 400 m 1
 133 467 l 1
 200 467 l 1
 200 400 l 1
 133 400 l 1
133 333 m 1
 133 400 l 1
 400 400 l 1
 400 333 l 1
 133 333 l 1
133 267 m 1
 133 333 l 1
 200 333 l 1
 200 267 l 1
 133 267 l 1
400 267 m 1
 400 333 l 1
 467 333 l 1
 467 267 l 1
 400 267 l 1
133 200 m 1
 133 267 l 1
 200 267 l 1
 200 200 l 1
 133 200 l 1
400 200 m 1
 400 267 l 1
 467 267 l 1
 467 200 l 1
 400 200 l 1
133 133 m 1
 133 200 l 1
 200 200 l 1
 200 133 l 1
 133 133 l 1
400 133 m 1
 400 200 l 1
 467 200 l 1
 467 133 l 1
 400 133 l 1
133 67 m 1
 133 133 l 1
 200 133 l 1
 200 67 l 1
 133 67 l 1
400 67 m 1
 400 133 l 1
 467 133 l 1
 467 67 l 1
 400 67 l 1
133 0 m 1
 133 67 l 1
 400 67 l 1
 400 0 l 1
 133 0 l 1
133 -67 m 1
 133 0 l 1
 200 0 l 1
 200 -67 l 1
 133 -67 l 1
67 -133 m 1
 67 -67 l 1
 267 -67 l 1
 267 -133 l 1
 67 -133 l 1
EndSplineSet
EndChar

StartChar: ydieresis
Encoding: 255 255 194
Width: 533
Flags: HW
LayerCount: 2
Back
Fore
SplineSet
200 533 m 1
 200 600 l 1
 267 600 l 1
 267 533 l 1
 200 533 l 1
333 533 m 1
 333 600 l 1
 400 600 l 1
 400 533 l 1
 333 533 l 1
200 467 m 1
 200 533 l 1
 267 533 l 1
 267 467 l 1
 200 467 l 1
333 467 m 1
 333 533 l 1
 400 533 l 1
 400 467 l 1
 333 467 l 1
67 333 m 1
 67 400 l 1
 200 400 l 1
 200 333 l 1
 67 333 l 1
400 333 m 1
 400 400 l 1
 533 400 l 1
 533 333 l 1
 400 333 l 1
133 267 m 1
 133 333 l 1
 200 333 l 1
 200 267 l 1
 133 267 l 1
400 267 m 1
 400 333 l 1
 467 333 l 1
 467 267 l 1
 400 267 l 1
133 200 m 1
 133 267 l 1
 200 267 l 1
 200 200 l 1
 133 200 l 1
400 200 m 1
 400 267 l 1
 467 267 l 1
 467 200 l 1
 400 200 l 1
200 133 m 1
 200 200 l 1
 267 200 l 1
 267 133 l 1
 200 133 l 1
333 133 m 1
 333 200 l 1
 400 200 l 1
 400 133 l 1
 333 133 l 1
200 67 m 1
 200 133 l 1
 267 133 l 1
 267 67 l 1
 200 67 l 1
333 67 m 1
 333 133 l 1
 400 133 l 1
 400 67 l 1
 333 67 l 1
267 0 m 1
 267 67 l 1
 333 67 l 1
 333 0 l 1
 267 0 l 1
67 -67 m 1
 67 0 l 1
 133 0 l 1
 133 -67 l 1
 67 -67 l 1
267 -67 m 1
 267 0 l 1
 333 0 l 1
 333 -67 l 1
 267 -67 l 1
133 -133 m 1
 133 -67 l 1
 267 -67 l 1
 267 -133 l 1
 133 -133 l 1
EndSplineSet
EndChar
